{"glyphs":{"0":{"ha":960,"x_min":42,"x_max":918,"o":"m 479 1006 q 657 965 576 1006 q 796 854 738 924 q 886 694 854 785 q 918 504 918 603 q 886 313 918 404 q 796 153 854 222 q 657 42 738 83 q 479 1 576 1 q 301 42 382 1 q 163 153 221 83 q 74 313 106 222 q 42 504 42 404 q 74 694 42 603 q 163 854 106 785 q 301 965 221 924 q 479 1006 382 1006 m 479 117 q 547 135 514 117 q 606 197 581 153 q 647 316 632 242 q 663 504 663 390 q 647 692 663 617 q 606 811 632 767 q 547 874 581 856 q 479 892 514 892 q 412 874 444 892 q 353 811 379 856 q 313 692 328 767 q 297 504 297 617 q 313 316 297 390 q 353 197 328 242 q 412 135 379 153 q 479 117 444 117 z "},"1":{"ha":507,"x_min":42,"x_max":465,"o":"m 457 65 q 465 40 465 54 q 454 13 465 24 q 426 1 443 1 l 144 1 q 117 13 128 1 q 106 40 106 24 q 114 65 106 54 l 168 128 l 168 790 l 69 807 q 49 819 57 810 q 42 840 42 828 q 61 871 42 863 l 350 1003 q 367 1006 356 1006 q 393 995 382 1006 q 404 969 404 985 l 404 128 l 457 65 z "},"2":{"ha":838,"x_min":42,"x_max":797,"o":"m 754 300 q 785 285 774 300 q 794 251 797 271 l 760 36 q 746 11 757 21 q 719 1 735 1 l 85 1 q 54 15 67 1 q 43 46 42 28 q 91 224 51 149 q 185 358 131 300 q 302 461 240 415 q 416 551 364 507 q 502 644 468 596 q 536 754 536 692 q 531 807 536 781 q 514 853 525 833 q 485 886 503 874 q 442 899 467 899 q 370 847 394 899 q 338 696 346 794 q 317 636 335 663 q 274 594 300 610 q 217 576 249 579 q 156 585 186 572 q 86 649 108 604 q 76 742 64 693 q 137 865 96 814 q 228 947 178 915 q 335 992 279 978 q 442 1006 392 1006 q 571 989 508 1006 q 683 938 633 972 q 762 850 732 903 q 792 726 792 797 q 755 588 792 642 q 661 497 718 533 q 536 437 604 461 q 406 386 468 413 q 294 326 343 360 q 228 238 246 292 l 585 238 q 660 251 624 238 q 728 290 697 264 q 754 300 740 300 z "},"3":{"ha":807,"x_min":40,"x_max":765,"o":"m 508 499 q 609 465 563 489 q 690 406 656 442 q 745 323 725 369 q 765 222 765 276 q 738 94 765 150 q 661 -2 710 38 q 545 -62 613 -42 q 397 -83 478 -83 q 281 -72 332 -83 q 189 -43 229 -61 q 119 -1 149 -25 q 69 50 90 24 q 43 115 46 81 q 55 180 40 150 q 99 229 69 210 q 165 249 128 249 q 247 218 213 249 q 288 142 281 188 q 297 101 290 121 q 314 64 303 81 q 343 38 325 47 q 386 28 361 28 q 430 38 407 28 q 472 72 453 49 q 503 134 490 96 q 515 229 515 172 q 469 367 515 314 q 333 421 422 421 l 268 421 q 243 431 253 421 q 233 454 233 440 l 233 525 q 243 550 233 540 q 268 560 253 560 l 333 560 q 446 601 404 560 q 488 726 488 642 q 458 856 488 818 q 386 894 429 894 q 349 885 364 894 q 324 860 333 875 q 310 825 315 844 q 304 785 306 806 q 267 706 301 738 q 188 675 233 675 q 126 692 153 675 q 85 735 100 708 q 70 792 71 761 q 88 853 69 824 q 133 910 106 882 q 200 959 161 938 q 291 993 239 981 q 410 1006 343 1006 q 534 989 476 1006 q 635 942 592 972 q 706 866 679 911 q 738 765 733 821 q 726 665 742 710 q 678 587 710 621 q 603 531 647 553 q 508 499 560 508 z "},"4":{"ha":889,"x_min":40,"x_max":847,"o":"m 806 444 q 835 433 824 444 q 847 403 847 421 l 847 292 q 835 263 847 275 q 806 250 824 250 l 742 250 l 742 128 l 796 65 q 804 40 804 54 q 793 13 804 24 q 765 1 782 1 l 483 1 q 456 13 467 1 q 444 40 444 24 q 453 65 444 54 l 506 128 l 506 250 l 138 250 q 89 263 111 250 q 54 300 67 276 q 42 353 40 325 q 63 403 44 381 l 508 974 q 537 997 519 989 q 574 1006 554 1006 l 700 1006 q 730 994 718 1006 q 742 964 742 982 l 742 444 l 806 444 m 506 807 l 225 444 l 506 444 l 506 807 z "},"5":{"ha":861,"x_min":39,"x_max":819,"o":"m 422 640 q 575 619 503 640 q 701 553 647 597 q 788 440 756 508 q 819 279 819 372 q 792 142 819 207 q 712 26 764 76 q 587 -53 660 -24 q 422 -83 514 -83 q 260 -62 326 -83 q 149 -8 193 -42 q 82 67 106 25 q 47 150 58 108 q 46 208 39 179 q 69 258 53 236 q 112 294 86 281 q 169 308 138 308 q 252 278 217 308 q 294 201 288 247 q 308 141 299 172 q 332 85 317 110 q 370 44 347 60 q 426 28 393 28 q 528 88 488 28 q 569 281 569 149 q 521 467 569 399 q 376 536 472 536 q 271 513 315 536 q 201 463 226 490 q 162 441 185 444 q 118 449 139 438 q 88 479 99 460 q 82 522 78 499 l 154 938 q 183 987 160 968 q 236 1006 206 1006 l 754 1006 q 785 992 774 1006 q 794 958 797 978 l 767 779 q 749 748 764 760 q 715 736 735 736 q 683 749 696 736 q 546 797 624 797 l 282 797 l 249 607 q 328 631 285 622 q 422 640 371 640 z "},"6":{"ha":939,"x_min":42,"x_max":897,"o":"m 564 676 q 698 652 636 676 q 803 583 760 628 q 872 472 847 538 q 897 322 897 406 q 867 170 897 243 q 781 41 836 97 q 649 -49 725 -15 q 482 -83 574 -83 q 277 -39 361 -83 q 141 81 193 6 q 65 254 89 156 q 42 461 42 353 q 74 724 42 607 q 163 922 106 840 q 301 1046 221 1003 q 479 1089 382 1089 q 669 1053 579 1089 q 814 939 760 1018 q 835 885 831 914 q 831 828 839 856 q 803 780 822 801 q 756 746 783 758 q 698 737 726 735 q 644 753 669 739 q 602 790 619 767 q 579 843 585 813 q 544 939 568 903 q 479 975 521 975 q 426 954 457 975 q 367 886 396 933 q 319 764 339 839 q 300 579 300 689 q 367 628 328 606 q 449 661 400 646 q 564 676 497 676 m 476 44 q 549 64 517 44 q 602 117 581 83 q 635 199 624 151 q 647 301 647 246 q 635 406 647 358 q 600 488 622 454 q 546 541 578 522 q 475 560 514 560 q 377 522 415 560 q 322 426 339 483 q 306 302 304 369 q 327 178 307 235 q 385 83 347 121 q 476 44 422 44 z "},"7":{"ha":878,"x_min":40,"x_max":838,"o":"m 828 968 q 835 929 838 953 q 799 840 828 885 q 731 742 771 794 q 646 625 692 689 q 559 478 600 561 q 487 289 518 394 q 444 47 456 183 q 399 -46 440 -8 q 303 -83 358 -83 q 241 -69 269 -83 q 193 -32 213 -56 q 165 22 174 -8 q 164 86 157 53 q 215 251 182 176 q 292 388 249 325 q 385 503 336 450 q 481 606 433 557 q 572 701 529 654 q 644 797 614 747 l 253 797 q 110 746 172 797 q 83 736 100 736 q 52 750 64 736 q 43 783 40 764 l 72 971 q 114 1006 79 1006 l 768 1006 q 803 996 788 1006 q 828 968 819 986 z "},"8":{"ha":853,"x_min":42,"x_max":811,"o":"m 608 604 q 685 541 649 575 q 750 467 722 507 q 794 382 778 428 q 811 281 811 336 q 775 140 811 194 q 683 56 739 86 q 557 13 626 25 q 421 1 488 1 q 278 17 346 1 q 157 63 210 32 q 73 143 104 94 q 42 258 42 192 q 61 359 42 314 q 110 440 81 404 q 175 503 140 476 q 239 546 210 529 q 178 599 207 571 q 129 660 150 626 q 97 735 108 694 q 85 824 85 775 q 122 957 85 906 q 213 1038 158 1008 q 327 1078 267 1067 q 433 1089 388 1089 q 669 1035 583 1089 q 754 868 754 982 q 715 724 754 785 q 608 604 676 664 m 465 978 q 369 951 407 978 q 332 878 332 925 q 348 819 332 847 q 391 766 364 792 q 453 715 418 740 q 526 663 488 689 q 584 762 568 707 q 592 865 600 817 q 553 945 585 913 q 465 978 521 978 m 383 113 q 449 120 417 113 q 506 144 481 128 q 546 183 531 160 q 561 239 561 207 q 542 312 561 279 q 490 373 522 344 q 417 428 458 401 q 332 482 375 454 q 296 446 315 467 q 260 397 276 425 q 233 331 243 368 q 222 250 222 294 q 232 200 222 225 q 262 156 242 175 q 312 124 282 136 q 383 113 342 113 z "},"9":{"ha":940,"x_min":42,"x_max":899,"o":"m 457 1089 q 663 1044 578 1089 q 799 925 747 1000 q 875 751 851 850 q 899 544 899 653 q 867 282 899 399 q 776 84 835 165 q 638 -40 718 3 q 460 -83 557 -83 q 269 -48 360 -83 q 125 68 179 -12 q 104 122 108 93 q 108 178 100 151 q 136 226 117 204 q 183 260 156 249 q 241 269 213 271 q 294 253 269 267 q 337 216 319 239 q 360 163 354 193 q 394 67 371 103 q 460 32 418 32 q 513 53 482 32 q 572 120 543 74 q 619 242 600 167 q 639 426 639 317 q 572 378 611 399 q 490 344 539 358 q 375 329 442 329 q 240 353 301 329 q 135 423 179 378 q 67 534 92 468 q 42 683 42 600 q 72 835 42 763 q 158 965 103 908 q 290 1055 214 1021 q 457 1089 365 1089 m 465 446 q 562 484 524 446 q 617 579 600 522 q 633 703 635 636 q 612 828 632 771 q 554 923 592 885 q 463 961 517 961 q 391 942 422 961 q 338 888 360 922 q 303 807 315 854 q 292 704 292 760 q 304 600 292 647 q 339 518 317 553 q 393 465 361 483 q 465 446 425 446 z "},"\u0000":{"ha":0,"x_min":0,"x_max":0,"o":""},"\r":{"ha":347,"x_min":0,"x_max":0,"o":""}," ":{"ha":347,"x_min":0,"x_max":0,"o":""},"E":{"ha":889,"x_min":42,"x_max":847,"o":"m 808 224 q 835 213 824 224 q 847 185 847 201 l 847 43 q 835 13 847 25 q 806 1 824 1 l 81 1 q 53 13 65 1 q 42 40 42 25 q 51 65 42 53 l 104 128 l 104 879 l 51 943 q 42 968 42 956 q 53 995 42 983 q 81 1007 65 1007 l 778 1007 q 808 994 796 1007 q 819 965 819 982 l 819 822 q 808 795 819 807 q 781 783 796 783 q 756 793 768 783 q 624 869 696 843 q 475 896 553 896 l 340 896 l 340 560 l 563 560 l 653 651 q 679 663 663 663 q 706 652 694 663 q 717 626 717 642 l 717 382 q 706 356 717 367 q 679 344 694 344 q 653 356 664 344 l 563 449 l 340 449 l 340 196 q 365 137 340 161 q 424 113 389 113 l 503 113 q 652 139 581 113 q 783 215 724 165 q 808 224 793 224 z "},"F":{"ha":861,"x_min":42,"x_max":819,"o":"m 778 1007 q 807 994 794 1007 q 819 965 819 982 l 819 822 q 808 795 819 807 q 781 783 796 783 q 756 793 768 783 l 711 829 q 532 896 633 896 l 340 896 l 340 560 l 563 560 l 653 651 q 679 663 663 663 q 706 652 694 663 q 717 626 717 642 l 717 382 q 706 356 717 367 q 679 344 694 344 q 653 356 664 344 l 563 449 l 340 449 l 340 128 l 393 65 q 403 40 403 53 q 391 13 403 25 q 364 1 379 1 l 81 1 q 53 13 65 1 q 42 40 42 25 q 51 65 42 53 l 104 128 l 104 879 l 51 943 q 42 968 42 956 q 53 995 42 983 q 81 1007 65 1007 l 778 1007 l 778 1007 z "},"G":{"ha":1097,"x_min":42,"x_max":1056,"o":"m 994 540 q 1038 522 1019 540 q 1056 478 1056 504 q 1038 435 1056 453 q 994 417 1019 417 l 946 417 q 942 344 946 388 q 925 254 939 301 q 883 159 911 207 q 808 73 856 111 q 688 11 760 35 q 517 -12 617 -12 q 368 13 450 -12 q 213 97 286 38 q 91 253 140 156 q 42 497 42 351 q 91 741 42 643 q 213 898 140 839 q 368 982 286 957 q 517 1007 450 1007 q 618 999 568 1007 q 714 973 668 990 q 801 928 760 956 q 875 861 842 900 q 904 803 897 835 q 903 740 911 771 q 875 684 896 710 q 822 646 854 658 q 719 647 771 625 q 646 719 668 668 q 558 835 615 793 q 433 871 501 878 q 331 787 363 864 q 299 579 299 710 q 320 426 299 501 q 381 289 342 350 q 475 190 419 228 q 597 153 531 153 q 678 181 651 153 q 713 249 706 208 q 711 335 719 289 q 686 417 703 381 l 607 417 q 563 435 581 417 q 544 478 544 453 q 563 522 544 504 q 607 540 581 540 l 994 540 l 994 540 z "},"H":{"ha":994,"x_min":42,"x_max":953,"o":"m 914 1007 q 942 995 931 1007 q 953 968 953 983 q 944 943 953 953 l 892 879 l 892 128 l 944 65 q 953 40 953 54 q 942 13 953 25 q 914 1 931 1 l 632 1 q 605 13 617 1 q 593 40 593 25 q 603 65 593 56 l 656 128 l 656 449 l 340 449 l 340 128 l 393 65 q 401 40 401 54 q 390 13 401 25 q 363 1 379 1 l 81 1 q 53 13 65 1 q 42 40 42 25 q 51 65 42 56 l 104 128 l 104 879 l 51 943 q 42 968 42 953 q 53 995 42 983 q 81 1007 65 1007 l 363 1007 q 390 995 379 1007 q 401 968 401 983 q 393 943 401 953 l 340 879 l 340 560 l 656 560 l 656 879 l 603 943 q 593 968 593 953 q 605 995 593 983 q 632 1007 617 1007 l 914 1007 l 914 1007 z "},"I":{"ha":444,"x_min":42,"x_max":403,"o":"m 364 1007 q 391 995 379 1007 q 403 968 403 983 q 393 943 403 956 l 340 879 l 340 128 l 393 65 q 403 40 403 53 q 391 13 403 25 q 364 1 379 1 l 81 1 q 53 13 65 1 q 42 40 42 25 q 51 65 42 53 l 104 128 l 104 879 l 51 943 q 42 968 42 956 q 53 995 42 983 q 81 1007 65 1007 l 364 1007 l 364 1007 z "},"J":{"ha":804,"x_min":40,"x_max":763,"o":"m 724 1007 q 751 995 739 1007 q 763 968 763 983 q 753 943 763 956 l 700 879 l 700 314 q 681 178 700 239 q 619 76 661 118 q 511 10 578 33 q 350 -12 444 -12 q 178 24 254 -12 q 58 139 101 60 q 42 207 40 172 q 61 270 44 242 q 108 317 78 299 q 175 335 138 335 q 263 301 225 335 q 307 219 300 268 q 333 128 314 157 q 385 99 353 99 q 443 149 422 99 q 464 314 464 199 l 464 879 l 411 943 q 401 968 401 956 q 413 995 401 983 q 440 1007 425 1007 l 724 1007 l 724 1007 z "},"K":{"ha":1011,"x_min":42,"x_max":997,"o":"m 982 65 q 997 36 997 54 q 988 11 997 21 q 963 1 978 1 l 658 1 q 590 38 615 1 l 349 390 l 340 381 l 340 128 l 393 65 q 401 40 401 54 q 390 13 401 25 q 363 1 379 1 l 81 1 q 53 13 64 1 q 42 40 42 25 q 50 65 42 54 l 104 128 l 104 879 l 50 943 q 42 968 42 953 q 53 995 42 983 q 81 1007 64 1007 l 363 1007 q 390 995 379 1007 q 401 968 401 983 q 393 943 401 953 l 340 879 l 340 553 l 668 879 l 600 942 q 589 969 589 953 q 599 996 589 985 q 625 1007 610 1007 l 883 1007 q 910 996 899 1007 q 921 969 921 985 q 910 942 921 953 l 528 565 l 729 300 q 982 65 838 161 z "},"L":{"ha":832,"x_min":42,"x_max":790,"o":"m 750 224 q 778 213 767 225 q 790 185 790 201 l 790 43 q 778 13 790 25 q 749 1 767 1 l 81 1 q 53 13 64 1 q 42 40 42 25 q 50 65 42 54 l 104 128 l 104 879 l 50 943 q 42 968 42 953 q 53 995 42 983 q 81 1007 64 1007 l 363 1007 q 390 995 379 1007 q 401 968 401 983 q 393 943 401 953 l 340 879 l 340 196 q 364 137 340 161 q 424 113 388 113 l 504 113 q 599 129 553 113 q 683 178 646 146 l 726 214 q 750 224 739 224 z "},"M":{"ha":1289,"x_min":42,"x_max":1247,"o":"m 1208 1007 q 1236 995 1225 1007 q 1247 968 1247 983 q 1239 943 1247 953 l 1185 879 l 1185 128 l 1239 65 q 1247 40 1247 54 q 1236 13 1247 25 q 1208 1 1225 1 l 926 1 q 899 13 910 1 q 888 40 888 25 q 896 65 888 54 l 949 128 l 949 736 l 615 22 q 583 1 606 1 q 550 22 560 1 l 229 710 l 229 128 l 318 65 q 332 29 336 51 q 319 9 329 17 q 297 1 310 1 l 81 1 q 53 13 65 1 q 42 40 42 25 q 51 65 42 53 l 104 128 l 104 879 l 51 943 q 42 968 42 956 q 53 995 42 983 q 81 1007 65 1007 l 329 1007 q 373 994 353 1007 q 404 958 393 981 l 667 399 l 928 958 q 959 994 939 981 q 1004 1007 979 1007 l 1208 1007 l 1208 1007 z "},"N":{"ha":972,"x_min":42,"x_max":931,"o":"m 892 1007 q 919 995 908 1007 q 931 968 931 983 q 922 943 931 953 l 869 879 l 869 121 q 831 26 869 65 q 736 -12 792 -12 q 670 5 700 -12 q 622 53 640 22 l 229 713 l 229 128 l 282 65 q 292 40 292 53 q 280 13 292 25 q 253 1 268 1 l 81 1 q 53 13 65 1 q 42 40 42 25 q 51 65 42 53 l 104 128 l 104 879 l 51 943 q 42 968 42 956 q 53 995 42 983 q 81 1007 65 1007 l 342 1007 q 384 996 365 1007 q 414 965 403 985 l 744 403 l 744 879 l 690 943 q 682 968 682 953 q 693 995 682 983 q 721 1007 704 1007 l 892 1007 l 892 1007 z "},"O":{"ha":1033,"x_min":42,"x_max":992,"o":"m 517 1014 q 665 989 583 1014 q 820 905 747 964 q 942 748 893 846 q 992 504 992 650 q 942 260 992 358 q 820 103 893 163 q 665 19 747 44 q 517 -6 583 -6 q 368 19 450 -6 q 213 103 286 44 q 91 260 140 163 q 42 504 42 358 q 91 748 42 650 q 213 905 140 846 q 368 989 286 964 q 517 1014 450 1014 m 596 128 q 664 159 631 135 q 719 233 697 183 q 744 358 740 282 q 724 547 747 435 q 665 728 700 660 q 591 833 631 797 q 512 878 551 869 q 438 881 472 888 q 369 848 403 872 q 315 775 336 824 q 290 649 293 726 q 310 460 286 572 q 368 279 333 347 q 442 175 403 211 q 522 130 482 139 q 596 128 561 121 z "},"P":{"ha":860,"x_min":42,"x_max":818,"o":"m 410 1007 q 564 993 490 1007 q 694 944 638 979 q 784 849 750 908 q 818 697 818 789 q 784 546 818 606 q 694 451 750 486 q 564 401 638 415 q 410 388 490 388 l 339 388 l 339 128 l 393 65 q 401 40 401 54 q 390 13 401 25 q 363 1 379 1 l 81 1 q 53 13 64 1 q 42 40 42 25 q 50 65 42 54 l 103 128 l 103 879 l 50 943 q 42 968 42 953 q 53 995 42 983 q 81 1007 64 1007 l 410 1007 m 363 499 q 524 549 479 499 q 568 697 568 600 q 524 845 568 794 q 363 896 479 896 l 339 896 l 339 521 q 346 505 339 511 q 363 499 353 499 z "},"Q":{"ha":1033,"x_min":42,"x_max":1135,"o":"m 1114 -56 q 1132 -82 1129 -65 q 1124 -114 1135 -99 q 1080 -170 1107 -137 q 1015 -232 1053 -203 q 928 -281 976 -261 q 824 -301 881 -301 q 679 -278 744 -301 q 555 -225 614 -254 q 440 -172 496 -196 q 324 -149 383 -149 q 245 -162 275 -149 q 200 -189 215 -175 q 174 -199 189 -199 q 149 -192 160 -200 l 149 -190 q 131 -165 135 -181 q 136 -135 128 -150 q 165 -94 147 -117 q 210 -48 183 -71 q 273 -6 238 -25 q 354 24 308 14 q 240 82 296 44 q 140 178 185 119 q 69 317 96 236 q 42 504 42 397 q 91 748 42 650 q 213 905 140 846 q 368 989 286 964 q 517 1014 450 1014 q 665 989 583 1014 q 820 905 747 964 q 942 748 893 846 q 992 504 992 650 q 954 288 992 378 q 858 138 917 197 q 730 45 800 78 q 594 1 660 13 q 666 -32 632 -14 q 736 -66 700 -50 q 814 -93 772 -82 q 908 -104 856 -104 q 1002 -87 963 -104 q 1064 -54 1042 -69 q 1114 -56 1089 -37 m 310 460 q 368 279 333 347 q 442 175 403 211 q 522 130 482 139 q 596 128 561 121 q 664 159 631 135 q 719 233 697 183 q 744 358 740 282 q 724 547 747 435 q 665 728 700 660 q 591 833 631 797 q 512 878 551 869 q 438 881 472 888 q 369 848 403 872 q 315 775 336 824 q 290 649 293 726 q 310 460 286 572 z "},"R":{"ha":932,"x_min":42,"x_max":904,"o":"m 888 64 q 904 36 904 54 q 894 11 904 21 q 869 1 885 1 l 614 1 q 574 11 593 1 q 544 39 556 21 l 340 356 l 340 128 l 393 65 q 401 40 401 54 q 390 13 401 25 q 363 1 379 1 l 81 1 q 53 13 65 1 q 42 40 42 25 q 51 65 42 56 l 104 128 l 104 879 l 51 943 q 42 968 42 953 q 53 995 42 983 q 81 1007 65 1007 l 410 1007 q 564 993 490 1007 q 694 944 638 979 q 785 849 751 908 q 819 697 819 789 q 801 583 819 632 q 752 500 783 535 q 678 442 721 465 q 586 407 636 419 l 715 225 q 888 64 783 128 m 363 499 q 524 549 479 499 q 569 697 569 600 q 524 845 569 794 q 363 896 479 896 l 340 896 l 340 521 q 363 499 340 499 z "},"S":{"ha":811,"x_min":42,"x_max":769,"o":"m 290 794 q 326 715 290 747 q 415 654 361 682 q 530 598 468 626 q 645 530 592 569 q 734 435 699 490 q 769 299 769 381 q 736 153 769 213 q 650 58 703 94 q 531 4 597 21 q 397 -12 464 -12 q 214 11 289 -12 q 100 57 139 35 q 56 131 56 82 l 56 324 q 65 346 56 336 q 89 356 75 356 q 118 336 108 356 q 150 274 128 314 q 205 194 172 233 q 281 127 238 156 q 378 99 325 99 q 483 130 446 99 q 519 226 519 161 q 484 318 519 282 q 396 383 449 354 q 281 439 343 411 q 165 506 218 467 q 77 600 113 544 q 42 740 42 656 q 81 874 42 822 q 177 956 121 926 q 297 996 233 985 q 406 1007 360 1007 q 581 988 508 1007 q 693 949 653 968 q 728 918 715 939 q 742 874 742 897 l 742 726 q 733 703 742 713 q 710 694 724 694 l 708 694 q 681 711 690 694 q 651 760 671 729 q 598 822 631 792 q 522 874 565 851 q 424 896 479 896 q 327 869 364 896 q 290 794 290 842 z "},"T":{"ha":911,"x_min":42,"x_max":869,"o":"m 828 1007 q 858 994 846 1007 q 869 965 869 982 l 869 729 q 860 704 869 714 q 835 694 850 694 q 806 710 817 694 l 726 831 q 675 878 707 861 q 607 896 643 896 l 574 896 l 574 128 l 626 65 q 636 40 636 53 q 624 13 636 25 q 597 1 613 1 l 314 1 q 287 13 299 1 q 275 40 275 25 q 285 65 275 53 l 338 128 l 338 896 l 304 896 q 236 878 268 896 q 185 831 204 861 l 106 710 q 76 694 94 694 q 51 704 61 694 q 42 729 42 714 l 42 965 q 54 994 42 982 q 83 1007 67 1007 l 828 1007 l 828 1007 z "},"U":{"ha":994,"x_min":42,"x_max":953,"o":"m 914 1007 q 942 995 931 1007 q 953 968 953 983 q 944 943 953 953 l 892 879 l 892 364 q 869 211 892 281 q 801 92 847 142 q 681 15 754 43 q 506 -12 607 -12 q 327 15 403 -12 q 201 90 251 42 q 127 206 151 139 q 103 350 103 272 l 103 879 l 50 943 q 42 968 42 953 q 53 995 42 983 q 81 1007 64 1007 l 363 1007 q 390 995 379 1007 q 401 968 401 983 q 392 943 401 953 l 339 879 l 339 322 q 394 168 339 226 q 553 110 449 110 q 712 168 657 110 q 767 322 767 226 l 767 879 l 714 943 q 704 968 704 953 q 716 995 704 983 q 743 1007 728 1007 l 914 1007 l 914 1007 z "},"V":{"ha":1086,"x_min":14,"x_max":1072,"o":"m 1035 1007 q 1061 995 1050 1007 q 1072 968 1072 983 q 1063 942 1072 953 l 967 843 l 611 18 q 585 -14 603 -1 q 543 -26 567 -26 q 503 -14 521 -26 q 475 18 485 -1 l 121 843 l 25 942 q 14 968 14 956 q 26 995 14 983 q 53 1007 38 1007 l 435 1007 q 461 996 450 1007 q 472 969 472 985 q 460 942 472 951 l 385 869 l 606 329 l 835 871 l 760 942 q 749 969 749 953 q 760 996 749 985 q 786 1007 771 1007 l 894 1007 l 1035 1007 l 1035 1007 z "},"W":{"ha":1664,"x_min":14,"x_max":1650,"o":"m 1613 1007 q 1639 996 1628 1007 q 1650 969 1650 985 l 1650 968 q 1640 943 1650 953 l 1544 843 l 1183 6 q 1135 -26 1169 -26 q 1086 6 1100 -26 l 832 597 l 578 6 q 529 -26 564 -26 q 481 6 494 -26 l 121 843 l 25 942 q 14 968 14 956 q 25 995 14 983 q 51 1007 36 1007 l 433 1007 q 460 996 449 1007 q 471 969 471 985 q 460 942 471 953 l 385 869 l 592 363 l 761 764 l 726 843 l 631 942 q 619 968 619 956 q 631 995 619 983 q 657 1007 642 1007 l 1040 1007 q 1067 996 1056 1007 q 1078 969 1078 985 q 1065 942 1078 951 l 990 869 l 1197 363 l 1411 871 l 1338 942 q 1326 969 1326 953 q 1338 996 1326 985 q 1364 1007 1349 1007 l 1613 1007 l 1613 1007 z "},"X":{"ha":1063,"x_min":42,"x_max":1021,"o":"m 1007 65 q 1021 38 1021 54 q 1010 12 1021 22 q 985 1 1000 1 l 613 1 q 585 13 596 1 q 574 40 574 25 q 582 65 574 54 l 632 128 l 486 364 l 306 128 l 349 65 q 357 42 357 54 q 345 13 357 25 q 315 1 333 1 l 76 1 q 51 11 61 1 q 42 36 42 21 q 57 65 42 54 l 153 128 l 418 474 l 167 879 l 83 943 q 69 971 69 954 q 80 997 69 986 q 106 1007 90 1007 l 478 1007 q 506 995 494 1007 q 518 967 518 983 q 508 943 518 956 l 458 879 l 579 685 l 729 879 l 685 943 q 678 967 678 954 q 690 995 678 983 q 718 1007 701 1007 l 958 1007 q 983 997 974 1007 q 993 972 993 986 q 978 943 993 954 l 882 879 l 647 574 l 924 128 l 1007 65 l 1007 65 z "},"Y":{"ha":1003,"x_min":14,"x_max":989,"o":"m 954 1007 q 979 997 969 1007 q 989 971 989 986 q 975 943 989 954 l 871 869 l 632 482 l 632 128 l 685 65 q 694 40 694 56 q 683 13 694 25 q 656 1 671 1 l 374 1 q 346 13 357 1 q 335 40 335 25 q 343 65 335 54 l 396 128 l 396 440 l 132 869 l 29 943 q 14 971 14 954 q 24 997 14 986 q 50 1007 35 1007 l 463 1007 q 489 996 478 1007 q 500 969 500 985 q 488 942 500 951 l 426 882 l 575 624 l 736 885 l 676 942 q 665 969 665 953 q 676 996 665 985 q 703 1007 688 1007 l 954 1007 l 954 1007 z "},"Z":{"ha":860,"x_min":42,"x_max":818,"o":"m 333 133 q 333 119 329 126 q 344 113 338 113 l 467 113 q 613 149 546 113 q 724 251 681 185 l 754 297 q 783 314 767 314 q 808 303 799 314 q 818 279 818 293 l 818 43 q 806 13 818 25 q 776 1 793 1 l 128 1 q 67 26 92 1 q 42 88 42 51 q 56 133 42 110 l 526 874 q 526 888 531 881 q 515 896 522 896 l 428 896 q 283 859 350 896 q 172 757 215 822 l 140 710 q 113 694 132 694 q 88 704 97 694 q 78 729 78 714 l 78 965 q 90 994 78 982 q 119 1007 101 1007 l 732 1007 q 793 982 768 1007 q 818 921 818 957 q 804 874 818 897 l 333 133 z "},"a":{"ha":828,"x_min":42,"x_max":786,"o":"m 776 65 q 786 40 786 56 q 774 13 786 25 q 747 1 763 1 l 589 1 q 525 24 553 1 q 490 82 497 47 q 394 17 450 46 q 268 -12 338 -12 q 179 -1 221 -12 q 107 34 138 11 q 59 92 76 57 q 42 172 42 126 q 65 258 42 219 q 128 324 89 296 q 215 374 167 353 q 314 408 264 394 q 409 431 364 422 q 488 443 454 439 l 488 488 q 478 570 488 536 q 451 625 468 604 q 414 656 435 646 q 371 665 393 665 q 330 655 347 665 q 301 628 313 644 q 283 588 290 611 q 272 540 276 565 q 243 486 268 508 q 185 464 218 464 q 136 478 157 464 q 104 513 115 492 q 94 558 93 533 q 113 606 96 583 q 235 697 157 667 q 394 728 313 728 q 526 715 465 728 q 630 669 586 701 q 699 583 674 636 q 724 450 724 529 l 724 128 l 776 65 m 292 196 q 371 96 292 96 q 432 115 401 96 q 488 157 463 133 l 488 383 q 419 365 454 378 q 356 331 385 353 q 310 275 328 308 q 292 196 292 242 z "},"b":{"ha":854,"x_min":42,"x_max":813,"o":"m 551 726 q 658 706 610 726 q 740 647 706 686 q 793 548 774 607 q 813 411 813 489 q 783 232 813 308 q 702 104 754 156 q 576 27 650 53 q 414 1 503 1 l 103 1 l 81 1 q 53 13 64 1 q 42 40 42 25 q 50 65 42 54 l 103 128 l 103 821 l 56 863 q 42 896 42 876 q 50 923 42 911 q 72 939 58 935 l 103 949 l 271 999 q 317 992 294 1007 q 339 949 339 976 l 339 646 q 423 700 371 674 q 551 726 475 726 m 386 79 q 474 96 438 79 q 533 149 511 113 q 566 243 556 186 q 576 381 576 300 q 545 550 576 492 q 456 608 514 608 q 385 587 414 608 q 339 540 357 565 l 339 125 q 353 92 339 106 q 386 79 367 79 z "},"c":{"ha":783,"x_min":42,"x_max":743,"o":"m 721 247 q 739 226 735 240 q 736 199 743 213 q 699 138 724 174 q 633 68 674 101 q 537 11 593 35 q 406 -12 481 -12 q 255 15 322 -12 q 140 91 188 42 q 67 208 93 140 q 42 357 42 275 q 69 506 42 438 q 147 624 97 575 q 267 700 197 672 q 419 728 336 728 q 584 698 510 728 q 710 596 658 668 q 731 544 726 572 q 726 491 735 517 q 699 444 718 465 q 651 414 679 424 q 604 406 628 406 q 560 416 581 407 q 522 442 539 425 q 497 483 506 460 q 462 560 479 529 q 426 608 444 590 q 390 633 408 626 q 354 640 372 640 q 290 603 314 640 q 258 511 265 567 q 260 392 250 456 q 298 272 269 328 q 376 180 326 217 q 496 143 425 143 q 557 153 529 143 q 608 178 585 164 q 647 210 631 193 q 675 239 664 226 q 696 251 683 249 q 721 247 708 254 z "},"d":{"ha":856,"x_min":42,"x_max":814,"o":"m 804 65 q 814 40 814 53 q 802 13 814 25 q 775 1 790 1 l 751 1 l 615 1 q 568 13 589 1 q 533 44 547 25 q 466 8 511 29 q 356 -12 421 -12 q 238 8 294 -12 q 138 74 182 29 q 68 189 94 119 q 42 357 42 258 q 70 524 42 454 q 142 640 99 594 q 239 706 186 685 q 340 726 292 726 q 451 710 408 726 q 515 681 494 694 l 515 821 l 468 863 q 453 896 453 875 q 462 923 453 911 q 485 939 471 935 l 515 949 l 683 999 q 728 992 707 1007 q 751 949 751 976 l 751 128 l 804 65 m 411 78 q 455 85 436 78 q 488 101 474 92 q 515 125 503 111 l 515 124 l 515 590 q 492 613 506 603 q 462 628 481 621 q 419 636 443 636 q 369 620 394 636 q 324 569 344 604 q 291 482 304 535 q 278 357 278 429 q 313 144 278 210 q 411 78 347 78 z "},"e":{"ha":782,"x_min":42,"x_max":743,"o":"m 719 247 q 738 226 733 240 q 736 199 743 213 q 698 138 724 174 q 633 68 672 101 q 536 11 593 35 q 404 -12 479 -12 q 253 15 321 -12 q 140 91 186 42 q 67 208 93 140 q 42 357 42 275 q 69 506 42 438 q 147 624 97 575 q 265 700 196 672 q 418 728 335 728 q 599 668 517 728 q 725 478 682 608 q 723 447 731 463 q 700 426 715 432 l 699 425 l 288 274 q 369 181 318 218 q 496 143 419 143 q 557 153 529 143 q 608 178 585 164 q 647 210 631 193 q 675 239 664 226 q 695 251 682 249 q 719 247 708 254 m 317 633 q 274 596 292 625 q 249 526 257 567 q 244 439 242 486 q 260 344 246 392 l 524 443 q 422 606 478 563 q 317 633 367 650 z "},"f":{"ha":525,"x_min":42,"x_max":483,"o":"m 275 942 q 228 923 243 942 q 214 881 214 904 q 231 815 214 843 q 270 769 249 788 q 312 740 292 750 q 338 728 332 729 l 429 726 q 456 715 444 726 q 467 689 467 704 q 456 661 467 672 q 429 650 444 650 l 340 651 l 340 128 l 393 65 q 401 40 401 54 q 390 13 401 25 q 363 1 379 1 l 81 1 q 53 13 64 1 q 42 40 42 25 q 50 65 42 54 l 104 128 l 104 651 l 79 651 q 53 664 64 653 q 42 690 42 675 q 53 717 42 706 q 81 728 64 729 l 104 728 q 122 846 104 794 q 170 933 139 897 q 244 988 201 969 q 335 1007 286 1007 q 408 989 376 1007 q 463 947 439 971 q 478 920 474 935 q 482 890 483 906 q 473 861 481 875 q 451 838 465 847 q 419 826 436 828 q 388 829 403 824 q 360 847 372 835 q 342 875 347 858 q 318 922 333 901 q 275 942 303 942 z "},"g":{"ha":774,"x_min":42,"x_max":746,"o":"m 661 811 q 719 806 692 824 q 746 754 746 788 q 729 713 746 731 q 689 693 713 696 q 647 687 669 692 q 601 671 624 682 q 692 585 660 636 q 724 471 724 533 q 698 369 724 417 q 627 288 672 322 q 519 233 582 253 q 383 214 457 214 q 249 233 311 214 q 238 212 242 224 q 233 188 233 200 q 236 165 233 175 q 251 150 239 156 q 290 142 264 144 q 363 139 317 139 l 479 139 q 563 125 521 139 q 637 84 604 111 q 690 18 669 57 q 710 -69 710 -21 q 687 -160 710 -118 q 621 -231 664 -201 q 516 -278 578 -261 q 376 -296 454 -296 q 272 -287 324 -296 q 178 -259 219 -278 q 112 -213 138 -240 q 86 -149 86 -186 q 113 -80 86 -106 q 171 -39 139 -54 q 88 22 110 -18 q 65 94 65 61 q 78 155 65 128 q 108 203 90 182 q 146 238 126 224 q 179 261 165 253 q 78 351 115 297 q 42 471 42 404 q 67 572 42 525 q 139 653 93 619 q 247 708 185 688 q 383 728 310 728 q 462 721 424 728 q 533 703 500 714 q 597 773 563 747 q 661 811 631 799 m 488 471 q 478 560 488 525 q 453 615 468 594 q 420 643 439 635 q 383 651 401 651 q 347 643 365 651 q 313 615 328 635 q 288 560 297 594 q 278 471 278 525 q 288 382 278 417 q 313 327 297 347 q 347 299 328 307 q 383 290 365 290 q 420 299 401 290 q 453 327 439 307 q 478 382 468 347 q 488 471 488 417 m 288 -53 q 249 -95 258 -68 q 251 -150 239 -122 q 296 -198 263 -178 q 388 -218 329 -218 q 492 -196 454 -218 q 529 -129 529 -174 q 503 -74 529 -96 q 433 -53 478 -53 l 288 -53 z "},"h":{"ha":863,"x_min":42,"x_max":821,"o":"m 813 65 q 821 40 821 54 q 810 13 821 25 q 782 1 799 1 l 500 1 q 472 13 483 1 q 461 40 461 25 q 469 65 461 54 l 522 128 l 522 413 q 519 517 522 475 q 506 586 515 560 q 482 624 497 613 q 443 636 467 636 q 389 615 415 636 q 340 567 363 594 l 340 128 l 393 65 q 403 40 403 53 q 391 13 403 25 q 364 1 379 1 l 81 1 q 53 13 65 1 q 42 40 42 25 q 51 65 42 53 l 104 128 l 104 821 l 57 863 q 42 896 42 875 q 51 923 42 911 q 74 939 60 935 l 104 949 l 272 999 q 317 992 296 1007 q 340 949 340 976 l 340 649 q 416 703 372 681 q 514 726 460 726 q 596 713 553 726 q 675 668 639 700 q 735 581 711 636 q 758 440 758 525 l 758 128 l 813 65 z "},"i":{"ha":443,"x_min":42,"x_max":401,"o":"m 393 65 q 401 40 401 54 q 390 13 401 25 q 363 1 379 1 l 81 1 q 53 13 65 1 q 42 40 42 25 q 51 65 42 56 l 104 128 l 104 549 l 57 590 q 42 624 42 603 q 74 667 42 656 l 104 675 l 272 726 q 317 719 299 733 q 340 676 340 704 l 340 128 l 393 65 m 238 771 q 183 768 210 764 q 133 785 156 772 q 94 819 110 799 q 72 865 78 839 q 71 917 65 892 q 91 965 76 943 q 128 1002 106 986 q 179 1025 150 1018 q 234 1026 207 1031 q 284 1010 261 1022 q 323 976 307 997 q 346 929 339 956 q 326 831 357 876 q 238 771 296 785 z "},"j":{"ha":404,"x_min":32,"x_max":371,"o":"m 331 719 q 353 676 353 704 l 353 35 q 325 -94 353 -40 q 258 -183 297 -147 q 176 -240 218 -219 q 104 -269 133 -260 q 74 -269 89 -275 q 50 -250 58 -264 q 54 -194 32 -219 q 95 -125 74 -172 q 117 1 117 -78 l 117 549 l 71 590 q 56 624 56 603 q 86 667 56 656 l 117 675 l 285 726 q 331 719 311 733 m 192 1025 q 248 1026 221 1031 q 297 1010 275 1022 q 335 976 319 997 q 358 929 351 956 q 340 831 371 876 q 251 771 308 785 q 195 768 222 764 q 146 785 168 772 q 107 819 124 799 q 85 865 90 839 q 83 917 78 892 q 103 965 89 943 q 141 1002 118 986 q 192 1025 164 1018 z "},"k":{"ha":919,"x_min":42,"x_max":919,"o":"m 908 65 q 919 39 919 54 q 908 13 919 24 q 881 1 896 1 l 539 1 q 509 13 521 1 q 497 42 497 25 q 504 65 497 54 l 538 117 l 350 307 l 340 299 l 340 128 l 393 65 q 403 40 403 53 q 391 13 403 25 q 364 1 379 1 l 81 1 q 53 13 65 1 q 42 40 42 25 q 51 65 42 53 l 104 128 l 104 821 l 57 863 q 42 896 42 875 q 51 923 42 911 q 74 939 60 935 l 104 949 l 272 999 q 317 992 296 1007 q 340 949 340 976 l 340 413 l 608 638 l 590 663 q 582 686 582 672 q 594 715 582 703 q 621 726 606 726 l 771 726 q 794 717 785 726 q 804 693 804 707 q 788 664 804 672 l 714 621 l 525 458 l 908 65 z "},"l":{"ha":444,"x_min":42,"x_max":403,"o":"m 393 65 q 403 40 403 53 q 391 13 403 25 q 364 1 379 1 l 81 1 q 53 13 65 1 q 42 40 42 25 q 51 65 42 53 l 104 128 l 104 821 l 57 863 q 42 896 42 875 q 51 923 42 911 q 74 939 60 935 l 104 949 l 272 999 q 317 992 296 1007 q 340 949 340 976 l 340 128 l 393 65 z "},"m":{"ha":1281,"x_min":42,"x_max":1239,"o":"m 1231 65 q 1239 40 1239 54 q 1228 13 1239 25 q 1200 1 1217 1 l 918 1 q 890 13 901 1 q 879 40 879 25 q 888 65 879 54 l 942 128 l 942 413 q 925 586 942 536 q 861 636 908 636 q 799 609 828 636 q 746 549 769 582 q 758 440 758 503 l 758 128 l 811 65 q 821 40 821 56 q 809 13 821 25 q 782 1 797 1 l 500 1 q 472 13 483 1 q 460 40 460 25 q 469 65 460 53 l 522 128 l 522 413 q 506 586 522 536 q 443 636 489 636 q 388 615 414 636 q 340 567 361 594 l 340 128 l 393 65 q 401 40 401 54 q 390 13 401 25 q 363 1 379 1 l 81 1 q 53 13 65 1 q 42 40 42 25 q 51 65 42 56 l 104 128 l 104 549 l 57 590 q 42 624 42 603 q 74 667 42 656 l 104 675 l 272 726 q 317 719 299 733 q 340 676 340 704 l 340 649 q 415 703 372 681 q 514 726 458 726 q 569 721 540 726 q 626 701 597 715 q 679 665 654 688 q 722 607 704 642 q 760 649 739 628 q 807 688 781 671 q 865 715 833 704 q 932 726 896 726 q 1014 713 971 726 q 1093 668 1057 700 q 1153 581 1129 636 q 1178 440 1178 525 l 1178 128 l 1231 65 z "},"n":{"ha":863,"x_min":42,"x_max":821,"o":"m 811 65 q 821 40 821 56 q 809 13 821 25 q 782 1 797 1 l 500 1 q 472 13 483 1 q 461 40 461 25 q 469 65 461 54 l 522 128 l 522 413 q 506 586 522 536 q 443 636 489 636 q 389 615 415 636 q 340 567 363 594 l 340 128 l 393 65 q 403 40 403 53 q 391 13 403 25 q 364 1 379 1 l 81 1 q 53 13 65 1 q 42 40 42 25 q 51 65 42 53 l 104 128 l 104 549 l 57 590 q 42 624 42 603 q 74 667 42 656 l 104 675 l 272 726 q 317 719 299 733 q 340 676 340 704 l 340 649 q 416 703 372 681 q 514 726 460 726 q 596 713 553 726 q 675 668 639 700 q 735 581 711 636 q 758 440 758 525 l 758 128 l 811 65 z "},"o":{"ha":838,"x_min":42,"x_max":796,"o":"m 418 728 q 571 700 501 728 q 690 624 640 672 q 768 506 740 575 q 796 357 796 438 q 768 208 796 275 q 690 91 740 140 q 571 15 640 42 q 418 -12 501 -12 q 265 15 335 -12 q 147 91 196 42 q 69 208 97 140 q 42 357 42 275 q 69 506 42 438 q 147 624 97 575 q 265 700 196 672 q 418 728 335 728 m 469 68 q 552 151 533 79 q 544 379 571 222 q 513 512 531 458 q 473 597 494 565 q 425 640 451 629 q 367 646 399 651 q 315 621 335 640 q 285 564 294 601 q 277 470 275 526 q 293 335 279 414 q 364 117 321 178 q 469 68 407 57 z "},"p":{"ha":821,"x_min":42,"x_max":779,"o":"m 518 726 q 623 706 575 726 q 706 647 671 686 q 760 548 740 607 q 779 411 779 489 q 750 232 779 308 q 668 104 721 156 q 542 27 615 53 q 381 1 469 1 l 339 1 l 339 -199 l 393 -261 q 401 -286 401 -272 q 390 -313 401 -301 q 363 -325 379 -325 l 81 -325 q 53 -313 64 -325 q 42 -286 42 -301 q 50 -261 42 -272 l 103 -199 l 103 549 l 57 590 q 42 624 42 603 q 74 667 42 656 l 103 675 l 271 726 q 317 719 297 733 q 339 676 339 704 l 339 674 q 415 710 371 694 q 518 726 460 726 m 351 79 q 440 96 404 79 q 499 149 476 113 q 533 243 522 186 q 543 381 543 300 q 511 550 543 492 q 421 608 479 608 q 376 600 396 608 q 339 578 356 592 l 339 81 q 351 79 343 79 z "},"q":{"ha":856,"x_min":42,"x_max":814,"o":"m 799 -186 q 814 -219 814 -199 q 782 -261 814 -251 l 581 -324 q 542 -317 560 -328 l 536 -312 q 515 -276 515 -299 l 515 33 q 452 3 496 19 q 342 -12 408 -12 q 240 8 293 -12 q 143 74 188 29 q 70 189 99 119 q 42 357 42 258 q 68 524 42 454 q 138 640 94 594 q 239 706 182 685 q 357 726 296 726 q 456 709 414 726 q 522 676 499 692 l 688 726 q 725 721 708 733 l 732 717 q 751 679 751 704 l 751 -144 l 799 -186 m 515 124 l 515 590 q 489 613 504 603 q 456 628 475 621 q 413 636 436 636 q 313 570 347 636 q 278 357 278 504 q 291 231 278 283 q 325 144 304 179 q 371 94 346 110 q 421 78 396 78 q 463 85 444 78 q 492 101 481 92 q 515 125 506 111 l 515 124 z "},"r":{"ha":665,"x_min":42,"x_max":654,"o":"m 525 732 q 603 708 569 733 q 649 643 638 683 q 649 594 654 619 q 630 547 644 568 q 592 513 615 526 q 536 500 568 500 q 500 512 517 500 q 468 539 483 524 q 438 568 453 554 q 408 586 424 582 q 376 579 393 590 q 340 535 360 568 l 340 128 l 393 65 q 403 40 403 53 q 391 13 403 25 q 364 1 379 1 l 81 1 q 53 13 65 1 q 42 40 42 25 q 51 65 42 53 l 104 128 l 104 549 l 57 590 q 42 624 42 603 q 74 667 42 656 l 104 675 l 272 726 q 317 719 299 733 q 340 676 340 704 l 340 611 q 374 655 356 633 q 416 694 393 676 q 466 722 439 711 q 525 732 493 732 z "},"s":{"ha":649,"x_min":42,"x_max":621,"o":"m 283 592 q 308 524 283 550 q 371 478 333 497 q 452 440 408 458 q 533 393 496 421 q 596 323 571 365 q 621 215 621 281 q 594 119 621 161 q 521 49 567 78 q 415 5 475 19 q 292 -10 356 -10 q 151 5 207 -10 q 67 32 94 19 q 42 69 42 42 l 42 204 q 53 231 42 219 q 81 243 65 243 q 117 217 107 243 q 138 169 124 197 q 172 115 151 142 q 222 71 193 89 q 288 53 250 53 q 356 83 332 53 q 381 153 381 113 q 356 219 381 194 q 293 262 331 243 q 211 299 256 281 q 129 344 167 317 q 67 413 92 371 q 42 522 42 456 q 65 614 42 575 q 129 678 89 653 q 222 717 169 704 q 332 729 274 729 q 474 714 411 729 q 568 688 536 699 q 588 672 581 683 q 596 649 596 661 l 596 540 q 586 517 596 526 q 563 507 576 507 q 533 524 543 507 q 508 564 525 539 q 467 612 490 589 q 417 651 444 635 q 357 668 389 668 q 306 652 329 668 q 283 592 283 636 z "},"t":{"ha":569,"x_min":42,"x_max":528,"o":"m 518 133 q 528 108 528 122 q 517 85 528 94 q 481 54 503 71 q 429 23 458 38 q 364 -2 400 8 q 285 -12 328 -12 q 226 -1 256 -12 q 172 31 196 10 q 134 85 149 53 q 119 161 119 118 l 119 651 l 86 651 q 55 665 68 653 q 42 697 42 678 q 50 722 42 711 q 71 739 58 733 q 217 820 165 774 q 293 900 269 867 q 313 913 300 910 q 336 911 325 917 q 356 879 356 903 l 356 728 l 461 726 q 488 715 476 726 q 499 689 499 704 q 488 661 499 672 q 461 650 476 650 l 356 651 l 356 208 q 372 147 356 171 q 424 124 389 124 q 449 128 438 124 q 471 139 461 132 q 495 145 482 146 q 517 135 508 144 l 518 133 z "},"u":{"ha":864,"x_min":42,"x_max":822,"o":"m 806 125 q 821 94 819 111 q 813 66 822 79 q 789 47 804 53 l 590 -12 q 546 -6 565 -19 q 522 38 522 11 l 522 76 q 447 14 490 40 q 349 -12 404 -12 q 268 1 311 -12 q 188 46 225 14 q 128 133 151 78 q 104 274 104 189 l 104 600 l 51 663 q 42 688 42 675 q 53 715 42 703 q 81 726 65 726 l 299 726 q 328 715 317 726 q 340 685 340 703 l 340 301 q 344 198 340 239 q 357 132 347 157 q 381 97 367 107 q 419 86 396 86 q 475 109 449 86 q 522 163 501 132 l 522 600 l 469 663 q 461 688 461 672 q 472 715 461 703 q 500 726 483 726 l 717 726 q 747 715 735 726 q 758 685 758 703 l 758 165 l 806 125 l 806 125 z "},"v":{"ha":828,"x_min":14,"x_max":814,"o":"m 776 726 q 803 715 792 726 q 814 689 814 704 q 803 663 814 674 l 740 600 l 576 90 q 515 6 560 38 q 417 -26 471 -26 l 411 -26 q 312 6 356 -26 q 251 90 268 38 l 88 600 l 25 663 q 14 689 14 672 q 25 715 14 704 q 51 726 36 726 l 347 726 q 376 715 364 726 q 388 686 388 703 q 381 663 388 674 l 335 600 l 465 165 q 478 156 468 156 q 492 165 489 156 l 633 613 l 589 663 q 579 693 576 675 q 592 717 582 708 q 618 726 603 726 l 776 726 l 776 726 z "},"w":{"ha":1278,"x_min":14,"x_max":1264,"o":"m 1226 726 q 1253 715 1242 726 q 1264 689 1264 704 q 1253 663 1264 674 l 1189 600 l 1038 93 q 978 7 1022 40 q 878 -26 933 -26 q 776 7 821 -26 q 717 94 732 40 l 639 363 l 561 94 q 501 7 546 40 q 400 -26 457 -26 q 300 7 344 -26 q 240 93 256 40 l 89 600 l 25 663 q 14 689 14 674 q 25 715 14 704 q 51 726 36 726 l 349 726 q 377 715 365 726 q 389 686 389 703 q 381 663 389 672 l 336 600 l 451 181 q 465 169 454 169 q 479 181 476 169 l 583 539 l 497 663 q 490 686 490 674 q 502 715 490 703 q 531 726 514 726 l 825 726 q 853 715 842 726 q 864 686 864 703 q 857 663 864 671 l 813 600 l 928 181 q 941 169 931 169 q 954 181 951 169 l 1082 613 l 1038 663 q 1028 688 1028 675 q 1040 715 1028 704 q 1067 726 1051 726 l 1226 726 l 1226 726 z "},"x":{"ha":888,"x_min":42,"x_max":846,"o":"m 833 65 q 846 38 846 54 q 836 12 846 22 q 811 1 826 1 l 428 1 q 401 13 413 1 q 389 40 389 24 q 400 65 389 54 l 457 128 l 381 253 l 261 128 l 317 65 q 326 40 326 53 q 315 13 326 24 q 288 1 304 1 l 79 1 q 53 13 64 1 q 42 39 42 24 q 51 65 42 56 l 321 349 l 313 364 l 183 572 l 68 663 q 56 690 56 672 q 65 716 56 706 q 90 726 75 726 l 442 726 q 472 714 460 726 q 485 683 485 701 q 479 664 485 675 l 444 600 l 511 493 l 613 600 l 557 663 q 547 688 547 675 q 558 715 547 704 q 586 726 569 726 l 794 726 q 821 715 810 726 q 832 689 832 704 q 822 663 832 672 l 569 397 l 590 364 l 718 156 l 833 65 l 833 65 z "},"y":{"ha":858,"x_min":0,"x_max":844,"o":"m 807 726 q 833 715 822 726 q 844 689 844 704 q 833 663 844 674 l 771 600 l 465 -74 q 414 -168 444 -122 q 344 -251 383 -214 q 254 -310 304 -287 q 143 -332 204 -332 q 56 -306 94 -333 q 7 -233 18 -278 q 6 -181 0 -207 q 26 -134 11 -156 q 63 -97 40 -112 q 114 -74 86 -81 q 134 -71 126 -71 q 165 -71 142 -71 q 230 -79 201 -71 q 281 -90 258 -87 q 322 -84 304 -93 q 356 -40 340 -75 l 375 1 l 104 600 l 42 663 q 31 689 31 672 q 42 715 31 704 q 68 726 53 726 l 392 726 q 420 715 408 726 q 432 686 432 703 q 425 663 432 674 l 379 600 l 497 329 q 509 321 500 321 q 522 329 518 321 l 650 613 l 606 663 q 596 693 593 675 q 609 717 599 708 q 635 726 619 726 l 807 726 l 807 726 z "},"z":{"ha":682,"x_min":42,"x_max":640,"o":"m 640 665 q 635 638 640 649 l 344 78 l 351 78 q 451 99 404 78 q 535 158 499 119 l 578 204 q 603 215 586 215 q 629 204 618 215 q 639 178 640 193 l 629 40 q 616 13 628 24 q 588 1 604 1 l 103 1 q 60 19 78 1 q 42 63 42 38 q 49 90 42 76 l 338 649 q 175 569 242 640 l 133 524 q 107 513 122 513 q 81 524 92 513 q 72 550 71 535 l 81 688 q 94 715 82 704 q 122 726 106 726 l 376 726 l 579 726 q 623 708 606 726 q 640 665 640 690 z "},"D":{"ha":957,"x_min":42,"x_max":915,"o":"m 383 1007 q 649 963 546 1007 q 812 847 753 918 q 893 685 871 775 q 915 504 915 596 q 893 323 915 413 q 812 162 871 233 q 649 46 753 90 q 383 1 546 1 l 81 1 q 53 13 64 1 q 42 40 42 25 q 50 65 42 54 l 103 128 l 103 879 l 50 943 q 42 968 42 953 q 53 995 42 983 q 81 1007 64 1007 l 383 1007 m 403 113 q 526 142 475 113 q 607 223 576 171 q 651 347 638 275 q 665 504 665 418 q 651 662 665 590 q 607 785 638 733 q 526 867 576 838 q 403 896 475 896 l 339 896 l 339 113 l 403 113 z "},"~":{"ha":847,"x_min":51,"x_max":794,"o":"m 596 639 q 669 617 638 639 q 725 562 701 594 q 765 494 749 529 q 789 432 781 458 q 787 399 794 415 q 764 375 779 382 q 734 372 749 368 q 708 386 719 375 q 653 428 689 410 q 574 447 618 447 q 496 429 531 447 q 426 390 461 411 q 352 351 392 369 q 261 333 313 333 q 183 354 217 333 q 124 405 149 375 q 83 468 99 435 q 58 526 67 501 q 59 564 51 546 q 83 590 67 582 q 118 595 100 599 q 149 578 136 592 q 199 540 167 556 q 281 525 231 525 q 356 543 321 525 q 428 582 392 561 q 504 621 464 603 q 596 639 544 639 z "},"`":{"ha":463,"x_min":51,"x_max":411,"o":"m 404 853 q 403 828 411 840 q 381 817 396 817 l 297 817 q 250 836 269 817 l 64 1022 q 58 1051 51 1035 q 82 1067 64 1067 l 268 1067 q 306 1056 289 1067 q 331 1025 322 1044 l 404 853 z "},"!":{"ha":419,"x_min":54,"x_max":365,"o":"m 307 1007 q 349 988 332 1007 q 363 946 365 969 l 304 383 q 286 347 301 361 q 249 333 271 333 l 171 333 q 133 347 149 333 q 115 383 118 361 l 57 946 q 71 988 54 969 q 113 1007 88 1007 l 307 1007 m 210 244 q 260 234 236 244 q 301 206 283 224 q 328 165 318 189 q 338 115 338 142 q 328 65 338 89 q 301 24 318 42 q 260 -3 283 7 q 210 -12 236 -12 q 160 -3 183 -12 q 119 24 136 7 q 92 65 101 42 q 82 115 82 89 q 92 165 82 142 q 119 206 101 189 q 160 234 136 224 q 210 244 183 244 z "},"@":{"ha":1149,"x_min":47,"x_max":1103,"o":"m 671 1007 q 857 972 772 1007 q 999 872 942 938 q 1079 711 1056 807 q 1083 494 1103 615 q 1043 372 1072 429 q 972 271 1014 314 q 880 203 931 228 q 778 178 829 178 q 619 325 633 178 q 565 299 600 313 q 485 286 529 286 q 410 299 444 286 q 352 340 375 313 q 320 413 329 368 q 322 518 311 457 q 357 624 332 581 q 415 697 382 668 q 488 738 449 725 q 567 751 526 751 q 596 750 582 751 q 621 746 610 749 q 782 750 700 726 q 810 746 799 754 q 819 718 824 736 l 769 410 q 764 290 757 331 q 810 250 771 250 q 858 271 833 250 q 904 327 882 292 q 943 410 926 363 q 969 513 960 458 q 973 671 983 596 q 927 801 963 746 q 830 890 892 857 q 676 922 768 922 q 505 891 585 922 q 363 800 425 860 q 257 654 300 740 q 196 458 214 568 q 193 324 185 392 q 233 204 201 257 q 324 118 265 151 q 475 85 383 85 q 535 90 506 85 q 589 103 564 96 q 634 118 614 110 q 667 133 654 126 q 684 134 675 136 q 699 125 693 132 q 703 107 706 117 q 693 90 701 97 q 654 64 679 79 q 595 35 629 49 q 517 11 561 21 q 419 1 472 1 q 252 38 325 1 q 133 137 179 75 q 67 280 86 199 q 63 451 47 361 q 139 678 83 575 q 276 853 194 781 q 458 967 357 926 q 671 1007 560 1007 m 663 665 q 637 685 653 676 q 594 694 621 694 q 522 653 557 694 q 471 518 486 611 q 478 385 456 426 q 536 343 500 343 q 582 353 560 343 q 618 375 604 364 q 620 399 619 386 q 624 424 621 411 l 624 429 l 625 432 q 626 443 625 439 l 663 665 z "},"#":{"ha":957,"x_min":54,"x_max":903,"o":"m 858 736 q 890 722 878 736 q 900 688 903 707 l 889 625 q 875 601 886 610 q 849 592 864 592 l 726 592 l 696 417 l 803 417 q 835 402 822 417 q 844 368 847 388 l 833 306 q 819 281 831 290 q 793 271 808 271 l 671 271 l 631 36 q 589 1 624 1 l 528 1 q 497 16 508 1 q 488 50 485 31 l 525 271 l 351 271 l 310 36 q 296 11 307 21 q 269 1 285 1 l 208 1 q 176 16 189 1 q 167 50 164 31 l 206 271 l 99 271 q 67 285 79 271 q 57 319 54 300 l 68 382 q 110 417 75 417 l 231 417 l 261 592 l 154 592 q 122 606 135 592 q 113 640 110 621 l 124 703 q 138 727 126 718 q 165 736 150 736 l 286 736 l 328 972 q 342 997 331 988 q 368 1007 353 1007 l 429 1007 q 461 992 449 1007 q 471 957 474 976 l 432 736 l 607 736 l 647 972 q 662 997 650 988 q 689 1007 674 1007 l 749 1007 q 781 992 768 1007 q 790 957 793 976 l 751 736 l 858 736 m 581 592 l 407 592 l 376 417 l 551 417 l 581 592 z "},"$":{"ha":839,"x_min":56,"x_max":783,"o":"m 304 794 q 340 715 304 747 q 428 654 375 682 q 544 598 482 626 q 659 530 606 569 q 748 435 713 490 q 783 299 783 381 q 758 169 783 224 q 689 77 732 114 q 590 19 646 40 q 475 -8 535 -1 l 475 -179 q 463 -209 475 -197 q 433 -221 451 -221 l 406 -221 q 376 -209 388 -221 q 364 -179 364 -197 l 364 -11 q 211 16 274 -6 q 114 57 149 38 q 69 131 69 82 l 69 324 q 79 346 69 336 q 103 356 89 356 q 132 336 122 356 q 164 274 142 314 q 219 194 186 233 q 295 127 251 156 q 392 99 339 99 q 497 130 460 99 q 533 226 533 161 q 498 318 533 282 q 410 383 463 354 q 294 439 357 411 q 179 506 232 467 q 91 600 126 544 q 56 740 56 656 q 85 859 56 811 q 161 938 115 907 q 261 983 207 968 q 364 1003 315 999 l 364 1108 q 376 1138 364 1126 q 406 1150 388 1150 l 433 1150 q 463 1138 451 1150 q 475 1108 475 1126 l 475 1004 q 614 982 556 999 q 707 949 672 965 q 742 918 729 939 q 756 874 756 897 l 756 726 q 747 703 756 713 q 724 694 738 694 l 722 694 q 694 711 704 694 q 665 760 685 729 q 612 822 644 792 q 536 874 579 851 q 438 896 493 896 q 341 869 378 896 q 304 794 304 842 z "},"%":{"ha":1124,"x_min":56,"x_max":1068,"o":"m 783 1007 q 801 998 794 1007 q 803 978 807 989 l 404 14 q 386 1 399 1 l 326 1 q 309 10 315 1 q 307 31 303 19 l 719 994 q 738 1007 725 1007 l 783 1007 m 843 517 q 935 495 893 517 q 1006 438 976 474 q 1051 356 1035 403 q 1068 258 1068 310 q 1051 162 1068 208 q 1006 80 1035 115 q 935 23 976 44 q 843 1 893 1 q 752 23 793 1 q 682 80 711 44 q 636 162 653 115 q 619 258 619 208 q 636 356 619 310 q 682 438 653 403 q 752 495 711 474 q 843 517 793 517 m 843 79 q 871 88 857 79 q 896 116 885 96 q 913 171 907 136 q 919 258 919 206 q 913 346 919 311 q 896 401 907 381 q 871 431 885 422 q 843 439 857 439 q 815 431 829 439 q 791 401 801 422 q 774 346 781 381 q 768 258 768 311 q 774 171 768 206 q 791 116 781 136 q 815 88 801 96 q 843 79 829 79 m 504 749 q 488 652 504 699 q 442 570 471 606 q 371 513 413 535 q 279 492 329 492 q 188 513 229 492 q 118 570 147 535 q 72 652 89 606 q 56 749 56 699 q 72 847 56 800 q 118 928 89 893 q 188 985 147 964 q 279 1007 229 1007 q 371 985 329 1007 q 442 928 413 964 q 488 847 471 893 q 504 749 504 800 m 279 569 q 307 578 293 569 q 332 607 321 586 q 349 662 343 628 q 356 749 356 696 q 349 836 356 801 q 332 892 343 871 q 307 921 321 913 q 279 929 293 929 q 251 921 265 929 q 227 892 238 913 q 210 836 217 871 q 204 749 204 801 q 210 662 204 696 q 227 607 217 628 q 251 578 238 586 q 279 569 265 569 z "},"^":{"ha":643,"x_min":50,"x_max":593,"o":"m 583 590 q 581 551 593 571 q 546 532 569 532 l 492 532 q 453 557 464 532 l 322 879 l 190 557 q 151 532 181 532 l 99 532 q 63 551 75 532 q 60 590 50 571 l 236 968 q 275 993 247 993 l 369 993 q 407 968 396 993 l 583 590 z "},"(":{"ha":458,"x_min":56,"x_max":406,"o":"m 381 993 q 399 983 392 993 q 399 961 406 972 q 299 706 332 846 q 267 422 267 567 q 299 138 267 278 q 399 -117 332 -1 q 399 -137 406 -128 q 381 -147 392 -147 l 268 -147 q 235 -132 247 -147 q 149 3 183 -68 q 94 146 115 74 q 65 288 74 218 q 56 422 56 358 q 65 557 56 486 q 94 699 74 628 q 149 842 115 771 q 235 976 183 913 q 268 993 249 993 l 381 993 l 381 993 z "},")":{"ha":458,"x_min":53,"x_max":403,"o":"m 190 993 q 222 976 210 993 q 308 842 274 913 q 364 699 343 771 q 394 557 385 628 q 403 422 403 486 q 394 288 403 358 q 364 146 385 218 q 308 3 343 74 q 222 -132 274 -68 q 190 -147 211 -147 l 78 -147 q 59 -137 65 -147 q 60 -117 53 -128 q 158 138 125 -1 q 190 422 190 278 q 158 706 190 567 q 60 961 125 846 q 59 983 53 972 q 78 993 65 993 l 190 993 l 190 993 z "},"*":{"ha":539,"x_min":50,"x_max":485,"o":"m 482 876 q 480 859 485 867 q 467 849 475 851 l 339 824 l 426 728 q 432 712 433 721 q 424 696 431 703 l 364 653 q 347 649 357 647 q 333 660 338 651 l 269 772 l 206 660 q 191 649 200 651 q 175 653 182 647 l 115 696 q 107 712 108 703 q 113 728 106 721 l 200 824 l 72 849 q 57 876 50 854 l 79 946 q 91 959 82 956 q 108 958 100 963 l 226 904 l 211 1035 q 216 1050 210 1043 q 232 1057 222 1057 l 306 1057 q 322 1050 315 1057 q 326 1035 328 1043 l 313 904 l 431 958 q 447 959 439 963 q 458 946 456 956 l 482 876 z "},"&":{"ha":1157,"x_min":56,"x_max":1106,"o":"m 946 735 q 1033 722 996 744 q 1088 661 1071 699 q 1098 580 1106 624 q 1050 506 1090 536 q 963 454 1014 476 q 851 413 913 432 q 963 376 921 413 q 1015 284 1004 339 q 1003 165 1025 229 q 925 45 982 100 q 776 -47 868 -10 q 553 -83 683 -83 q 369 -58 458 -83 q 210 15 279 -33 q 98 133 140 63 q 56 293 56 203 q 72 394 56 343 q 122 488 89 444 q 205 567 156 532 q 319 622 254 603 q 240 694 271 650 q 215 807 210 739 q 294 953 222 900 q 501 1007 367 1007 q 611 996 563 1007 q 697 966 660 985 q 760 924 733 947 q 806 879 788 901 q 823 842 819 863 q 822 803 826 822 q 803 769 817 785 q 771 746 790 754 q 704 746 738 732 q 657 794 671 760 q 640 831 650 813 q 615 863 629 849 q 583 887 601 878 q 542 896 564 896 q 488 869 510 896 q 465 781 465 842 q 499 683 465 722 q 594 643 533 643 l 611 643 q 618 635 618 643 q 597 581 618 603 q 543 560 575 560 l 536 560 q 438 541 481 560 q 365 490 394 522 q 321 413 336 457 q 306 319 306 369 q 327 197 306 253 q 387 101 349 140 q 480 39 425 61 q 601 17 535 17 q 714 42 668 17 q 786 105 760 67 q 822 187 813 143 q 825 269 832 231 q 796 332 818 307 q 739 357 774 357 q 682 341 703 357 q 651 302 661 325 q 637 253 640 279 q 632 207 633 228 q 619 181 631 192 q 592 171 607 169 q 538 185 563 171 q 496 220 513 199 q 473 269 479 242 q 474 326 467 297 q 529 426 489 386 q 621 493 569 465 q 727 541 672 521 q 826 583 782 561 q 898 631 871 604 q 919 700 925 658 q 925 722 917 713 q 946 735 933 732 z "},"-":{"ha":644,"x_min":56,"x_max":589,"o":"m 589 468 q 577 439 589 451 q 547 426 565 426 l 97 426 q 68 439 81 426 q 56 468 56 451 l 56 544 q 68 574 56 563 q 97 586 81 586 l 547 586 q 577 574 565 586 q 589 544 589 563 l 589 468 l 589 468 z "},"_":{"ha":782,"x_min":56,"x_max":726,"o":"m 699 1 q 718 -7 710 1 q 726 -26 726 -15 l 726 -68 q 718 -87 726 -79 q 699 -96 710 -96 l 83 -96 q 64 -87 72 -96 q 56 -68 56 -79 l 56 -26 q 64 -7 56 -15 q 83 1 72 1 l 699 1 l 699 1 z "},"+":{"ha":738,"x_min":56,"x_max":682,"o":"m 654 576 q 674 568 667 576 q 682 549 682 560 l 682 479 q 674 460 682 468 q 654 451 667 451 l 432 451 l 432 229 q 424 210 432 218 q 404 201 415 201 l 335 201 q 315 210 324 201 q 307 229 307 218 l 307 451 l 83 451 q 64 460 72 451 q 56 479 56 468 l 56 549 q 64 568 56 560 q 83 576 72 576 l 307 576 l 307 800 q 315 819 307 811 q 335 828 324 828 l 404 828 q 424 819 415 828 q 432 800 432 811 l 432 576 l 654 576 l 654 576 z "},"=":{"ha":738,"x_min":56,"x_max":682,"o":"m 654 699 q 674 690 665 699 q 682 671 682 682 l 682 589 q 674 569 682 578 q 654 561 665 561 l 83 561 q 64 569 72 561 q 56 589 56 578 l 56 671 q 64 690 56 682 q 83 699 72 699 l 654 699 m 654 467 q 674 458 665 467 q 682 439 682 450 l 682 357 q 674 338 682 346 q 654 329 665 329 l 83 329 q 64 338 72 329 q 56 357 56 346 l 56 439 q 64 458 56 450 q 83 467 72 467 l 654 467 z "},"[":{"ha":432,"x_min":56,"x_max":376,"o":"m 356 1040 q 370 1034 364 1040 q 376 1019 376 1028 l 376 942 q 370 927 376 933 q 356 921 364 921 l 268 921 l 268 1 l 356 1 q 370 -4 364 1 q 376 -19 376 -10 l 376 -96 q 370 -111 376 -106 q 356 -117 364 -117 l 97 -117 q 68 -105 81 -117 q 56 -75 56 -93 l 56 999 q 68 1028 56 1015 q 97 1040 81 1040 l 356 1040 l 356 1040 z "},"]":{"ha":431,"x_min":56,"x_max":375,"o":"m 333 1040 q 363 1028 351 1040 q 375 999 375 1015 l 375 -75 q 363 -105 375 -93 q 333 -117 351 -117 l 76 -117 q 56 -96 56 -117 l 56 -19 q 76 1 56 1 l 164 1 l 164 921 l 76 921 q 61 927 67 921 q 56 942 56 933 l 56 1019 q 61 1034 56 1028 q 76 1040 67 1040 l 333 1040 l 333 1040 z "},"{":{"ha":497,"x_min":56,"x_max":442,"o":"m 133 782 q 154 901 133 851 q 215 981 175 950 q 312 1026 254 1013 q 442 1040 369 1040 l 442 958 q 394 950 413 958 q 364 929 375 942 q 349 901 353 917 q 344 869 344 885 l 344 661 q 325 574 344 611 q 275 511 306 536 q 208 474 244 486 q 138 461 172 461 q 208 449 172 461 q 275 411 244 436 q 325 349 306 386 q 344 263 344 313 l 344 53 q 349 22 344 38 q 364 -7 353 6 q 394 -28 375 -19 q 442 -36 413 -36 l 442 -117 q 312 -103 369 -117 q 215 -58 254 -89 q 154 22 175 -28 q 133 140 133 71 l 133 296 q 120 381 133 354 q 56 407 107 407 l 56 515 q 120 542 107 515 q 133 626 133 568 l 133 782 l 133 782 z "},"}":{"ha":497,"x_min":56,"x_max":442,"o":"m 365 626 q 378 542 365 568 q 442 515 392 515 l 442 407 q 378 381 392 407 q 365 296 365 354 l 365 140 q 344 22 365 71 q 283 -58 324 -28 q 185 -103 243 -89 q 56 -117 128 -117 l 56 -36 q 103 -28 85 -36 q 134 -7 122 -19 q 150 22 146 6 q 154 53 154 38 q 153 125 154 88 q 153 193 153 163 l 153 263 q 172 349 153 313 q 222 411 192 386 q 290 449 253 436 q 360 461 326 461 q 290 474 326 461 q 222 511 253 486 q 172 574 192 536 q 153 661 153 611 l 153 731 q 153 798 153 761 q 154 869 154 835 q 150 901 154 885 q 134 929 146 917 q 103 950 122 942 q 56 958 85 958 l 56 1040 q 283 981 201 1040 q 365 782 365 921 l 365 626 l 365 626 z "},"/":{"ha":617,"x_min":51,"x_max":564,"o":"m 532 1007 q 556 994 547 1007 q 558 968 564 982 l 153 18 q 126 1 146 1 l 83 1 q 60 14 68 1 q 58 40 51 26 l 463 989 q 489 1007 471 1007 l 532 1007 l 532 1007 z "},"\\":{"ha":339,"x_min":54,"x_max":283,"o":"m 282 33 q 275 11 283 21 q 254 1 267 1 l 206 1 q 178 25 182 1 l 57 975 q 63 997 54 988 q 83 1007 71 1007 l 132 1007 q 151 1000 143 1007 q 160 982 158 993 l 282 33 z "},"|":{"ha":222,"x_min":56,"x_max":167,"o":"m 132 1150 q 157 1140 147 1150 q 167 1115 167 1131 l 167 -186 q 157 -211 167 -201 q 132 -221 147 -221 l 90 -221 q 65 -211 75 -221 q 56 -186 56 -201 l 56 1115 q 65 1140 56 1131 q 90 1150 75 1150 l 132 1150 l 132 1150 z "},"":{"ha":499,"x_min":56,"x_max":443,"o":"m 250 714 q 174 729 210 714 q 113 770 139 744 q 71 831 86 796 q 56 907 56 867 q 71 983 56 947 q 113 1044 86 1018 q 174 1085 139 1069 q 250 1100 210 1100 q 324 1085 289 1100 q 386 1044 360 1069 q 428 983 413 1018 q 443 907 443 947 q 428 831 443 867 q 386 770 413 796 q 324 729 360 744 q 250 714 289 714 m 250 986 q 193 963 217 986 q 169 907 169 940 q 193 851 169 875 q 250 828 217 828 q 306 851 282 828 q 329 907 329 875 q 306 963 329 940 q 250 986 282 986 z "},".":{"ha":367,"x_min":56,"x_max":311,"o":"m 183 244 q 233 234 210 244 q 274 206 257 224 q 301 165 292 189 q 311 115 311 142 q 301 65 311 89 q 274 24 292 42 q 233 -3 257 7 q 183 -12 210 -12 q 133 -3 157 -12 q 92 24 110 7 q 65 65 75 42 q 56 115 56 89 q 65 165 56 142 q 92 206 75 189 q 133 234 110 224 q 183 244 157 244 z "},",":{"ha":368,"x_min":56,"x_max":313,"o":"m 182 244 q 274 207 236 244 q 313 115 313 169 l 313 113 q 296 10 313 57 q 256 -76 279 -37 q 208 -143 233 -114 q 163 -190 182 -172 q 129 -202 147 -203 q 99 -186 111 -201 q 87 -154 86 -172 q 101 -124 88 -136 q 118 -109 110 -117 q 133 -92 126 -101 q 150 -40 154 -69 q 119 6 146 -10 q 73 52 90 22 q 57 118 56 82 q 94 207 58 171 q 182 244 131 243 z "},":":{"ha":367,"x_min":56,"x_max":311,"o":"m 183 244 q 233 234 210 244 q 274 206 257 224 q 301 165 292 189 q 311 115 311 142 q 301 65 311 89 q 274 24 292 42 q 233 -3 257 7 q 183 -12 210 -12 q 133 -3 157 -12 q 92 24 110 7 q 65 65 75 42 q 56 115 56 89 q 65 165 56 142 q 92 206 75 189 q 133 234 110 224 q 183 244 157 244 m 183 726 q 233 717 210 726 q 274 690 257 707 q 301 649 292 672 q 311 599 311 625 q 301 549 311 572 q 274 508 292 525 q 233 480 257 490 q 183 469 210 469 q 133 480 157 469 q 92 508 110 490 q 65 549 75 525 q 56 599 56 572 q 65 649 56 625 q 92 690 75 672 q 133 717 110 707 q 183 726 157 726 z "},";":{"ha":368,"x_min":56,"x_max":313,"o":"m 185 726 q 235 717 211 726 q 276 690 258 707 q 303 649 293 672 q 313 599 313 625 q 303 549 313 572 q 276 508 293 525 q 235 480 258 490 q 185 469 211 469 q 135 480 158 469 q 94 508 111 490 q 67 549 76 525 q 57 599 57 572 q 67 649 57 625 q 94 690 76 672 q 135 717 111 707 q 185 726 158 726 m 183 244 q 233 235 210 244 q 274 207 257 225 q 302 165 292 189 q 313 115 313 142 l 313 113 q 296 10 313 57 q 256 -76 279 -37 q 208 -143 233 -114 q 163 -190 182 -172 q 130 -202 149 -203 q 99 -186 111 -201 q 88 -154 86 -172 q 103 -124 89 -136 q 118 -109 110 -117 q 135 -92 126 -101 q 150 -40 154 -69 q 119 6 146 -10 q 74 52 92 22 q 57 118 56 82 q 94 207 58 171 q 183 244 131 243 z "},"\"":{"ha":674,"x_min":56,"x_max":618,"o":"m 183 1063 q 276 1025 238 1063 q 314 933 314 988 l 314 931 q 297 828 314 875 q 258 742 281 781 q 209 675 235 704 q 163 628 183 646 q 130 616 149 615 q 99 632 111 617 q 88 664 88 646 q 103 694 89 682 q 118 709 110 701 q 135 726 126 717 q 150 778 154 749 q 121 824 146 808 q 74 870 92 840 q 57 936 56 900 q 95 1025 58 989 q 183 1063 132 1061 m 488 1063 q 580 1025 542 1063 q 618 933 618 988 l 618 931 q 601 828 617 875 q 561 742 585 781 q 512 675 538 704 q 467 628 486 646 q 434 616 453 615 q 403 632 415 617 q 392 664 390 646 q 407 694 393 682 q 422 709 414 701 q 439 726 431 717 q 454 778 458 749 q 424 824 450 808 q 378 870 396 840 q 361 936 360 900 q 399 1025 363 989 q 488 1063 435 1061 z "},"'":{"ha":369,"x_min":56,"x_max":314,"o":"m 183 1063 q 276 1025 238 1063 q 314 933 314 988 l 314 931 q 297 828 314 875 q 258 742 281 781 q 209 675 235 704 q 163 628 183 646 q 130 616 149 615 q 99 632 111 617 q 88 664 88 646 q 103 694 89 682 q 118 709 110 701 q 135 726 126 717 q 150 778 154 749 q 119 824 146 808 q 74 870 92 840 q 57 936 56 900 q 95 1025 58 989 q 183 1063 132 1061 z "},"":{"ha":369,"x_min":56,"x_max":314,"o":"m 250 856 q 296 808 278 838 q 313 742 314 778 q 275 654 311 690 q 186 617 239 618 q 136 626 160 617 q 94 653 113 636 q 66 694 76 671 q 56 744 56 718 q 57 749 56 747 q 74 851 57 804 q 113 937 90 899 q 162 1003 136 975 q 207 1050 188 1032 q 240 1062 221 1063 q 271 1047 258 1061 q 282 1014 283 1032 q 267 983 281 996 q 251 969 260 976 q 235 953 243 961 q 219 900 215 929 q 250 856 224 871 z "},"":{"ha":368,"x_min":56,"x_max":313,"o":"m 182 1063 q 274 1025 236 1063 q 313 933 313 988 l 313 931 q 296 828 313 875 q 256 742 279 781 q 208 675 233 704 q 161 628 182 646 q 128 616 147 615 q 99 632 110 617 q 87 664 86 646 q 101 694 88 682 q 117 709 108 701 q 133 726 125 717 q 150 778 154 749 q 119 824 146 808 q 73 870 90 840 q 56 936 56 900 q 94 1025 57 989 q 182 1063 131 1061 z "},"":{"ha":369,"x_min":56,"x_max":314,"o":"m 183 244 q 276 207 238 244 q 314 115 314 169 l 314 113 q 297 10 314 57 q 258 -76 281 -37 q 209 -143 235 -114 q 163 -190 183 -172 q 130 -202 149 -203 q 99 -186 111 -201 q 88 -154 88 -172 q 103 -124 89 -136 q 118 -109 110 -117 q 135 -92 126 -101 q 150 -40 154 -69 q 119 6 146 -10 q 74 52 92 22 q 57 118 56 82 q 95 207 58 171 q 183 244 132 243 z "},"":{"ha":674,"x_min":56,"x_max":618,"o":"m 183 244 q 276 207 238 244 q 314 115 314 169 l 314 113 q 297 10 314 57 q 258 -76 281 -37 q 209 -143 235 -114 q 163 -190 183 -172 q 130 -202 149 -203 q 99 -186 111 -201 q 88 -154 88 -172 q 103 -124 89 -136 q 118 -109 110 -117 q 135 -92 126 -101 q 150 -40 154 -69 q 121 6 146 -10 q 74 52 92 22 q 57 118 56 82 q 95 207 58 171 q 183 244 132 243 m 488 244 q 580 207 542 244 q 618 115 618 169 l 618 113 q 601 10 617 57 q 561 -76 585 -37 q 512 -143 538 -114 q 467 -190 486 -172 q 434 -202 453 -203 q 403 -186 415 -201 q 392 -154 390 -172 q 407 -124 393 -136 q 422 -109 414 -117 q 439 -92 431 -101 q 454 -40 458 -69 q 424 6 450 -10 q 378 52 396 22 q 361 118 360 82 q 399 207 363 171 q 488 244 435 243 z "},"":{"ha":672,"x_min":56,"x_max":617,"o":"m 553 856 q 599 808 581 838 q 615 742 617 778 q 578 654 614 690 q 489 617 542 618 q 438 626 461 617 q 397 653 414 636 q 369 694 379 671 q 358 744 358 718 l 358 749 q 376 851 360 804 q 415 937 392 899 q 465 1003 439 975 q 510 1050 490 1032 q 542 1062 524 1063 q 574 1047 561 1061 q 585 1014 586 1032 q 569 983 583 996 q 554 969 563 976 q 538 953 546 961 q 522 900 518 929 q 553 856 526 871 m 249 856 q 294 808 276 838 q 311 742 313 778 q 274 654 310 690 q 185 617 238 618 q 135 626 158 617 q 94 653 111 636 q 66 694 76 671 q 56 744 56 718 l 56 749 q 72 851 56 804 q 112 937 89 899 q 160 1003 135 975 q 206 1050 186 1032 q 238 1062 219 1063 q 269 1047 257 1061 q 281 1014 282 1032 q 265 983 279 996 q 250 969 258 976 q 233 953 242 961 q 218 900 214 929 q 249 856 222 871 z "},"":{"ha":672,"x_min":56,"x_max":617,"o":"m 182 1063 q 274 1025 236 1063 q 313 933 313 988 l 313 931 q 296 828 313 875 q 256 742 279 781 q 208 675 233 704 q 161 628 182 646 q 129 616 147 615 q 99 632 111 617 q 87 664 86 646 q 101 694 88 682 q 117 709 108 701 q 133 726 125 717 q 150 778 154 749 q 119 824 146 808 q 73 870 90 840 q 56 936 56 900 q 94 1025 57 989 q 182 1063 131 1061 m 486 1063 q 578 1025 540 1063 q 617 933 617 988 l 617 931 q 600 828 617 875 q 560 742 583 781 q 512 675 538 704 q 465 628 486 646 q 433 616 451 615 q 403 632 414 617 q 391 664 390 646 q 406 694 392 682 q 421 709 413 701 q 438 726 429 717 q 453 778 457 749 q 424 824 449 808 q 377 870 394 840 q 360 936 360 900 q 398 1025 361 989 q 486 1063 435 1061 z "},">":{"ha":579,"x_min":56,"x_max":524,"o":"m 506 581 q 524 546 524 567 l 524 399 q 506 364 524 378 l 88 72 q 66 71 76 65 q 56 89 56 76 l 56 193 q 82 244 56 226 l 407 472 l 82 699 q 56 750 56 718 l 56 856 q 66 874 56 868 q 88 872 76 879 l 506 581 l 506 581 z "},"<":{"ha":579,"x_min":56,"x_max":524,"o":"m 490 872 q 513 874 501 879 q 524 856 524 868 l 524 750 q 497 699 524 718 l 172 472 l 497 244 q 524 193 524 226 l 524 89 q 513 71 524 76 q 490 72 501 65 l 74 364 q 56 399 56 378 l 56 546 q 74 581 56 567 l 490 872 l 490 872 z "},"?":{"ha":703,"x_min":54,"x_max":647,"o":"m 239 244 q 289 234 265 244 q 330 206 313 224 q 358 165 347 189 q 368 115 368 142 q 358 65 368 89 q 330 24 347 42 q 289 -3 313 7 q 239 -12 265 -12 q 189 -3 213 -12 q 148 24 165 7 q 121 65 131 42 q 111 115 111 89 q 121 165 111 142 q 148 206 131 189 q 189 234 165 224 q 239 244 213 244 m 647 793 q 627 703 647 739 q 576 639 607 667 q 509 588 546 611 q 439 535 472 564 q 379 471 406 507 q 344 382 353 435 q 325 347 342 361 q 286 333 308 333 l 210 333 q 181 341 193 333 q 160 360 168 349 q 150 387 151 372 q 156 417 149 401 q 194 474 169 449 q 246 524 218 500 q 302 571 274 547 q 353 623 331 594 q 390 688 375 651 q 404 775 404 725 q 386 864 404 829 q 333 899 368 899 q 288 868 301 899 q 268 792 274 838 q 251 744 265 765 q 217 711 238 724 q 172 697 196 699 q 124 704 147 694 l 122 706 q 83 733 99 715 q 60 772 67 750 q 57 817 54 793 q 74 861 60 840 q 191 971 121 935 q 349 1007 261 1007 q 470 994 415 1007 q 565 953 525 981 q 626 887 604 926 q 647 793 647 847 z "},"":{"ha":464,"x_min":53,"x_max":411,"o":"m 382 1067 q 405 1051 399 1067 q 400 1022 411 1035 l 213 836 q 165 817 193 817 l 82 817 q 60 828 68 817 q 58 853 53 840 l 132 1025 q 158 1056 140 1044 q 194 1067 175 1067 l 382 1067 l 382 1067 z "},"":{"ha":390,"x_min":56,"x_max":335,"o":"m 194 817 q 140 828 165 817 q 97 858 115 839 q 67 902 78 876 q 56 957 56 928 q 67 1012 56 986 q 97 1056 78 1038 q 140 1086 115 1075 q 194 1097 165 1097 q 249 1086 224 1097 q 294 1056 275 1075 q 324 1012 313 1038 q 335 957 335 986 q 324 902 335 928 q 294 858 313 876 q 249 828 275 839 q 194 817 224 817 z "},"":{"ha":640,"x_min":56,"x_max":585,"o":"m 283 931 q 250 850 283 883 q 169 817 217 817 q 89 850 122 817 q 56 931 56 883 q 89 1013 56 979 q 169 1046 122 1046 q 250 1013 217 1046 q 283 931 283 979 m 471 1046 q 551 1013 518 1046 q 585 931 585 979 q 551 850 585 883 q 471 817 518 817 q 390 850 422 817 q 357 931 357 883 q 390 1013 357 979 q 471 1046 422 1046 z "},"":{"ha":439,"x_min":56,"x_max":383,"o":"m 219 1146 q 283 1133 253 1146 q 335 1097 313 1119 q 370 1045 357 1075 q 383 982 383 1015 q 370 917 383 947 q 335 865 357 888 q 283 830 313 843 q 219 817 253 817 q 156 830 186 817 q 104 865 126 843 q 69 917 82 888 q 56 982 56 947 q 69 1045 56 1015 q 104 1097 82 1075 q 156 1133 126 1119 q 219 1146 186 1146 m 219 913 q 256 933 242 913 q 271 982 271 953 q 256 1030 271 1010 q 219 1050 242 1050 q 183 1030 197 1050 q 168 982 168 1010 q 183 933 168 953 q 219 913 197 913 z "},"":{"ha":583,"x_min":56,"x_max":528,"o":"m 503 942 q 521 934 514 942 q 528 915 528 926 l 528 843 q 521 824 528 832 q 503 817 514 817 l 82 817 q 63 824 71 817 q 56 843 56 832 l 56 915 q 63 934 56 926 q 82 942 71 942 l 503 942 l 503 942 z "},"":{"ha":672,"x_min":53,"x_max":619,"o":"m 613 850 q 614 828 619 839 q 596 817 608 817 l 472 817 q 439 835 450 817 l 336 983 l 235 835 q 200 817 221 817 l 78 817 q 58 828 64 817 q 61 850 53 839 l 232 1081 q 265 1097 246 1097 l 407 1097 q 440 1081 426 1097 l 613 850 z "},"":{"ha":672,"x_min":53,"x_max":619,"o":"m 596 1097 q 614 1086 608 1097 q 613 1064 619 1075 l 440 833 q 407 817 426 817 l 265 817 q 232 833 246 817 l 61 1064 q 58 1086 53 1075 q 78 1097 64 1097 l 200 1097 q 235 1079 221 1097 l 336 931 l 439 1079 q 472 1097 450 1097 l 596 1097 l 596 1097 z "},"":{"ha":729,"x_min":56,"x_max":674,"o":"m 644 1097 q 665 1088 657 1097 q 672 1067 674 1079 q 646 969 668 1014 q 585 890 624 924 q 492 836 547 856 q 365 817 436 817 q 238 836 293 817 q 144 890 182 856 q 83 969 106 924 q 57 1067 61 1014 q 64 1088 56 1079 q 85 1097 72 1097 l 199 1097 q 217 1090 210 1097 q 226 1072 224 1083 q 265 992 232 1025 q 365 960 297 960 q 465 992 432 960 q 504 1072 497 1025 q 513 1090 506 1083 q 531 1097 519 1097 l 644 1097 l 644 1097 z "},"":{"ha":724,"x_min":54,"x_max":669,"o":"m 497 1074 q 565 1051 536 1074 q 615 995 594 1028 q 647 928 635 963 q 665 868 660 893 q 663 842 669 854 q 644 825 657 831 q 621 822 633 819 q 600 835 608 824 q 549 878 581 857 q 481 900 517 900 q 417 885 446 900 q 360 853 389 871 q 299 820 331 835 q 226 806 267 806 q 161 826 189 806 q 113 878 133 847 q 78 942 92 908 q 58 999 65 975 q 60 1028 54 1014 q 81 1050 67 1043 l 82 1050 q 110 1053 96 1057 q 135 1039 125 1050 q 181 994 151 1017 q 249 971 210 971 q 308 987 281 971 q 365 1022 336 1003 q 425 1058 393 1042 q 497 1074 457 1074 z "},"":{"ha":222,"x_min":56,"x_max":167,"o":"m 132 401 q 157 392 147 401 q 167 367 167 382 l 167 -186 q 157 -211 167 -201 q 132 -221 147 -221 l 90 -221 q 65 -211 75 -221 q 56 -186 56 -201 l 56 367 q 65 392 56 382 q 90 401 75 401 l 132 401 m 132 1150 q 157 1140 147 1150 q 167 1115 167 1131 l 167 557 q 157 532 167 542 q 132 522 147 522 l 90 522 q 65 532 75 522 q 56 557 56 542 l 56 1115 q 65 1140 56 1131 q 90 1150 75 1150 l 132 1150 z "},"":{"ha":1013,"x_min":56,"x_max":957,"o":"m 944 203 q 956 181 956 194 q 947 158 957 168 l 860 71 q 837 62 850 61 q 815 74 824 63 l 679 232 q 507 182 601 182 q 333 232 411 182 l 197 74 q 176 62 189 63 q 153 71 163 61 l 67 158 q 56 181 56 168 q 68 203 57 194 l 226 342 q 192 420 204 378 q 181 507 181 463 q 208 639 181 576 l 68 763 q 56 784 57 771 q 67 807 56 797 l 153 893 q 176 903 163 903 q 197 892 189 903 l 307 764 q 398 815 347 796 q 507 833 449 833 q 615 815 564 833 q 706 764 665 796 l 815 892 q 837 903 824 903 q 860 893 850 903 l 947 807 q 956 784 957 797 q 944 763 956 771 l 804 639 q 832 507 832 576 q 820 420 832 463 q 786 342 808 378 l 944 203 m 507 315 q 553 331 532 315 q 591 372 575 346 q 616 432 607 397 q 625 507 625 467 q 616 582 625 547 q 591 643 607 617 q 553 684 575 669 q 507 699 532 699 q 460 684 482 699 q 422 643 439 669 q 397 582 406 617 q 388 507 388 547 q 397 432 388 467 q 422 372 406 397 q 460 331 439 346 q 507 315 482 315 z "},"":{"ha":811,"x_min":56,"x_max":757,"o":"m 735 394 q 753 373 749 388 q 750 344 757 358 q 719 292 739 322 q 667 231 699 261 q 591 175 635 200 q 489 140 547 150 l 489 -46 q 480 -69 489 -60 q 457 -78 471 -78 l 407 -78 q 385 -69 394 -78 q 376 -46 376 -60 l 376 136 q 243 173 303 143 q 142 251 183 203 q 78 363 100 299 q 56 504 56 428 q 78 641 56 578 q 144 752 101 704 q 245 831 186 800 q 376 871 304 861 l 376 1003 q 385 1026 376 1017 q 407 1035 394 1035 l 457 1035 q 480 1026 471 1035 q 489 1003 489 1017 l 489 871 q 621 833 561 864 q 724 743 681 803 q 744 690 740 718 q 740 637 749 663 q 713 590 732 611 q 667 560 694 569 q 574 563 619 542 q 511 629 529 583 q 476 706 493 675 q 440 754 458 736 q 404 779 422 772 q 368 786 386 786 q 305 749 329 786 q 273 658 281 713 q 274 538 265 603 q 313 419 283 474 q 390 327 342 364 q 510 290 439 290 q 572 300 543 290 q 622 324 600 310 q 661 356 644 339 q 689 385 678 372 q 735 394 708 408 z "},"":{"ha":1086,"x_min":56,"x_max":1031,"o":"m 1031 971 q 1015 943 1031 954 l 913 869 l 674 482 l 674 479 l 814 479 q 839 469 829 479 q 849 444 849 460 l 849 403 q 839 378 849 388 q 814 368 829 368 l 674 368 l 674 290 l 814 290 q 839 280 829 290 q 849 256 849 269 l 849 213 q 839 188 849 197 q 814 178 829 178 l 674 178 l 674 128 l 726 65 q 735 40 735 54 q 724 13 735 25 q 696 1 713 1 l 414 1 q 386 13 397 1 q 375 40 375 25 q 385 65 375 56 l 438 128 l 438 178 l 292 178 q 270 187 279 178 q 261 208 261 196 l 261 258 q 270 281 261 272 q 292 290 279 290 l 438 290 l 438 368 l 292 368 q 270 377 279 368 q 261 399 261 386 l 261 449 q 270 471 261 463 q 292 479 279 479 l 413 479 l 174 869 l 69 943 q 56 971 56 954 q 65 997 56 986 q 90 1007 75 1007 l 503 1007 q 529 996 518 1007 q 540 969 540 985 q 529 942 540 953 l 467 882 l 617 624 l 776 885 l 718 942 q 706 969 706 951 q 717 996 706 985 q 743 1007 728 1007 l 994 1007 q 1020 997 1010 1007 q 1031 971 1031 986 z "},"":{"ha":854,"x_min":56,"x_max":804,"o":"m 565 892 q 516 881 538 892 q 478 843 494 869 q 450 774 461 817 q 433 668 439 732 l 700 668 q 725 658 715 668 q 735 633 735 649 l 735 592 q 725 567 735 576 q 700 557 715 557 l 428 557 l 428 504 l 428 451 l 700 451 q 725 441 715 451 q 735 417 735 431 l 735 374 q 725 349 735 358 q 700 339 715 339 l 433 339 q 450 233 439 275 q 478 165 461 190 q 516 128 494 139 q 565 117 538 117 q 621 136 601 117 q 650 181 640 156 q 691 226 661 213 q 751 226 721 239 l 753 225 q 796 174 788 210 q 782 110 804 139 q 747 71 767 90 q 699 36 726 51 q 639 11 672 21 q 565 1 606 1 q 409 27 475 1 q 298 99 343 53 q 225 206 253 144 q 185 339 197 268 l 86 339 q 65 348 74 339 q 56 369 56 357 l 56 419 q 65 442 56 433 q 86 451 74 451 l 172 451 q 172 477 172 464 q 171 504 171 490 q 172 531 171 518 q 172 557 172 543 l 86 557 q 65 566 74 557 q 56 588 56 575 l 56 638 q 65 660 56 651 q 86 668 74 668 l 185 668 q 225 802 197 740 q 298 910 253 864 q 409 981 343 956 q 565 1007 475 1007 q 639 997 606 1007 q 699 972 672 988 q 747 938 726 957 q 782 899 767 918 q 797 867 793 883 q 796 833 800 850 q 781 803 792 817 q 753 782 769 789 l 751 782 q 691 782 721 769 q 650 826 661 794 q 621 872 640 851 q 565 892 601 892 z "},"":{"ha":872,"x_min":56,"x_max":817,"o":"m 779 231 q 806 219 794 231 q 817 193 817 208 q 811 125 817 165 q 788 48 806 85 q 733 -15 769 11 q 638 -42 697 -42 q 549 -23 588 -42 q 474 18 511 -4 q 392 59 436 40 q 285 78 349 78 q 204 59 233 78 q 161 22 175 40 q 118 8 143 1 q 93 28 101 14 q 90 60 85 43 q 110 111 97 82 q 144 167 124 140 q 192 215 164 194 q 257 243 219 236 q 281 275 271 257 q 297 317 292 293 l 86 317 q 65 326 74 317 q 56 349 56 335 l 56 399 q 65 420 56 411 q 86 429 74 429 l 288 429 q 267 482 279 456 q 240 535 254 508 l 86 535 q 65 544 74 535 q 56 565 56 553 l 56 615 q 65 638 56 629 q 86 647 74 647 l 189 647 q 177 688 182 668 q 172 726 172 707 q 203 848 172 796 q 283 935 233 900 q 397 989 333 971 q 529 1007 461 1007 q 660 988 608 1007 q 742 942 713 969 q 781 881 772 914 q 785 821 790 849 q 760 774 779 793 q 717 756 742 756 q 656 778 678 756 q 615 829 633 801 q 575 880 596 857 q 519 903 554 903 q 446 865 478 903 q 414 746 414 826 q 420 694 414 718 q 438 647 426 669 l 701 647 q 726 637 717 647 q 736 613 736 626 l 736 569 q 726 544 736 554 q 701 535 717 535 l 489 535 q 502 486 497 511 q 507 429 507 461 l 701 429 q 726 419 717 429 q 736 394 736 410 l 736 351 q 726 326 736 336 q 701 317 717 317 l 469 317 q 430 272 453 293 q 382 235 407 251 q 451 214 419 226 q 513 190 483 201 q 574 169 543 178 q 639 161 604 161 q 715 178 692 161 q 746 211 738 196 q 759 226 750 221 q 779 231 768 231 z "},"":{"ha":872,"x_min":56,"x_max":817,"o":"m 779 231 q 806 219 794 231 q 817 193 817 208 q 811 125 817 165 q 788 48 806 85 q 733 -15 769 11 q 638 -42 697 -42 q 549 -23 586 -42 q 473 18 511 -4 q 391 59 435 40 q 283 78 347 78 q 203 59 232 78 q 160 22 174 40 q 118 8 143 1 q 93 28 101 14 q 90 60 85 43 q 110 111 97 82 q 142 167 122 140 q 190 215 163 194 q 256 243 218 236 q 288 288 275 261 q 301 353 301 315 q 292 415 301 383 q 267 479 282 447 l 86 479 q 65 488 74 479 q 56 510 56 497 l 56 560 q 65 581 56 572 q 86 590 74 590 l 213 590 q 183 660 196 626 q 171 726 171 694 q 201 848 171 796 q 282 935 232 900 q 397 989 332 971 q 529 1007 461 1007 q 660 988 608 1007 q 742 942 713 969 q 781 881 772 914 q 784 821 790 849 q 760 774 778 793 q 717 756 742 756 q 654 778 676 756 q 613 829 632 801 q 574 880 594 857 q 519 903 554 903 q 446 865 478 903 q 414 746 414 826 q 429 665 414 701 q 464 590 444 628 l 700 590 q 725 581 715 590 q 735 556 735 571 l 735 514 q 725 489 735 499 q 700 479 715 479 l 503 479 q 507 429 507 456 q 469 317 507 365 q 382 235 432 269 q 451 214 419 226 q 513 190 483 201 q 574 169 543 178 q 639 161 604 161 q 715 178 692 161 q 744 211 738 196 q 779 231 756 231 z "},"":{"ha":869,"x_min":47,"x_max":818,"o":"m 807 199 q 813 175 818 188 q 793 163 807 163 l 679 163 q 649 175 661 163 l 368 460 q 360 479 360 468 q 368 499 360 490 l 649 783 q 679 796 661 796 l 793 796 q 813 783 807 796 q 807 760 818 771 l 531 479 l 807 199 m 503 199 q 508 175 514 188 q 489 163 503 163 l 375 163 q 346 175 356 163 l 64 460 q 64 499 47 479 l 346 783 q 375 796 356 796 l 489 796 q 508 783 503 796 q 503 760 514 771 l 226 479 l 503 199 z "},"":{"ha":869,"x_min":51,"x_max":825,"o":"m 501 499 q 510 479 510 490 q 501 460 510 468 l 221 175 q 190 163 208 163 l 76 163 q 57 175 63 163 q 63 199 51 188 l 340 479 l 63 760 q 57 783 51 771 q 76 796 63 796 l 190 796 q 221 783 208 796 l 501 499 m 806 499 q 806 460 825 479 l 525 175 q 494 163 513 163 l 381 163 q 361 175 367 163 q 367 199 356 188 l 644 479 l 367 760 q 361 783 356 771 q 381 796 367 796 l 494 796 q 525 783 513 796 l 806 499 z "},"":{"ha":565,"x_min":56,"x_max":513,"o":"m 488 796 q 507 783 501 796 q 503 760 513 771 l 225 479 l 503 199 q 507 175 513 188 q 488 163 501 163 l 374 163 q 344 175 357 163 l 64 460 q 56 479 56 468 q 64 499 56 490 l 344 783 q 374 796 357 796 l 488 796 l 488 796 z "},"":{"ha":565,"x_min":53,"x_max":510,"o":"m 501 499 q 510 479 510 490 q 501 460 510 468 l 221 175 q 192 163 208 163 l 78 163 q 58 175 64 163 q 63 199 53 188 l 340 479 l 63 760 q 58 783 53 771 q 78 796 64 796 l 192 796 q 221 783 208 796 l 501 499 z "},"":{"ha":549,"x_min":56,"x_max":500,"o":"m 264 -101 q 403 -149 349 -114 q 478 -230 457 -185 q 488 -325 500 -275 q 428 -417 476 -375 q 295 -487 381 -458 q 85 -519 210 -517 q 65 -511 74 -519 q 56 -492 56 -503 l 56 -411 q 64 -392 56 -400 q 83 -383 72 -383 q 238 -349 190 -379 q 286 -283 285 -318 q 249 -220 288 -249 q 149 -192 211 -192 l 149 56 l 264 56 l 264 -101 l 264 -101 z "},"":{"ha":454,"x_min":56,"x_max":399,"o":"m 399 6 q 318 -69 354 -29 q 263 -151 288 -104 q 238 -250 238 -197 q 267 -336 238 -307 q 365 -368 296 -365 q 379 -374 374 -368 q 385 -389 385 -381 l 385 -442 q 378 -456 385 -450 q 364 -462 372 -462 q 199 -443 260 -461 q 106 -398 138 -425 q 65 -337 74 -371 q 56 -271 56 -304 q 69 -201 56 -235 q 103 -138 82 -168 q 151 -82 124 -108 q 207 -35 178 -56 q 360 56 274 15 l 399 6 l 399 6 z "},"":{"ha":329,"x_min":56,"x_max":274,"o":"m 164 626 q 242 594 210 626 q 274 518 274 563 q 242 440 274 472 q 164 408 210 408 q 88 440 119 408 q 56 518 56 472 q 88 594 56 563 q 164 626 119 626 z "},"":{"ha":525,"x_min":56,"x_max":469,"o":"m 263 710 q 343 694 306 710 q 408 650 381 678 q 453 585 436 622 q 469 504 469 547 q 453 424 469 461 q 408 358 436 386 q 343 313 381 329 q 263 297 306 297 q 182 313 219 297 q 116 358 144 329 q 72 424 88 386 q 56 504 56 461 q 72 585 56 547 q 116 650 88 622 q 182 694 144 678 q 263 710 219 710 z "},"":{"ha":621,"x_min":47,"x_max":565,"o":"m 557 711 q 565 692 565 703 q 557 672 565 681 l 399 514 l 557 357 q 565 337 565 349 q 557 317 565 325 l 508 268 q 488 260 500 260 q 468 268 476 260 l 311 426 l 153 268 q 133 260 144 260 q 114 268 122 260 l 64 317 q 57 337 57 325 q 64 357 57 349 l 222 514 l 64 672 q 64 711 47 692 l 114 760 q 153 760 133 779 l 311 603 l 468 760 q 488 768 476 768 q 508 760 500 768 l 557 711 l 557 711 z "},"":{"ha":644,"x_min":56,"x_max":589,"o":"m 547 586 q 577 574 565 586 q 589 544 589 563 l 589 468 q 577 439 589 451 q 547 426 565 426 l 97 426 q 67 439 79 426 q 56 468 56 451 l 56 544 q 67 574 56 563 q 97 586 79 586 l 547 586 l 547 586 z "},"":{"ha":715,"x_min":56,"x_max":660,"o":"m 618 586 q 648 574 636 586 q 660 544 660 563 l 660 468 q 648 439 660 451 q 618 426 636 426 l 97 426 q 67 439 79 426 q 56 468 56 451 l 56 544 q 67 574 56 563 q 97 586 79 586 l 618 586 l 618 586 z "},"":{"ha":792,"x_min":56,"x_max":736,"o":"m 694 586 q 724 574 711 586 q 736 544 736 563 l 736 468 q 724 439 736 451 q 694 426 711 426 l 97 426 q 67 439 79 426 q 56 468 56 451 l 56 544 q 67 574 56 563 q 97 586 79 586 l 694 586 l 694 586 z "},"":{"ha":1117,"x_min":56,"x_max":1061,"o":"m 1026 753 q 1051 743 1042 753 q 1061 718 1061 733 l 1061 676 q 1051 651 1061 661 q 1026 642 1042 642 l 943 642 q 895 519 932 568 q 803 440 858 469 q 680 399 749 411 q 538 388 611 388 l 468 388 l 468 128 l 521 65 q 529 40 529 54 q 518 13 529 25 q 490 1 507 1 l 208 1 q 181 13 193 1 q 169 40 169 25 q 179 65 169 56 l 232 128 l 232 642 l 86 642 q 65 651 74 642 q 56 672 56 660 l 56 722 q 65 744 56 735 q 86 753 74 753 l 232 753 l 232 879 l 179 943 q 169 968 169 953 q 181 995 169 983 q 208 1007 193 1007 l 538 1007 q 680 995 611 1007 q 803 954 749 983 q 895 876 858 925 q 943 753 932 826 l 1026 753 m 468 753 l 693 753 q 636 860 682 824 q 490 896 590 896 l 468 896 l 468 753 m 490 499 q 636 535 590 499 q 693 642 682 571 l 468 642 l 468 521 q 490 499 468 499 z "},"":{"ha":985,"x_min":56,"x_max":929,"o":"m 888 1007 q 917 994 904 1007 q 929 965 929 982 l 929 822 q 917 795 929 807 q 890 783 906 783 q 864 793 876 783 l 821 829 q 642 896 743 896 l 450 896 l 450 560 l 672 560 l 763 651 q 789 663 772 663 q 815 652 804 663 q 826 626 826 642 l 826 382 q 815 356 826 367 q 789 344 804 344 q 763 356 774 344 l 672 449 l 450 449 l 450 332 l 572 332 q 597 322 588 332 q 607 297 607 311 l 607 254 q 597 229 607 239 q 572 219 588 219 l 450 219 l 450 128 l 503 65 q 511 40 511 54 q 500 13 511 25 q 472 1 489 1 l 190 1 q 163 13 174 1 q 151 40 151 25 q 161 65 151 56 l 214 128 l 214 219 l 86 219 q 64 228 72 219 q 56 250 56 238 l 56 300 q 64 323 56 314 q 86 332 72 332 l 214 332 l 214 879 l 161 943 q 151 968 151 953 q 163 995 151 983 q 190 1007 174 1007 l 888 1007 l 888 1007 z "},"":{"ha":939,"x_min":54,"x_max":886,"o":"m 751 1007 q 816 992 789 1007 q 863 957 843 976 q 882 896 886 931 q 847 843 878 861 q 813 833 831 833 q 781 838 796 832 q 753 857 765 844 q 738 888 742 869 q 718 926 731 910 q 682 942 706 942 q 633 923 650 942 q 613 881 617 904 q 620 815 607 843 q 653 769 633 788 q 691 740 672 750 q 715 728 710 729 l 813 726 q 833 717 825 726 q 839 694 842 707 l 836 674 q 827 656 835 663 q 808 650 819 650 l 706 651 l 619 58 q 577 -90 607 -24 q 499 -204 547 -157 q 383 -276 450 -251 q 231 -301 315 -301 q 133 -283 169 -301 q 74 -237 96 -264 q 56 -200 58 -221 q 63 -162 54 -179 q 88 -133 71 -144 q 128 -121 104 -121 l 131 -121 q 178 -139 158 -121 q 200 -185 197 -157 q 214 -216 203 -203 q 254 -229 225 -229 q 290 -220 272 -229 q 324 -181 307 -211 q 355 -92 340 -150 q 385 65 369 -33 l 469 651 l 374 653 q 352 662 361 653 q 346 683 343 671 l 349 704 q 358 722 351 715 q 376 729 365 729 l 481 728 q 515 846 490 794 q 576 933 540 897 q 658 988 613 969 q 751 1007 703 1007 z "},"":{"ha":790,"x_min":56,"x_max":735,"o":"m 719 64 q 735 36 735 56 q 725 11 735 21 q 701 1 715 1 l 490 1 q 440 6 460 1 q 405 17 419 10 q 381 34 390 25 q 363 51 371 43 q 333 80 351 61 q 290 122 314 99 q 240 171 267 144 q 188 224 214 197 l 56 356 l 56 499 q 228 538 178 494 q 283 671 278 582 l 86 671 q 65 680 74 671 q 56 701 56 689 l 56 751 q 65 773 56 764 q 86 782 74 782 l 274 782 q 218 863 258 835 q 103 894 178 890 l 86 894 q 79 896 82 894 l 78 896 l 56 896 l 56 1007 l 700 1007 q 725 997 715 1007 q 735 972 735 986 l 735 929 q 725 904 735 914 q 700 894 715 894 l 468 894 q 525 782 508 850 l 700 782 q 725 772 715 782 q 735 747 735 763 l 735 706 q 725 681 735 690 q 700 671 715 671 l 533 671 q 510 569 529 613 q 461 493 492 525 q 390 440 431 461 q 301 407 349 419 q 485 251 400 322 q 557 191 521 221 q 625 135 593 161 q 682 91 657 110 q 719 64 707 72 z "},"":{"ha":1494,"x_min":14,"x_max":1453,"o":"m 1414 224 q 1441 213 1429 224 q 1453 185 1453 201 l 1453 43 q 1440 13 1453 25 q 1411 1 1428 1 l 686 1 q 659 13 671 1 q 647 40 647 25 q 657 65 647 53 l 710 128 l 710 265 l 336 265 l 253 136 l 326 65 q 338 39 338 54 q 326 13 338 24 q 300 1 315 1 l 51 1 q 25 13 36 1 q 14 39 14 24 q 24 65 14 56 l 119 164 l 638 949 q 685 992 656 976 q 746 1007 714 1007 l 1383 1007 q 1413 994 1400 1007 q 1425 965 1425 982 l 1425 822 q 1413 795 1425 807 q 1386 783 1401 783 q 1361 793 1374 783 q 1230 869 1301 843 q 1081 896 1158 896 l 946 896 l 946 560 l 1168 560 l 1258 651 q 1285 663 1268 663 q 1311 652 1300 663 q 1322 626 1322 642 l 1322 382 q 1311 356 1322 367 q 1285 344 1300 344 q 1258 356 1269 344 l 1168 449 l 946 449 l 946 196 q 970 137 946 161 q 1029 113 994 113 l 1108 113 q 1258 139 1186 113 q 1389 215 1329 165 q 1414 224 1399 224 m 710 376 l 710 836 l 410 376 l 710 376 z "},"":{"ha":1547,"x_min":42,"x_max":1506,"o":"m 1474 224 q 1497 210 1488 221 q 1506 185 1506 200 l 1506 43 q 1494 13 1506 25 q 1464 1 1482 1 l 740 1 l 736 1 q 583 0 656 10 q 517 -6 551 -6 q 368 19 450 -6 q 213 103 286 44 q 91 260 140 163 q 42 504 42 358 q 91 748 42 650 q 213 905 140 846 q 368 989 286 964 q 517 1014 450 1014 q 549 1013 532 1014 q 583 1008 565 1011 q 659 1002 621 1001 q 736 1006 697 1003 l 846 1006 q 957 1006 894 1006 q 1086 1007 1019 1007 l 1436 1007 q 1466 994 1454 1007 q 1478 965 1478 982 l 1478 824 q 1469 798 1478 808 q 1446 785 1460 788 q 1414 793 1429 781 q 1284 869 1356 843 q 1135 896 1213 896 l 999 896 l 999 560 l 1222 560 l 1311 651 q 1336 663 1322 663 q 1365 653 1353 664 q 1376 626 1376 642 l 1376 382 q 1365 355 1376 367 q 1336 344 1353 343 q 1311 357 1321 346 l 1222 449 l 999 449 l 999 196 q 1023 137 999 161 q 1082 113 1047 113 l 1163 113 q 1312 139 1240 113 q 1442 215 1383 165 q 1474 224 1454 226 m 596 128 q 664 159 631 135 q 719 233 697 183 q 744 358 740 282 q 724 547 747 435 q 665 728 700 660 q 591 833 631 797 q 512 878 551 869 q 438 881 472 888 q 369 848 403 872 q 315 775 336 824 q 290 649 293 726 q 310 460 286 572 q 368 279 333 347 q 442 175 403 211 q 522 130 482 139 q 596 128 561 121 z "},"":{"ha":1292,"x_min":42,"x_max":1253,"o":"m 1229 247 q 1248 226 1243 240 q 1246 199 1253 213 q 1208 138 1233 174 q 1142 68 1182 101 q 1046 11 1103 35 q 914 -12 989 -12 q 777 10 839 -12 q 669 72 715 32 q 558 10 621 32 q 419 -12 494 -12 q 267 15 336 -12 q 147 91 197 42 q 69 208 97 140 q 42 357 42 275 q 69 506 42 438 q 147 624 97 575 q 267 700 197 672 q 419 728 336 728 q 560 705 496 728 q 674 640 625 682 q 787 705 722 682 q 928 728 851 728 q 1109 668 1026 728 q 1235 478 1192 608 q 1233 447 1240 463 q 1210 426 1225 432 l 797 274 q 878 181 828 218 q 1006 143 929 143 q 1067 153 1039 143 q 1117 178 1094 164 q 1157 210 1140 193 q 1185 239 1174 226 q 1205 251 1192 249 q 1229 247 1218 254 m 826 633 q 784 596 801 625 q 759 526 767 567 q 753 439 751 486 q 769 344 756 392 l 1033 443 q 932 606 988 563 q 826 633 876 650 m 471 68 q 544 124 522 78 q 560 271 567 171 q 551 336 554 301 q 549 358 550 347 q 544 379 547 368 q 513 512 531 458 q 474 597 496 565 q 426 640 453 629 q 368 646 400 651 q 315 621 336 640 q 285 564 294 601 q 278 470 276 526 q 294 335 281 414 q 326 202 308 256 q 365 117 343 149 q 413 74 386 85 q 471 68 439 63 z "},"":{"ha":1033,"x_min":42,"x_max":992,"o":"m 868 860 q 958 713 924 800 q 992 504 992 626 q 942 260 992 358 q 820 103 893 163 q 665 19 747 44 q 517 -6 583 -6 q 374 17 453 -6 q 224 94 294 40 l 158 17 q 126 1 146 1 l 71 1 q 58 9 63 1 q 61 24 54 17 l 165 149 q 76 295 111 208 q 42 504 42 382 q 91 748 42 650 q 213 905 140 846 q 368 989 286 964 q 517 1014 450 1014 q 660 991 581 1014 q 810 914 739 968 l 875 992 q 907 1007 888 1007 l 963 1007 q 975 999 971 1007 q 974 983 979 990 l 868 860 m 310 460 q 339 354 324 399 l 661 738 q 608 818 636 788 q 550 864 579 849 q 492 883 521 879 q 438 881 463 886 q 369 848 403 872 q 315 775 336 824 q 290 649 293 726 q 310 460 286 572 m 724 547 q 710 604 717 578 q 696 654 703 631 l 372 271 q 426 190 397 221 q 485 144 456 160 q 543 125 514 128 q 597 128 572 122 q 665 159 632 135 q 719 233 697 183 q 744 358 740 282 q 724 547 747 435 z "},"":{"ha":838,"x_min":42,"x_max":796,"o":"m 686 628 q 767 510 739 579 q 796 357 796 440 q 768 208 796 275 q 690 91 740 140 q 571 15 640 42 q 418 -12 501 -12 q 197 50 292 -12 l 169 17 q 138 1 157 1 l 83 1 q 69 9 74 1 q 72 24 65 17 l 138 101 q 67 215 92 150 q 42 357 42 279 q 69 506 42 438 q 147 624 97 575 q 265 700 196 672 q 418 728 335 728 q 622 676 535 728 l 651 711 q 685 726 664 726 l 739 726 q 751 719 747 726 q 750 704 756 711 l 686 628 m 293 335 q 297 315 296 324 q 301 296 299 306 l 504 536 q 444 628 478 603 q 367 646 411 654 q 315 621 335 640 q 285 564 294 601 q 277 470 275 526 q 293 335 279 414 m 469 68 q 553 151 533 79 q 544 379 572 222 q 538 413 542 397 q 531 444 535 429 l 325 201 q 388 90 353 121 q 469 68 422 60 z "},"":{"ha":838,"x_min":42,"x_max":796,"o":"m 446 924 q 592 814 528 878 q 702 676 657 750 q 772 520 747 601 q 796 358 796 439 l 796 357 q 768 208 796 275 q 691 91 740 140 q 572 15 642 42 q 419 -12 503 -12 q 267 15 336 -12 q 147 91 197 42 q 69 208 97 140 q 42 357 42 275 q 69 506 42 438 q 147 624 97 575 q 267 700 197 672 q 419 728 336 728 q 453 726 436 728 q 485 722 469 725 q 376 839 440 790 l 301 747 q 272 744 286 731 l 228 781 q 219 794 221 786 q 225 810 218 803 l 289 889 q 122 926 215 919 l 122 1007 q 242 997 185 1007 q 353 967 300 986 l 419 1046 q 449 1049 432 1063 l 493 1013 q 501 999 500 1007 q 496 983 501 990 l 446 924 m 471 68 q 553 151 533 79 q 544 379 572 222 q 474 597 517 536 q 368 646 431 657 q 315 621 336 640 q 285 564 294 601 q 278 470 276 526 q 293 335 279 414 q 324 202 307 256 q 364 117 342 149 q 413 74 386 85 q 471 68 439 63 z "},"":{"ha":1201,"x_min":42,"x_max":1161,"o":"m 1139 247 q 1157 226 1153 240 q 1154 199 1161 213 q 1117 138 1142 174 q 1051 68 1092 101 q 955 11 1011 35 q 824 -12 899 -12 q 644 27 721 -12 q 522 136 568 67 q 483 88 507 114 q 426 40 458 63 q 355 3 394 18 q 268 -12 315 -12 q 179 -1 221 -12 q 107 34 138 11 q 59 92 76 57 q 42 172 42 126 q 64 257 42 219 q 122 323 86 294 q 204 372 158 351 q 296 407 250 393 q 385 430 342 421 q 460 443 428 439 l 460 488 q 435 625 460 585 q 365 665 410 665 q 325 655 342 665 q 297 628 308 644 q 280 588 286 611 q 271 540 274 565 q 243 485 268 507 q 186 464 218 464 q 142 476 161 464 q 113 506 124 488 q 100 547 101 524 q 110 590 99 569 q 219 694 146 660 q 381 728 293 728 q 515 713 456 728 q 615 664 574 699 q 716 711 660 694 q 838 728 772 728 q 1018 668 936 728 q 1143 478 1100 608 q 1142 447 1150 463 q 1118 426 1135 432 l 1117 425 l 707 274 q 788 181 736 218 q 914 143 839 143 q 975 153 947 143 q 1026 178 1003 164 q 1065 210 1049 193 q 1093 239 1082 226 q 1114 251 1101 249 q 1139 247 1126 254 m 735 633 q 693 596 710 625 q 669 526 676 567 q 663 439 661 486 q 678 344 665 392 l 943 443 q 841 606 897 563 q 735 633 785 650 m 371 96 q 442 124 410 96 q 496 182 474 153 q 460 357 460 261 l 460 358 l 460 382 q 399 364 429 376 q 345 330 369 351 q 306 275 321 308 q 292 196 292 242 q 371 96 292 96 z "},"":{"ha":903,"x_min":42,"x_max":861,"o":"m 638 510 q 722 467 682 492 q 794 410 763 442 q 843 339 825 378 q 861 254 861 300 q 778 72 861 142 q 535 1 696 1 l 489 1 q 448 19 465 1 q 431 60 431 36 q 444 97 431 81 q 479 117 458 113 q 528 131 504 121 q 570 161 551 142 q 600 210 589 181 q 611 282 611 240 q 603 351 611 322 q 580 398 594 379 q 545 428 565 417 q 501 443 525 439 q 459 469 475 449 q 446 517 443 490 q 457 548 449 533 q 481 571 465 563 q 573 661 543 606 q 599 769 603 717 q 553 858 594 821 q 432 896 513 896 q 367 869 393 896 q 340 803 340 842 l 340 58 q 320 -43 340 4 q 265 -126 300 -90 q 182 -181 229 -161 q 81 -201 135 -201 q 53 -190 64 -201 q 42 -162 42 -179 q 50 -137 42 -149 q 104 7 104 -75 l 104 504 l 81 504 q 53 515 64 504 q 42 543 42 526 q 50 568 42 557 l 104 631 l 104 617 q 135 768 104 697 q 218 892 165 839 q 342 976 271 946 q 493 1007 413 1007 q 631 981 572 1007 q 725 913 689 956 q 775 817 761 871 q 778 709 789 764 q 733 601 768 654 q 638 510 699 549 z "},"":{"ha":860,"x_min":42,"x_max":818,"o":"m 410 814 q 564 800 490 814 q 694 751 638 786 q 784 656 750 715 q 818 504 818 596 q 784 353 818 413 q 694 258 750 293 q 564 208 638 222 q 410 194 490 194 l 339 194 l 339 128 l 392 65 q 401 40 401 56 q 390 13 401 25 q 363 1 378 1 l 81 1 q 53 13 64 1 q 42 40 42 25 q 50 65 42 54 l 103 128 l 103 879 l 50 943 q 42 968 42 953 q 53 995 42 983 q 81 1007 64 1007 l 363 1007 q 390 995 378 1007 q 401 968 401 983 q 392 943 401 953 l 339 879 l 339 814 l 410 814 m 417 306 q 526 356 483 306 q 568 504 568 407 q 558 590 568 553 q 524 651 547 626 q 460 690 500 676 q 361 703 419 703 l 339 703 l 339 383 q 362 328 339 351 q 417 306 385 306 z "},"":{"ha":883,"x_min":42,"x_max":842,"o":"m 561 726 q 669 706 618 726 q 758 640 719 685 q 819 524 797 594 q 842 357 842 454 q 816 189 842 258 q 747 74 790 119 q 644 8 703 29 q 522 -12 586 -12 q 412 3 457 -12 q 339 33 367 18 l 339 -199 l 392 -261 q 401 -286 401 -271 q 390 -313 401 -301 q 363 -325 379 -325 l 81 -325 q 53 -313 64 -325 q 42 -286 42 -301 q 50 -261 42 -272 l 103 -199 l 103 829 l 57 869 q 42 903 42 882 q 72 946 42 936 l 103 956 l 271 1007 q 317 1000 294 1014 q 339 956 339 985 l 339 628 q 369 658 350 642 q 416 690 389 675 q 479 716 443 706 q 561 726 515 726 m 456 78 q 512 94 485 78 q 560 144 539 110 q 593 231 581 179 q 606 357 606 283 q 571 569 606 503 q 479 636 536 636 q 443 629 460 636 q 411 611 426 622 q 358 547 376 585 q 339 465 339 508 l 339 196 q 370 116 339 150 q 447 78 401 82 l 456 78 z "},"":{"ha":549,"x_min":56,"x_max":493,"o":"m 469 701 q 486 695 479 701 q 493 679 493 689 l 493 619 q 486 603 493 610 q 469 596 479 596 l 436 596 l 436 531 l 464 496 q 469 482 469 490 q 463 467 469 474 q 449 461 457 461 l 294 461 q 280 467 286 461 q 274 482 274 474 q 279 496 274 488 l 307 531 l 307 596 l 107 596 q 63 624 76 596 q 56 653 56 638 q 67 679 57 668 l 308 989 q 344 1006 321 1006 l 413 1006 q 429 999 422 1006 q 436 983 436 993 l 436 701 l 469 701 m 307 899 l 156 701 l 307 701 l 307 899 z "},"":{"ha":503,"x_min":54,"x_max":447,"o":"m 308 731 q 407 680 367 719 q 447 581 447 640 q 391 459 447 503 q 247 415 335 415 q 135 437 176 415 q 69 488 93 458 q 56 523 57 504 q 63 558 54 542 q 86 585 71 574 q 122 596 101 596 q 166 579 147 596 q 189 538 185 563 q 203 494 192 514 q 242 475 214 475 q 265 481 253 475 q 288 499 278 486 q 305 533 299 513 q 311 585 311 554 q 287 660 311 631 q 214 689 263 689 l 178 689 q 160 707 160 689 l 160 746 q 178 764 160 764 l 214 764 q 275 787 253 764 q 297 854 297 810 q 281 924 297 903 q 242 946 265 946 q 209 927 218 946 q 197 886 200 908 q 177 844 194 861 q 135 826 160 826 q 101 835 115 826 q 79 859 88 844 q 71 890 71 874 q 81 924 71 907 q 140 981 100 956 q 254 1006 181 1006 q 376 972 326 1006 q 432 876 426 938 q 401 778 438 815 q 308 731 364 742 z "},"":{"ha":521,"x_min":56,"x_max":465,"o":"m 442 624 q 459 616 453 624 q 464 597 465 608 l 444 481 q 422 461 442 461 l 79 461 q 62 468 68 461 q 56 486 56 475 q 81 583 60 542 q 133 655 103 624 q 196 711 163 686 q 258 760 229 736 q 305 810 286 783 q 324 869 324 836 q 312 924 324 900 q 272 949 300 949 q 234 919 247 949 q 215 838 221 890 q 204 806 214 819 q 181 783 194 792 q 150 773 167 775 q 117 778 133 771 q 80 813 92 789 q 75 863 68 836 q 107 929 85 901 q 157 974 129 957 q 215 998 185 990 q 272 1006 244 1006 q 342 997 308 1006 q 403 969 376 988 q 447 922 431 950 q 463 854 463 893 q 442 779 463 808 q 392 731 422 750 q 324 698 361 711 q 252 670 286 685 q 192 637 218 656 q 156 589 165 618 l 350 589 q 426 618 393 589 q 442 624 435 624 z "},"":{"ha":340,"x_min":56,"x_max":285,"o":"m 281 496 q 285 482 285 489 q 278 467 285 474 q 264 461 272 461 l 111 461 q 96 467 101 461 q 90 482 90 474 q 94 496 90 489 l 124 531 l 124 889 l 69 899 q 56 917 56 901 q 65 932 56 928 l 222 1004 q 231 1006 225 1006 q 245 1000 239 1006 q 251 986 251 994 l 251 531 l 281 496 z "},"":{"ha":967,"x_min":56,"x_max":911,"o":"m 665 1006 q 689 994 681 1006 q 692 968 697 982 l 286 18 q 260 1 279 1 l 217 1 q 193 14 201 1 q 190 40 185 26 l 596 989 q 622 1006 604 1006 l 665 1006 m 285 482 q 279 467 285 474 q 264 461 274 461 l 111 461 q 97 467 103 461 q 90 482 90 474 q 94 496 90 489 l 124 531 l 124 889 l 71 899 q 56 917 56 901 q 65 932 56 926 l 224 1004 q 232 1006 225 1006 q 251 986 251 1006 l 251 531 l 281 496 q 285 482 285 489 m 889 242 q 911 219 911 242 l 911 158 q 889 136 911 136 l 854 136 l 854 69 l 883 36 q 889 22 889 28 q 883 8 889 14 q 867 1 876 1 l 714 1 q 699 8 706 1 q 693 22 693 14 q 699 36 693 31 l 726 69 l 726 136 l 526 136 q 482 164 496 136 q 486 219 467 193 l 728 529 q 764 546 740 546 l 832 546 q 854 524 854 546 l 854 242 l 889 242 m 726 439 l 574 242 l 726 242 l 726 439 z "},"":{"ha":1003,"x_min":56,"x_max":949,"o":"m 667 1006 q 690 994 682 1006 q 692 968 699 982 l 286 18 q 261 1 279 1 l 217 1 q 193 14 201 1 q 192 40 185 26 l 597 989 q 622 1006 603 1006 l 667 1006 m 286 482 q 280 467 286 474 q 265 461 274 461 l 111 461 q 97 467 103 461 q 90 482 90 474 q 96 496 90 490 l 124 531 l 124 889 l 71 899 q 56 917 56 901 q 67 932 56 928 l 224 1004 q 232 1006 226 1006 q 251 986 251 1006 l 251 531 l 281 496 q 286 482 286 488 m 924 163 q 942 155 935 163 q 946 138 949 147 l 928 21 q 906 1 925 1 l 561 1 q 544 8 551 1 q 539 25 538 15 q 565 122 543 82 q 615 194 586 163 q 678 251 644 226 q 740 299 713 275 q 787 349 768 324 q 806 410 806 375 q 794 463 806 439 q 754 488 782 488 q 699 378 707 488 q 664 323 694 342 q 600 318 633 304 q 562 353 574 329 q 557 403 550 376 q 589 469 567 442 q 639 514 611 497 q 697 538 667 531 q 754 546 726 546 q 824 537 790 546 q 885 509 858 528 q 928 462 913 490 q 944 394 944 433 q 924 319 944 349 q 874 270 904 290 q 806 237 843 250 q 735 210 769 224 q 675 177 701 196 q 639 129 649 158 l 832 129 q 910 157 875 129 q 924 163 915 163 z "},"":{"ha":1129,"x_min":56,"x_max":1074,"o":"m 828 1006 q 851 994 843 1006 q 854 968 860 982 l 449 18 q 422 1 442 1 l 379 1 q 356 14 364 1 q 353 40 347 26 l 758 989 q 769 1001 761 997 q 785 1006 776 1006 l 828 1006 m 447 581 q 392 459 447 503 q 249 415 336 415 q 136 437 178 415 q 71 488 94 458 q 57 523 58 504 q 63 558 56 542 q 86 585 71 574 q 122 596 101 596 q 167 579 147 596 q 189 538 186 563 q 203 494 192 514 q 242 475 214 475 q 289 499 265 475 q 313 585 313 524 q 288 660 313 631 q 214 689 263 689 l 178 689 q 160 707 160 689 l 160 746 q 178 764 160 764 l 214 764 q 275 787 253 764 q 297 854 297 810 q 281 924 297 903 q 242 946 265 946 q 209 927 218 946 q 199 886 200 908 q 178 844 196 861 q 135 826 160 826 q 101 835 115 826 q 79 859 88 844 q 71 890 71 874 q 81 924 71 907 q 141 981 100 956 q 256 1006 182 1006 q 378 972 328 1006 q 433 876 428 938 q 427 822 436 846 q 401 779 418 797 q 360 749 383 761 q 308 731 336 736 q 407 680 367 719 q 447 581 447 640 m 1051 242 q 1074 219 1074 242 l 1074 158 q 1051 136 1074 136 l 1017 136 l 1017 69 l 1046 36 q 1051 22 1051 28 q 1045 8 1051 14 q 1029 1 1039 1 l 876 1 q 862 8 868 1 q 856 22 856 14 q 860 36 856 29 l 889 69 l 889 136 l 689 136 q 643 164 660 136 q 649 219 629 193 l 890 529 q 926 546 903 546 l 994 546 q 1017 524 1017 546 l 1017 242 l 1051 242 m 889 439 l 736 242 l 889 242 l 889 439 z "},"":{"ha":792,"x_min":56,"x_max":736,"o":"m 396 365 q 446 356 422 365 q 487 328 469 346 q 515 288 504 311 q 525 238 525 264 q 515 188 525 211 q 487 147 504 164 q 446 119 469 129 q 396 110 422 110 q 346 119 369 110 q 305 147 322 129 q 278 188 288 164 q 268 238 268 211 q 278 288 268 264 q 305 328 288 311 q 346 356 322 346 q 396 365 369 365 m 396 647 q 346 657 369 647 q 305 684 322 667 q 278 725 288 701 q 268 775 268 749 q 278 825 268 801 q 305 866 288 849 q 346 894 322 883 q 396 904 369 904 q 446 894 422 904 q 487 866 469 883 q 515 825 504 849 q 525 775 525 801 q 515 725 525 749 q 487 684 504 701 q 446 657 469 667 q 396 647 422 647 m 694 586 q 724 574 713 586 q 736 544 736 563 l 736 468 q 724 438 736 450 q 694 426 713 426 l 97 426 q 68 438 81 426 q 56 468 56 450 l 56 544 q 68 574 56 563 q 97 586 81 586 l 694 586 z "},"":{"ha":776,"x_min":56,"x_max":721,"o":"m 721 392 q 678 243 721 300 q 572 157 636 186 q 654 72 621 121 q 688 -51 688 24 q 659 -176 688 -125 q 584 -260 631 -228 q 480 -306 538 -292 q 364 -321 422 -321 q 205 -301 269 -321 q 106 -261 140 -281 q 78 -234 89 -251 q 68 -197 68 -217 l 68 -29 q 76 -10 68 -18 q 96 -1 85 -1 q 121 -18 114 -1 q 149 -72 129 -37 q 197 -141 168 -107 q 265 -200 226 -175 q 349 -225 303 -225 q 439 -198 407 -225 q 471 -114 471 -171 q 440 -34 471 -65 q 363 22 410 -3 q 263 72 317 47 q 163 129 210 96 q 86 211 117 163 q 56 333 56 260 q 71 415 56 379 q 112 476 86 450 q 170 518 138 501 q 238 544 203 535 q 180 584 207 563 q 133 633 153 606 q 101 695 113 660 q 89 775 89 731 q 123 891 89 846 q 206 961 157 936 q 310 996 256 986 q 406 1006 365 1006 q 556 989 493 1006 q 654 957 618 972 q 685 930 674 947 q 697 890 697 913 l 697 763 q 689 743 697 751 q 669 735 681 735 l 668 735 q 643 750 651 735 q 617 793 635 767 q 571 846 599 819 q 506 891 543 872 q 419 910 468 910 q 337 886 369 910 q 304 822 304 863 q 335 753 304 782 q 412 701 365 725 q 513 651 458 676 q 613 592 567 626 q 690 510 660 558 q 721 392 721 463 m 271 379 q 285 331 271 351 q 322 292 299 310 q 377 260 346 275 q 442 228 408 244 q 504 328 504 251 q 472 410 504 378 q 390 467 439 442 l 388 467 q 303 443 336 467 q 271 379 271 419 z "},"":{"ha":964,"x_min":56,"x_max":908,"o":"m 697 653 q 710 638 707 647 q 708 618 714 628 q 683 575 700 600 q 637 527 665 550 q 569 488 608 504 q 478 471 531 471 q 373 490 419 471 q 294 543 326 508 q 244 624 261 578 q 226 728 226 671 q 246 832 226 785 q 299 914 265 879 q 381 967 333 949 q 488 986 429 986 q 602 965 550 986 q 689 894 654 943 q 703 858 701 878 q 701 821 706 839 q 683 788 696 803 q 650 767 669 774 q 586 769 618 756 q 542 815 554 783 q 493 903 517 881 q 443 925 469 925 q 399 899 415 925 q 376 835 382 874 q 377 752 371 797 q 403 669 383 707 q 458 605 424 631 q 542 579 492 579 q 583 586 564 579 q 619 603 603 593 q 647 625 635 614 q 665 646 658 636 q 697 653 679 663 m 482 1154 q 647 1121 569 1154 q 783 1030 725 1088 q 875 894 842 972 q 908 728 908 817 q 875 563 908 640 q 783 427 842 485 q 647 336 725 369 q 482 303 569 303 q 317 336 394 303 q 181 427 239 369 q 89 563 122 485 q 56 728 56 640 q 89 894 56 817 q 181 1030 122 972 q 317 1121 239 1088 q 482 1154 394 1154 m 839 728 q 811 867 839 800 q 778 927 797 899 q 735 981 758 956 q 681 1024 710 1006 q 621 1057 653 1043 q 482 1085 553 1085 q 343 1057 411 1085 q 283 1024 311 1043 q 229 981 254 1006 q 186 927 206 956 q 153 867 167 899 q 125 728 125 800 q 153 590 125 657 q 229 476 179 525 q 283 433 254 451 q 343 400 311 414 q 482 372 407 372 q 621 400 557 372 q 681 433 653 414 q 735 476 710 451 q 811 590 783 525 q 839 728 839 657 z "},"":{"ha":964,"x_min":56,"x_max":908,"o":"m 482 1154 q 647 1121 569 1154 q 783 1030 725 1088 q 875 894 842 972 q 908 728 908 817 q 875 563 908 640 q 783 427 842 485 q 647 336 725 369 q 482 303 569 303 q 317 336 394 303 q 181 427 239 369 q 89 563 122 485 q 56 728 56 640 q 89 894 56 817 q 181 1030 122 972 q 317 1121 239 1088 q 482 1154 394 1154 m 839 728 q 811 867 839 800 q 778 927 797 899 q 735 981 758 956 q 621 1057 685 1029 q 482 1085 553 1085 q 343 1057 411 1085 q 283 1024 311 1043 q 231 981 254 1006 q 153 867 179 929 q 125 728 125 800 q 153 590 125 657 q 231 476 181 525 q 283 433 254 451 q 343 400 311 414 q 482 372 407 372 q 621 400 557 372 q 735 476 685 426 q 811 590 783 525 q 839 728 839 657 m 704 504 q 713 489 713 496 q 694 471 713 471 l 564 471 q 528 490 542 471 l 424 653 l 424 536 l 450 504 q 456 492 456 496 q 449 477 456 483 q 435 471 443 471 l 290 471 q 276 477 282 471 q 271 492 271 483 q 275 504 271 497 l 303 536 l 303 921 l 275 953 q 271 965 271 958 q 276 980 271 974 q 290 986 282 986 l 460 986 q 538 978 500 986 q 604 953 575 971 q 651 904 633 935 q 668 828 668 874 q 635 726 668 761 q 550 679 601 692 l 615 585 q 704 504 651 536 m 424 738 q 435 726 424 726 q 518 752 496 726 q 540 828 540 778 q 518 903 540 876 q 435 929 496 929 l 424 929 l 424 738 z "},"":{"ha":1589,"x_min":56,"x_max":1533,"o":"m 1490 918 l 1490 392 l 1526 347 q 1533 329 1533 338 q 1525 310 1533 318 q 1506 303 1517 303 l 1308 303 q 1289 310 1297 303 q 1281 329 1281 318 q 1288 347 1281 338 l 1325 392 l 1325 817 l 1092 317 q 1068 303 1085 303 q 1044 317 1051 303 l 821 799 l 821 392 l 883 347 q 893 322 896 338 q 868 303 888 303 l 717 303 q 697 310 706 303 q 689 329 689 318 q 696 347 689 338 l 733 392 l 733 918 l 696 961 q 689 979 689 971 q 697 998 689 990 q 717 1006 706 1006 l 890 1006 q 922 997 907 1006 q 943 972 936 988 l 1126 581 l 1310 972 q 1331 997 1317 988 q 1363 1006 1346 1006 l 1506 1006 q 1525 998 1517 1006 q 1533 979 1533 990 q 1526 961 1533 971 l 1490 918 m 607 1006 q 627 997 618 1006 q 636 976 636 989 l 636 813 q 629 794 636 801 q 611 788 622 788 q 592 799 599 788 l 536 883 q 453 928 506 928 l 429 928 l 429 392 l 465 347 q 472 329 472 338 q 464 310 472 318 q 444 303 456 303 l 247 303 q 228 310 236 303 q 219 329 219 318 q 226 347 219 338 l 264 392 l 264 928 l 240 928 q 157 883 186 928 l 100 799 q 81 788 93 788 q 63 794 69 788 q 56 813 56 801 l 56 976 q 65 997 56 989 q 85 1006 74 1006 l 607 1006 z "},"":{"ha":1535,"x_min":56,"x_max":1479,"o":"m 1436 918 l 1436 392 l 1472 347 q 1479 329 1479 338 q 1471 310 1479 318 q 1451 303 1463 303 l 1254 303 q 1235 310 1243 303 q 1226 329 1226 318 q 1233 347 1226 338 l 1269 392 l 1269 817 l 1036 317 q 1014 303 1029 303 q 990 317 997 303 l 765 799 l 765 392 l 828 347 q 838 322 842 338 q 829 308 836 314 q 814 303 822 303 l 663 303 q 643 310 651 303 q 635 329 635 318 q 642 347 635 338 l 678 392 l 678 918 l 642 961 q 635 979 635 971 q 643 998 635 990 q 663 1006 651 1006 l 836 1006 q 867 997 853 1006 q 889 972 882 988 l 1072 581 l 1256 972 q 1308 1006 1271 1006 l 1451 1006 q 1471 998 1463 1006 q 1479 979 1479 990 q 1472 961 1479 971 l 1436 918 m 235 853 q 260 795 235 818 q 325 752 286 772 q 408 711 364 732 q 492 662 453 690 q 556 593 531 633 q 582 494 582 553 q 558 390 582 433 q 495 321 533 347 q 408 283 457 294 q 313 271 360 271 q 179 288 233 271 q 97 321 125 306 q 74 342 82 328 q 67 374 67 357 l 67 513 q 73 529 67 522 q 89 536 79 536 q 110 522 106 536 q 133 477 117 506 q 173 420 149 449 q 228 371 197 392 q 299 350 260 350 q 374 373 347 350 q 401 443 401 396 q 376 509 401 483 q 312 556 350 535 q 228 597 274 576 q 145 644 183 617 q 81 713 107 672 q 56 814 56 753 q 84 910 56 872 q 153 969 113 947 q 240 998 194 990 q 318 1006 285 1006 q 445 992 393 1006 q 526 965 497 978 q 551 943 542 958 q 561 910 561 928 l 561 804 q 555 788 561 794 q 538 781 549 781 q 517 793 524 781 q 495 828 510 806 q 457 873 481 851 q 402 910 433 894 q 331 926 371 926 q 262 907 289 926 q 235 853 235 888 z "},"":{"ha":738,"x_min":56,"x_max":682,"o":"m 654 608 q 674 600 665 608 q 682 581 682 592 l 682 511 q 674 492 682 500 q 654 483 665 483 l 432 483 l 432 260 q 424 240 432 249 q 404 232 415 232 l 335 232 q 315 240 324 232 q 307 260 307 249 l 307 483 l 83 483 q 64 492 72 483 q 56 511 56 500 l 56 581 q 64 600 56 592 q 83 608 72 608 l 307 608 l 307 832 q 315 851 307 843 q 335 860 324 860 l 404 860 q 424 851 415 860 q 432 832 432 843 l 432 608 l 654 608 m 654 126 q 674 118 665 126 q 682 99 682 110 l 682 29 q 674 10 682 18 q 654 1 665 1 l 83 1 q 64 10 72 1 q 56 29 56 18 l 56 99 q 64 118 56 110 q 83 126 72 126 l 654 126 z "},"":{"ha":739,"x_min":56,"x_max":683,"o":"m 446 561 l 406 467 l 656 467 q 675 458 667 467 q 683 439 683 450 l 683 357 q 675 338 683 346 q 656 329 667 329 l 347 329 l 214 18 q 189 1 207 1 l 144 1 q 121 14 129 1 q 119 40 113 26 l 243 329 l 83 329 q 64 338 72 329 q 56 357 56 346 l 56 439 q 64 458 56 450 q 83 467 72 467 l 301 467 l 342 561 l 83 561 q 64 569 72 561 q 56 589 56 578 l 56 671 q 64 690 56 682 q 83 699 72 699 l 400 699 l 525 989 q 550 1006 531 1006 l 594 1006 q 618 994 610 1006 q 619 968 626 982 l 504 699 l 656 699 q 675 690 667 699 q 683 671 683 682 l 683 589 q 675 569 683 578 q 656 561 667 561 l 446 561 z "},"":{"ha":703,"x_min":36,"x_max":629,"o":"m 444 611 q 394 622 418 611 q 353 649 371 632 q 326 690 336 667 q 315 740 315 714 q 326 790 315 767 q 353 831 336 814 q 394 858 371 849 q 444 868 418 868 q 494 858 471 868 q 535 831 518 849 q 563 790 553 814 q 572 740 572 767 q 563 690 572 714 q 535 649 553 667 q 494 622 518 632 q 444 611 471 611 m 36 63 q 56 153 36 117 q 107 217 76 189 q 174 268 138 244 q 244 320 211 292 q 304 385 278 349 q 339 474 331 421 q 358 508 342 494 q 397 522 375 522 l 474 522 q 503 515 490 522 q 524 495 515 507 q 533 469 532 483 q 528 439 535 454 q 490 381 514 407 q 438 332 465 356 q 381 285 410 308 q 331 233 353 261 q 294 167 308 204 q 279 81 279 131 q 297 -8 279 26 q 350 -43 315 -43 q 396 -12 382 -43 q 415 64 410 18 q 432 111 418 90 q 467 144 446 132 q 512 159 488 157 q 560 151 536 161 l 561 150 q 601 123 585 140 q 623 84 617 106 q 626 39 629 63 q 610 -6 624 15 q 492 -115 563 -79 q 335 -151 422 -151 q 213 -138 268 -151 q 119 -98 158 -125 q 58 -31 79 -71 q 36 63 36 8 z "},"":{"ha":419,"x_min":54,"x_max":365,"o":"m 307 -151 q 349 -133 332 -151 q 363 -90 365 -114 l 304 472 q 286 508 301 494 q 249 522 271 522 l 171 522 q 133 508 149 522 q 115 472 118 494 l 57 -90 q 71 -133 54 -114 q 113 -151 88 -151 l 307 -151 m 210 611 q 260 622 236 611 q 301 649 283 632 q 328 690 318 667 q 338 740 338 714 q 328 790 338 767 q 301 831 318 814 q 260 858 283 849 q 210 868 236 868 q 160 858 183 868 q 119 831 136 849 q 92 790 101 814 q 82 740 82 767 q 92 690 82 714 q 119 649 101 667 q 160 622 136 632 q 210 611 183 611 z "},"":{"ha":1083,"x_min":14,"x_max":1069,"o":"m 1058 65 q 1069 39 1069 54 q 1058 13 1069 24 q 1031 1 1046 1 l 649 1 q 622 13 633 1 q 611 39 611 24 q 622 65 611 54 l 699 138 l 631 293 l 322 293 l 253 136 l 326 65 q 338 39 338 54 q 326 13 338 24 q 300 1 315 1 l 51 1 q 25 13 36 1 q 14 39 14 24 q 24 65 14 53 l 119 164 l 492 1003 q 542 1035 507 1035 q 590 1003 576 1035 l 963 164 l 1058 65 m 583 404 l 479 647 l 371 404 l 583 404 m 619 1131 q 619 1106 626 1118 q 596 1094 611 1094 l 513 1094 q 465 1114 485 1094 l 279 1300 q 273 1328 267 1313 q 297 1344 279 1344 l 483 1344 q 521 1333 504 1344 q 546 1303 538 1322 l 619 1131 z "},"":{"ha":828,"x_min":42,"x_max":786,"o":"m 776 65 q 786 40 786 56 q 774 13 786 25 q 747 1 763 1 l 589 1 q 525 24 553 1 q 490 82 497 47 q 394 17 450 46 q 268 -12 338 -12 q 179 -1 221 -12 q 107 34 138 11 q 59 92 76 57 q 42 172 42 126 q 65 258 42 219 q 128 324 89 296 q 215 374 167 353 q 314 408 264 394 q 409 431 364 422 q 488 443 454 439 l 488 488 q 478 570 488 536 q 451 625 468 604 q 414 656 435 646 q 371 665 393 665 q 330 655 347 665 q 301 628 313 644 q 283 588 290 611 q 272 540 276 565 q 243 486 268 508 q 185 464 218 464 q 136 478 157 464 q 104 513 115 492 q 94 558 93 533 q 113 606 96 583 q 235 697 157 667 q 394 728 313 728 q 526 715 465 728 q 630 669 586 701 q 699 583 674 636 q 724 450 724 529 l 724 128 l 776 65 m 292 196 q 371 96 292 96 q 432 115 401 96 q 488 157 463 133 l 488 383 q 419 365 454 378 q 356 331 385 353 q 310 275 328 308 q 292 196 292 242 m 588 853 q 587 828 594 840 q 564 817 579 817 l 481 817 q 433 836 453 817 l 247 1022 q 241 1051 235 1035 q 265 1067 247 1067 l 451 1067 q 489 1056 472 1067 q 514 1025 506 1044 l 588 853 z "},"":{"ha":817,"x_min":53,"x_max":764,"o":"m 382 1067 q 405 1051 399 1067 q 400 1022 411 1035 l 213 836 q 165 817 193 817 l 82 817 q 60 828 68 817 q 58 853 53 840 l 132 1025 q 158 1056 140 1044 q 194 1067 175 1067 l 382 1067 m 735 1067 q 758 1051 751 1067 q 753 1022 764 1035 l 565 836 q 518 817 546 817 l 435 817 q 413 828 421 817 q 411 853 406 840 l 485 1025 q 510 1056 493 1044 q 547 1067 528 1067 l 735 1067 z "},"":{"ha":1083,"x_min":14,"x_max":1069,"o":"m 1058 65 q 1069 39 1069 54 q 1058 13 1069 24 q 1031 1 1046 1 l 649 1 q 622 13 633 1 q 611 39 611 24 q 622 65 611 54 l 699 138 l 631 293 l 322 293 l 253 136 l 326 65 q 338 39 338 54 q 326 13 338 24 q 300 1 315 1 l 51 1 q 25 13 36 1 q 14 39 14 24 q 24 65 14 53 l 119 164 l 492 1003 q 542 1035 507 1035 q 590 1003 576 1035 l 963 164 l 1058 65 m 583 404 l 479 647 l 371 404 l 583 404 m 765 1344 q 788 1328 782 1344 q 783 1300 794 1313 l 596 1114 q 549 1094 576 1094 l 465 1094 q 444 1106 451 1094 q 442 1131 436 1118 l 515 1303 q 541 1333 524 1322 q 578 1344 558 1344 l 765 1344 l 765 1344 z "},"":{"ha":1083,"x_min":14,"x_max":1069,"o":"m 1058 65 q 1069 39 1069 54 q 1058 13 1069 24 q 1031 1 1046 1 l 649 1 q 622 13 633 1 q 611 39 611 24 q 622 65 611 54 l 699 138 l 631 293 l 322 293 l 253 136 l 326 65 q 338 39 338 54 q 326 13 338 24 q 300 1 315 1 l 51 1 q 25 13 36 1 q 14 39 14 24 q 24 65 14 53 l 119 164 l 492 1003 q 542 1035 507 1035 q 590 1003 576 1035 l 963 164 l 1058 65 m 583 404 l 479 647 l 371 404 l 583 404 m 818 1128 q 819 1106 825 1117 q 801 1094 814 1094 l 678 1094 q 644 1113 656 1094 l 542 1261 l 440 1113 q 406 1094 426 1094 l 283 1094 q 264 1106 269 1094 q 267 1128 258 1117 l 438 1358 q 471 1375 451 1375 l 613 1375 q 646 1358 632 1375 l 818 1128 z "},"":{"ha":1083,"x_min":14,"x_max":1069,"o":"m 1058 65 q 1069 39 1069 54 q 1058 13 1069 24 q 1031 1 1046 1 l 649 1 q 622 13 633 1 q 611 39 611 24 q 622 65 611 54 l 699 138 l 631 293 l 322 293 l 253 136 l 326 65 q 338 39 338 54 q 326 13 338 24 q 300 1 315 1 l 51 1 q 25 13 36 1 q 14 39 14 24 q 24 65 14 53 l 119 164 l 492 1003 q 542 1035 507 1035 q 590 1003 576 1035 l 963 164 l 1058 65 m 583 404 l 479 647 l 371 404 l 583 404 m 676 1351 q 744 1328 715 1351 q 794 1273 774 1306 q 826 1206 814 1240 q 844 1146 839 1171 q 842 1120 849 1132 q 824 1103 836 1108 q 800 1099 813 1097 q 779 1113 788 1101 q 728 1156 760 1135 q 660 1178 696 1178 q 597 1163 625 1178 q 539 1131 568 1149 q 478 1098 510 1113 q 406 1083 446 1083 q 340 1104 368 1083 q 292 1156 313 1125 q 258 1219 271 1186 q 238 1276 244 1253 q 240 1306 233 1292 q 260 1328 246 1321 l 261 1328 q 290 1331 275 1335 q 314 1317 304 1328 q 360 1272 331 1294 q 428 1249 389 1249 q 488 1265 460 1249 q 544 1300 515 1281 q 604 1335 572 1319 q 676 1351 636 1351 z "},"":{"ha":1083,"x_min":14,"x_max":1069,"o":"m 1058 65 q 1069 39 1069 54 q 1058 13 1069 24 q 1031 1 1046 1 l 649 1 q 622 13 633 1 q 611 39 611 24 q 622 65 611 54 l 699 138 l 631 293 l 322 293 l 253 136 l 326 65 q 338 39 338 54 q 326 13 338 24 q 300 1 315 1 l 51 1 q 25 13 36 1 q 14 39 14 24 q 24 65 14 53 l 119 164 l 492 1003 q 542 1035 507 1035 q 590 1003 576 1035 l 963 164 l 1058 65 m 583 404 l 479 647 l 371 404 l 583 404 m 504 1208 q 471 1128 504 1161 q 390 1094 438 1094 q 310 1128 343 1094 q 276 1208 276 1161 q 310 1290 276 1257 q 390 1324 343 1324 q 471 1290 438 1324 q 504 1208 504 1257 m 692 1324 q 772 1290 739 1324 q 806 1208 806 1257 q 772 1128 806 1161 q 692 1094 739 1094 q 610 1128 643 1094 q 578 1208 578 1161 q 610 1290 578 1257 q 692 1324 643 1324 z "},"":{"ha":1083,"x_min":14,"x_max":1069,"o":"m 1058 65 q 1069 39 1069 54 q 1058 13 1069 24 q 1031 1 1046 1 l 649 1 q 622 13 633 1 q 611 39 611 24 q 622 65 611 54 l 699 138 l 631 293 l 322 293 l 253 136 l 326 65 q 338 39 338 54 q 326 13 338 24 q 300 1 315 1 l 51 1 q 25 13 36 1 q 14 39 14 24 q 24 65 14 53 l 119 164 l 492 1003 q 542 1035 507 1035 q 590 1003 576 1035 l 963 164 l 1058 65 m 583 404 l 479 647 l 371 404 l 583 404 m 542 1424 q 605 1410 575 1424 q 657 1375 635 1397 q 692 1323 679 1353 q 706 1260 706 1293 q 692 1195 706 1225 q 657 1143 679 1165 q 605 1108 635 1121 q 542 1094 575 1094 q 478 1108 508 1094 q 426 1143 449 1121 q 391 1195 404 1165 q 378 1260 378 1225 q 391 1323 378 1293 q 426 1375 404 1353 q 478 1410 449 1397 q 542 1424 508 1424 m 542 1190 q 578 1210 564 1190 q 593 1260 593 1231 q 578 1308 593 1288 q 542 1328 564 1328 q 505 1308 519 1328 q 490 1260 490 1288 q 505 1210 490 1231 q 542 1190 519 1190 z "},"":{"ha":974,"x_min":42,"x_max":935,"o":"m 907 314 q 929 288 924 306 q 926 254 935 271 q 878 176 910 222 q 797 89 847 131 q 678 17 747 47 q 517 -12 608 -12 q 368 13 450 -12 q 213 97 286 38 q 91 253 140 156 q 42 497 42 351 q 91 741 42 643 q 213 898 140 839 q 368 982 286 957 q 517 1007 450 1007 q 632 995 575 1007 q 741 956 689 983 q 837 883 793 929 q 913 771 881 838 q 926 715 925 743 q 917 660 926 686 q 888 615 907 635 q 840 583 868 594 l 839 582 q 780 572 810 569 q 725 586 750 574 q 681 622 700 599 q 653 675 661 644 q 565 828 625 779 q 432 871 504 878 q 368 842 394 867 q 326 776 342 817 q 304 685 311 736 q 297 579 297 635 q 319 426 297 501 q 383 289 342 350 q 483 190 424 228 q 617 153 542 153 q 701 168 663 153 q 768 206 739 183 q 818 253 797 228 q 851 297 839 278 q 876 316 860 311 q 907 314 892 321 m 556 -101 q 694 -149 640 -114 q 770 -230 749 -185 q 780 -325 792 -275 q 720 -417 768 -375 q 587 -487 672 -458 q 376 -519 501 -517 q 356 -511 365 -519 q 347 -492 347 -503 l 347 -411 q 356 -392 347 -400 q 375 -383 364 -383 q 529 -349 482 -379 q 578 -283 576 -318 q 541 -220 579 -249 q 440 -192 503 -192 l 440 56 l 556 56 l 556 -101 l 556 -101 z "},"":{"ha":889,"x_min":42,"x_max":847,"o":"m 808 224 q 835 213 824 224 q 847 185 847 201 l 847 43 q 835 13 847 25 q 806 1 824 1 l 81 1 q 53 13 65 1 q 42 40 42 25 q 51 65 42 53 l 104 128 l 104 879 l 51 943 q 42 968 42 956 q 53 995 42 983 q 81 1007 65 1007 l 778 1007 q 808 994 796 1007 q 819 965 819 982 l 819 822 q 808 795 819 807 q 781 783 796 783 q 756 793 768 783 q 624 869 696 843 q 475 896 553 896 l 340 896 l 340 560 l 563 560 l 653 651 q 679 663 663 663 q 706 652 694 663 q 717 626 717 642 l 717 382 q 706 356 717 367 q 679 344 694 344 q 653 356 664 344 l 563 449 l 340 449 l 340 196 q 365 137 340 161 q 424 113 389 113 l 503 113 q 652 139 581 113 q 783 215 724 165 q 808 224 793 224 m 551 1131 q 551 1106 558 1118 q 528 1094 543 1094 l 444 1094 q 397 1114 417 1094 l 211 1300 q 205 1328 199 1313 q 229 1344 211 1344 l 415 1344 q 453 1333 436 1344 q 478 1303 469 1322 l 551 1131 z "},"":{"ha":889,"x_min":42,"x_max":847,"o":"m 808 224 q 835 213 824 224 q 847 185 847 201 l 847 43 q 835 13 847 25 q 806 1 824 1 l 81 1 q 53 13 65 1 q 42 40 42 25 q 51 65 42 53 l 104 128 l 104 879 l 51 943 q 42 968 42 956 q 53 995 42 983 q 81 1007 65 1007 l 778 1007 q 808 994 796 1007 q 819 965 819 982 l 819 822 q 808 795 819 807 q 781 783 796 783 q 756 793 768 783 q 624 869 696 843 q 475 896 553 896 l 340 896 l 340 560 l 563 560 l 653 651 q 679 663 663 663 q 706 652 694 663 q 717 626 717 642 l 717 382 q 706 356 717 367 q 679 344 694 344 q 653 356 664 344 l 563 449 l 340 449 l 340 196 q 365 137 340 161 q 424 113 389 113 l 503 113 q 652 139 581 113 q 783 215 724 165 q 808 224 793 224 m 650 1344 q 673 1328 667 1344 q 668 1300 679 1313 l 481 1114 q 433 1094 461 1094 l 350 1094 q 328 1106 336 1094 q 326 1131 321 1118 l 400 1303 q 426 1333 408 1322 q 463 1344 443 1344 l 650 1344 l 650 1344 z "},"":{"ha":889,"x_min":42,"x_max":847,"o":"m 808 224 q 835 213 824 224 q 847 185 847 201 l 847 43 q 835 13 847 25 q 806 1 824 1 l 81 1 q 53 13 65 1 q 42 40 42 25 q 51 65 42 53 l 104 128 l 104 879 l 51 943 q 42 968 42 956 q 53 995 42 983 q 81 1007 65 1007 l 778 1007 q 808 994 796 1007 q 819 965 819 982 l 819 822 q 808 795 819 807 q 781 783 796 783 q 756 793 768 783 q 624 869 696 843 q 475 896 553 896 l 340 896 l 340 560 l 563 560 l 653 651 q 679 663 663 663 q 706 652 694 663 q 717 626 717 642 l 717 382 q 706 356 717 367 q 679 344 694 344 q 653 356 664 344 l 563 449 l 340 449 l 340 196 q 365 137 340 161 q 424 113 389 113 l 503 113 q 652 139 581 113 q 783 215 724 165 q 808 224 793 224 m 721 1128 q 722 1106 728 1117 q 704 1094 717 1094 l 581 1094 q 547 1113 558 1094 l 444 1261 l 343 1113 q 308 1094 329 1094 l 186 1094 q 167 1106 172 1094 q 169 1128 161 1117 l 340 1358 q 374 1375 354 1375 l 515 1375 q 549 1358 535 1375 l 721 1128 z "},"":{"ha":889,"x_min":42,"x_max":847,"o":"m 808 224 q 835 213 824 224 q 847 185 847 201 l 847 43 q 835 13 847 25 q 806 1 824 1 l 81 1 q 53 13 65 1 q 42 40 42 25 q 51 65 42 53 l 104 128 l 104 879 l 51 943 q 42 968 42 956 q 53 995 42 983 q 81 1007 65 1007 l 778 1007 q 808 994 796 1007 q 819 965 819 982 l 819 822 q 808 795 819 807 q 781 783 796 783 q 756 793 768 783 q 624 869 696 843 q 475 896 553 896 l 340 896 l 340 560 l 563 560 l 653 651 q 679 663 663 663 q 706 652 694 663 q 717 626 717 642 l 717 382 q 706 356 717 367 q 679 344 694 344 q 653 356 664 344 l 563 449 l 340 449 l 340 196 q 365 137 340 161 q 424 113 389 113 l 503 113 q 652 139 581 113 q 783 215 724 165 q 808 224 793 224 m 407 1208 q 374 1128 407 1161 q 293 1094 340 1094 q 213 1128 246 1094 q 179 1208 179 1161 q 213 1290 179 1257 q 293 1324 246 1324 q 374 1290 340 1324 q 407 1208 407 1257 m 594 1324 q 675 1290 642 1324 q 708 1208 708 1257 q 675 1128 708 1161 q 594 1094 642 1094 q 513 1128 546 1094 q 481 1208 481 1161 q 513 1290 481 1257 q 594 1324 546 1324 z "},"":{"ha":444,"x_min":-37,"x_max":403,"o":"m 364 1007 q 391 995 379 1007 q 403 968 403 983 q 393 943 403 956 l 340 879 l 340 128 l 393 65 q 403 40 403 53 q 391 13 403 25 q 364 1 379 1 l 81 1 q 53 13 65 1 q 42 40 42 25 q 51 65 42 53 l 104 128 l 104 879 l 51 943 q 42 968 42 956 q 53 995 42 983 q 81 1007 65 1007 l 364 1007 l 364 1007 m 315 1131 q 315 1106 322 1118 q 292 1094 307 1094 l 208 1094 q 161 1114 181 1094 l -25 1300 q -31 1328 -37 1313 q -7 1344 -25 1344 l 179 1344 q 217 1333 200 1344 q 242 1303 233 1322 l 315 1131 z "},"":{"ha":443,"x_min":42,"x_max":401,"o":"m 393 65 q 401 40 401 54 q 390 13 401 25 q 363 1 379 1 l 81 1 q 53 13 65 1 q 42 40 42 25 q 51 65 42 56 l 104 128 l 104 549 l 57 590 q 42 624 42 603 q 74 667 42 656 l 104 675 l 272 726 q 317 719 299 733 q 340 676 340 704 l 340 128 l 393 65 z "},"":{"ha":444,"x_min":42,"x_max":463,"o":"m 364 1007 q 391 995 379 1007 q 403 968 403 983 q 393 943 403 956 l 340 879 l 340 128 l 393 65 q 403 40 403 53 q 391 13 403 25 q 364 1 379 1 l 81 1 q 53 13 65 1 q 42 40 42 25 q 51 65 42 53 l 104 128 l 104 879 l 51 943 q 42 968 42 956 q 53 995 42 983 q 81 1007 65 1007 l 364 1007 l 364 1007 m 433 1344 q 456 1328 450 1344 q 451 1300 463 1313 l 264 1114 q 217 1094 244 1094 l 133 1094 q 112 1106 119 1094 q 110 1131 104 1118 l 183 1303 q 209 1333 192 1322 q 246 1344 226 1344 l 433 1344 l 433 1344 z "},"":{"ha":444,"x_min":-61,"x_max":506,"o":"m 364 1007 q 391 995 379 1007 q 403 968 403 983 q 393 943 403 956 l 340 879 l 340 128 l 393 65 q 403 40 403 53 q 391 13 403 25 q 364 1 379 1 l 81 1 q 53 13 65 1 q 42 40 42 25 q 51 65 42 53 l 104 128 l 104 879 l 51 943 q 42 968 42 956 q 53 995 42 983 q 81 1007 65 1007 l 364 1007 l 364 1007 m 499 1128 q 500 1106 506 1117 q 482 1094 494 1094 l 358 1094 q 325 1113 336 1094 l 222 1261 l 121 1113 q 86 1094 107 1094 l -36 1094 q -56 1106 -50 1094 q -53 1128 -61 1117 l 118 1358 q 151 1375 132 1375 l 293 1375 q 326 1358 313 1375 l 499 1128 z "},"":{"ha":444,"x_min":-42,"x_max":488,"o":"m 364 1007 q 391 995 379 1007 q 403 968 403 983 q 393 943 403 956 l 340 879 l 340 128 l 393 65 q 403 40 403 53 q 391 13 403 25 q 364 1 379 1 l 81 1 q 53 13 65 1 q 42 40 42 25 q 51 65 42 53 l 104 128 l 104 879 l 51 943 q 42 968 42 956 q 53 995 42 983 q 81 1007 65 1007 l 364 1007 l 364 1007 m 186 1208 q 153 1128 186 1161 q 72 1094 119 1094 q -8 1128 25 1094 q -42 1208 -42 1161 q -8 1290 -42 1257 q 72 1324 25 1324 q 153 1290 119 1324 q 186 1208 186 1257 m 374 1324 q 454 1290 421 1324 q 488 1208 488 1257 q 454 1128 488 1161 q 374 1094 421 1094 q 292 1128 325 1094 q 260 1208 260 1161 q 292 1290 260 1257 q 374 1324 325 1324 z "},"":{"ha":957,"x_min":-25,"x_max":915,"o":"m 383 1007 q 649 963 546 1007 q 812 847 753 918 q 893 685 871 775 q 915 504 915 596 q 893 323 915 413 q 812 162 871 233 q 649 46 753 90 q 383 1 546 1 l 81 1 q 53 13 64 1 q 42 40 42 25 q 50 65 42 54 l 103 128 l 103 879 l 50 943 q 42 968 42 953 q 53 995 42 983 q 81 1007 64 1007 l 383 1007 m 403 113 q 526 142 475 113 q 607 223 576 171 q 651 347 638 275 q 665 504 665 418 q 651 662 665 590 q 607 785 638 733 q 526 867 576 838 q 403 896 475 896 l 339 896 l 339 113 l 403 113 m 508 454 q 497 425 508 438 q 467 413 485 413 l 17 413 q -12 425 0 413 q -25 454 -25 438 l -25 531 q -12 560 -25 549 q 17 572 0 572 l 467 572 q 497 560 485 572 q 508 531 508 549 l 508 454 z "},"":{"ha":972,"x_min":42,"x_max":931,"o":"m 892 1007 q 919 995 908 1007 q 931 968 931 983 q 922 943 931 953 l 869 879 l 869 121 q 831 26 869 65 q 736 -12 792 -12 q 670 5 700 -12 q 622 53 640 22 l 229 713 l 229 128 l 282 65 q 292 40 292 53 q 280 13 292 25 q 253 1 268 1 l 81 1 q 53 13 65 1 q 42 40 42 25 q 51 65 42 53 l 104 128 l 104 879 l 51 943 q 42 968 42 956 q 53 995 42 983 q 81 1007 65 1007 l 342 1007 q 384 996 365 1007 q 414 965 403 985 l 744 403 l 744 879 l 690 943 q 682 968 682 953 q 693 995 682 983 q 721 1007 704 1007 l 892 1007 l 892 1007 m 621 1351 q 689 1328 660 1351 q 738 1273 718 1306 q 771 1206 758 1240 q 789 1146 783 1171 q 787 1120 793 1132 q 768 1103 781 1108 q 744 1099 757 1097 q 724 1113 732 1101 q 672 1156 704 1135 q 604 1178 640 1178 q 541 1163 569 1178 q 483 1131 513 1149 q 422 1098 454 1113 q 350 1083 390 1083 q 285 1104 313 1083 q 236 1156 257 1125 q 202 1219 215 1186 q 182 1276 189 1253 q 184 1306 178 1292 q 204 1328 190 1321 l 206 1328 q 234 1331 219 1335 q 258 1317 249 1328 q 304 1272 275 1294 q 372 1249 333 1249 q 432 1265 404 1249 q 488 1300 460 1281 q 549 1335 517 1319 q 621 1351 581 1351 z "},"":{"ha":1033,"x_min":42,"x_max":992,"o":"m 517 1014 q 665 989 583 1014 q 820 905 747 964 q 942 748 893 846 q 992 504 992 650 q 942 260 992 358 q 820 103 893 163 q 665 19 747 44 q 517 -6 583 -6 q 368 19 450 -6 q 213 103 286 44 q 91 260 140 163 q 42 504 42 358 q 91 748 42 650 q 213 905 140 846 q 368 989 286 964 q 517 1014 450 1014 m 596 128 q 664 159 631 135 q 719 233 697 183 q 744 358 740 282 q 724 547 747 435 q 665 728 700 660 q 591 833 631 797 q 512 878 551 869 q 438 881 472 888 q 369 848 403 872 q 315 775 336 824 q 290 649 293 726 q 310 460 286 572 q 368 279 333 347 q 442 175 403 211 q 522 130 482 139 q 596 128 561 121 m 574 1131 q 573 1106 581 1118 q 550 1094 565 1094 l 467 1094 q 419 1114 439 1094 l 233 1300 q 227 1328 221 1313 q 251 1344 233 1344 l 438 1344 q 475 1333 458 1344 q 500 1303 492 1322 l 574 1131 z "},"":{"ha":1033,"x_min":42,"x_max":992,"o":"m 517 1014 q 665 989 583 1014 q 820 905 747 964 q 942 748 893 846 q 992 504 992 650 q 942 260 992 358 q 820 103 893 163 q 665 19 747 44 q 517 -6 583 -6 q 368 19 450 -6 q 213 103 286 44 q 91 260 140 163 q 42 504 42 358 q 91 748 42 650 q 213 905 140 846 q 368 989 286 964 q 517 1014 450 1014 m 596 128 q 664 159 631 135 q 719 233 697 183 q 744 358 740 282 q 724 547 747 435 q 665 728 700 660 q 591 833 631 797 q 512 878 551 869 q 438 881 472 888 q 369 848 403 872 q 315 775 336 824 q 290 649 293 726 q 310 460 286 572 q 368 279 333 347 q 442 175 403 211 q 522 130 482 139 q 596 128 561 121 m 713 1344 q 735 1328 729 1344 q 731 1300 742 1313 l 543 1114 q 496 1094 524 1094 l 413 1094 q 391 1106 399 1094 q 389 1131 383 1118 l 463 1303 q 488 1333 471 1322 q 525 1344 506 1344 l 713 1344 l 713 1344 z "},"":{"ha":1033,"x_min":42,"x_max":992,"o":"m 517 1014 q 665 989 583 1014 q 820 905 747 964 q 942 748 893 846 q 992 504 992 650 q 942 260 992 358 q 820 103 893 163 q 665 19 747 44 q 517 -6 583 -6 q 368 19 450 -6 q 213 103 286 44 q 91 260 140 163 q 42 504 42 358 q 91 748 42 650 q 213 905 140 846 q 368 989 286 964 q 517 1014 450 1014 m 596 128 q 664 159 631 135 q 719 233 697 183 q 744 358 740 282 q 724 547 747 435 q 665 728 700 660 q 591 833 631 797 q 512 878 551 869 q 438 881 472 888 q 369 848 403 872 q 315 775 336 824 q 290 649 293 726 q 310 460 286 572 q 368 279 333 347 q 442 175 403 211 q 522 130 482 139 q 596 128 561 121 m 793 1128 q 794 1106 800 1117 q 776 1094 789 1094 l 653 1094 q 619 1113 631 1094 l 517 1261 l 415 1113 q 381 1094 401 1094 l 258 1094 q 239 1106 244 1094 q 242 1128 233 1117 l 413 1358 q 446 1375 426 1375 l 588 1375 q 621 1358 607 1375 l 793 1128 z "},"":{"ha":1033,"x_min":42,"x_max":992,"o":"m 517 1014 q 665 989 583 1014 q 820 905 747 964 q 942 748 893 846 q 992 504 992 650 q 942 260 992 358 q 820 103 893 163 q 665 19 747 44 q 517 -6 583 -6 q 368 19 450 -6 q 213 103 286 44 q 91 260 140 163 q 42 504 42 358 q 91 748 42 650 q 213 905 140 846 q 368 989 286 964 q 517 1014 450 1014 m 596 128 q 664 159 631 135 q 719 233 697 183 q 744 358 740 282 q 724 547 747 435 q 665 728 700 660 q 591 833 631 797 q 512 878 551 869 q 438 881 472 888 q 369 848 403 872 q 315 775 336 824 q 290 649 293 726 q 310 460 286 572 q 368 279 333 347 q 442 175 403 211 q 522 130 482 139 q 596 128 561 121 m 651 1351 q 719 1328 690 1351 q 769 1273 749 1306 q 801 1206 789 1240 q 819 1146 814 1171 q 817 1120 824 1132 q 799 1103 811 1108 q 775 1099 788 1097 q 754 1113 763 1101 q 703 1156 735 1135 q 635 1178 671 1178 q 572 1163 600 1178 q 514 1131 543 1149 q 453 1098 485 1113 q 381 1083 421 1083 q 315 1104 343 1083 q 267 1156 288 1125 q 233 1219 246 1186 q 213 1276 219 1253 q 215 1306 208 1292 q 235 1328 221 1321 l 236 1328 q 265 1331 250 1335 q 289 1317 279 1328 q 335 1272 306 1294 q 403 1249 364 1249 q 463 1265 435 1249 q 519 1300 490 1281 q 579 1335 547 1319 q 651 1351 611 1351 z "},"":{"ha":1033,"x_min":42,"x_max":992,"o":"m 517 1014 q 665 989 583 1014 q 820 905 747 964 q 942 748 893 846 q 992 504 992 650 q 942 260 992 358 q 820 103 893 163 q 665 19 747 44 q 517 -6 583 -6 q 368 19 450 -6 q 213 103 286 44 q 91 260 140 163 q 42 504 42 358 q 91 748 42 650 q 213 905 140 846 q 368 989 286 964 q 517 1014 450 1014 m 596 128 q 664 159 631 135 q 719 233 697 183 q 744 358 740 282 q 724 547 747 435 q 665 728 700 660 q 591 833 631 797 q 512 878 551 869 q 438 881 472 888 q 369 848 403 872 q 315 775 336 824 q 290 649 293 726 q 310 460 286 572 q 368 279 333 347 q 442 175 403 211 q 522 130 482 139 q 596 128 561 121 m 479 1208 q 446 1128 479 1161 q 365 1094 413 1094 q 285 1128 318 1094 q 251 1208 251 1161 q 285 1290 251 1257 q 365 1324 318 1324 q 446 1290 413 1324 q 479 1208 479 1257 m 667 1324 q 747 1290 714 1324 q 781 1208 781 1257 q 747 1128 781 1161 q 667 1094 714 1094 q 585 1128 618 1094 q 553 1208 553 1161 q 585 1290 553 1257 q 667 1324 618 1324 z "},"":{"ha":994,"x_min":42,"x_max":953,"o":"m 914 1007 q 942 995 931 1007 q 953 968 953 983 q 944 943 953 953 l 892 879 l 892 364 q 869 211 892 281 q 801 92 847 142 q 681 15 754 43 q 506 -12 607 -12 q 327 15 403 -12 q 201 90 251 42 q 127 206 151 139 q 103 350 103 272 l 103 879 l 50 943 q 42 968 42 953 q 53 995 42 983 q 81 1007 64 1007 l 363 1007 q 390 995 379 1007 q 401 968 401 983 q 392 943 401 953 l 339 879 l 339 322 q 394 168 339 226 q 553 110 449 110 q 712 168 657 110 q 767 322 767 226 l 767 879 l 714 943 q 704 968 704 953 q 716 995 704 983 q 743 1007 728 1007 l 914 1007 l 914 1007 m 608 1131 q 608 1106 615 1118 q 585 1094 600 1094 l 501 1094 q 454 1114 474 1094 l 268 1300 q 262 1328 256 1313 q 286 1344 268 1344 l 472 1344 q 510 1333 493 1344 q 535 1303 526 1322 l 608 1131 z "},"":{"ha":994,"x_min":42,"x_max":953,"o":"m 914 1007 q 942 995 931 1007 q 953 968 953 983 q 944 943 953 953 l 892 879 l 892 364 q 869 211 892 281 q 801 92 847 142 q 681 15 754 43 q 506 -12 607 -12 q 327 15 403 -12 q 201 90 251 42 q 127 206 151 139 q 103 350 103 272 l 103 879 l 50 943 q 42 968 42 953 q 53 995 42 983 q 81 1007 64 1007 l 363 1007 q 390 995 379 1007 q 401 968 401 983 q 392 943 401 953 l 339 879 l 339 322 q 394 168 339 226 q 553 110 449 110 q 712 168 657 110 q 767 322 767 226 l 767 879 l 714 943 q 704 968 704 953 q 716 995 704 983 q 743 1007 728 1007 l 914 1007 l 914 1007 m 756 1344 q 778 1328 772 1344 q 774 1300 785 1313 l 586 1114 q 539 1094 567 1094 l 456 1094 q 434 1106 442 1094 q 432 1131 426 1118 l 506 1303 q 531 1333 514 1322 q 568 1344 549 1344 l 756 1344 l 756 1344 z "},"":{"ha":994,"x_min":42,"x_max":953,"o":"m 914 1007 q 942 995 931 1007 q 953 968 953 983 q 944 943 953 953 l 892 879 l 892 364 q 869 211 892 281 q 801 92 847 142 q 681 15 754 43 q 506 -12 607 -12 q 327 15 403 -12 q 201 90 251 42 q 127 206 151 139 q 103 350 103 272 l 103 879 l 50 943 q 42 968 42 953 q 53 995 42 983 q 81 1007 64 1007 l 363 1007 q 390 995 379 1007 q 401 968 401 983 q 392 943 401 953 l 339 879 l 339 322 q 394 168 339 226 q 553 110 449 110 q 712 168 657 110 q 767 322 767 226 l 767 879 l 714 943 q 704 968 704 953 q 716 995 704 983 q 743 1007 728 1007 l 914 1007 l 914 1007 m 774 1128 q 775 1106 781 1117 q 757 1094 769 1094 l 633 1094 q 600 1113 611 1094 l 497 1261 l 396 1113 q 361 1094 382 1094 l 239 1094 q 219 1106 225 1094 q 222 1128 214 1117 l 393 1358 q 426 1375 407 1375 l 568 1375 q 601 1358 588 1375 l 774 1128 z "},"":{"ha":994,"x_min":42,"x_max":953,"o":"m 914 1007 q 942 995 931 1007 q 953 968 953 983 q 944 943 953 953 l 892 879 l 892 364 q 869 211 892 281 q 801 92 847 142 q 681 15 754 43 q 506 -12 607 -12 q 327 15 403 -12 q 201 90 251 42 q 127 206 151 139 q 103 350 103 272 l 103 879 l 50 943 q 42 968 42 953 q 53 995 42 983 q 81 1007 64 1007 l 363 1007 q 390 995 379 1007 q 401 968 401 983 q 392 943 401 953 l 339 879 l 339 322 q 394 168 339 226 q 553 110 449 110 q 712 168 657 110 q 767 322 767 226 l 767 879 l 714 943 q 704 968 704 953 q 716 995 704 983 q 743 1007 728 1007 l 914 1007 l 914 1007 m 460 1208 q 426 1128 460 1161 q 346 1094 393 1094 q 265 1128 299 1094 q 232 1208 232 1161 q 265 1290 232 1257 q 346 1324 299 1324 q 426 1290 393 1324 q 460 1208 460 1257 m 647 1324 q 728 1290 694 1324 q 761 1208 761 1257 q 728 1128 761 1161 q 647 1094 694 1094 q 566 1128 599 1094 q 533 1208 533 1161 q 566 1290 533 1257 q 647 1324 599 1324 z "},"":{"ha":1003,"x_min":14,"x_max":989,"o":"m 954 1007 q 979 997 969 1007 q 989 971 989 986 q 975 943 989 954 l 871 869 l 632 482 l 632 128 l 685 65 q 694 40 694 56 q 683 13 694 25 q 656 1 671 1 l 374 1 q 346 13 357 1 q 335 40 335 25 q 343 65 335 54 l 396 128 l 396 440 l 132 869 l 29 943 q 14 971 14 954 q 24 997 14 986 q 50 1007 35 1007 l 463 1007 q 489 996 478 1007 q 500 969 500 985 q 488 942 500 951 l 426 882 l 575 624 l 736 885 l 676 942 q 665 969 665 953 q 676 996 665 985 q 703 1007 688 1007 l 954 1007 l 954 1007 m 772 1344 q 795 1328 789 1344 q 790 1300 801 1313 l 603 1114 q 556 1094 583 1094 l 472 1094 q 451 1106 458 1094 q 449 1131 443 1118 l 522 1303 q 548 1333 531 1322 q 585 1344 565 1344 l 772 1344 l 772 1344 z "},"":{"ha":828,"x_min":42,"x_max":786,"o":"m 776 65 q 786 40 786 56 q 774 13 786 25 q 747 1 763 1 l 589 1 q 525 24 553 1 q 490 82 497 47 q 394 17 450 46 q 268 -12 338 -12 q 179 -1 221 -12 q 107 34 138 11 q 59 92 76 57 q 42 172 42 126 q 65 258 42 219 q 128 324 89 296 q 215 374 167 353 q 314 408 264 394 q 409 431 364 422 q 488 443 454 439 l 488 488 q 478 570 488 536 q 451 625 468 604 q 414 656 435 646 q 371 665 393 665 q 330 655 347 665 q 301 628 313 644 q 283 588 290 611 q 272 540 276 565 q 243 486 268 508 q 185 464 218 464 q 136 478 157 464 q 104 513 115 492 q 94 558 93 533 q 113 606 96 583 q 235 697 157 667 q 394 728 313 728 q 526 715 465 728 q 630 669 586 701 q 699 583 674 636 q 724 450 724 529 l 724 128 l 776 65 m 292 196 q 371 96 292 96 q 432 115 401 96 q 488 157 463 133 l 488 383 q 419 365 454 378 q 356 331 385 353 q 310 275 328 308 q 292 196 292 242 m 611 1067 q 634 1051 628 1067 q 629 1022 640 1035 l 442 836 q 394 817 422 817 l 311 817 q 290 828 297 817 q 288 853 282 840 l 361 1025 q 387 1056 369 1044 q 424 1067 404 1067 l 611 1067 l 611 1067 z "},"":{"ha":828,"x_min":42,"x_max":786,"o":"m 776 65 q 786 40 786 56 q 774 13 786 25 q 747 1 763 1 l 589 1 q 525 24 553 1 q 490 82 497 47 q 394 17 450 46 q 268 -12 338 -12 q 179 -1 221 -12 q 107 34 138 11 q 59 92 76 57 q 42 172 42 126 q 65 258 42 219 q 128 324 89 296 q 215 374 167 353 q 314 408 264 394 q 409 431 364 422 q 488 443 454 439 l 488 488 q 478 570 488 536 q 451 625 468 604 q 414 656 435 646 q 371 665 393 665 q 330 655 347 665 q 301 628 313 644 q 283 588 290 611 q 272 540 276 565 q 243 486 268 508 q 185 464 218 464 q 136 478 157 464 q 104 513 115 492 q 94 558 93 533 q 113 606 96 583 q 235 697 157 667 q 394 728 313 728 q 526 715 465 728 q 630 669 586 701 q 699 583 674 636 q 724 450 724 529 l 724 128 l 776 65 m 292 196 q 371 96 292 96 q 432 115 401 96 q 488 157 463 133 l 488 383 q 419 365 454 378 q 356 331 385 353 q 310 275 328 308 q 292 196 292 242 m 690 850 q 692 828 697 839 q 674 817 686 817 l 550 817 q 517 835 528 817 l 414 983 l 313 835 q 278 817 299 817 l 156 817 q 136 828 142 817 q 139 850 131 839 l 310 1081 q 343 1097 324 1097 l 485 1097 q 518 1081 504 1097 l 690 850 z "},"":{"ha":828,"x_min":42,"x_max":786,"o":"m 776 65 q 786 40 786 56 q 774 13 786 25 q 747 1 763 1 l 589 1 q 525 24 553 1 q 490 82 497 47 q 394 17 450 46 q 268 -12 338 -12 q 179 -1 221 -12 q 107 34 138 11 q 59 92 76 57 q 42 172 42 126 q 65 258 42 219 q 128 324 89 296 q 215 374 167 353 q 314 408 264 394 q 409 431 364 422 q 488 443 454 439 l 488 488 q 478 570 488 536 q 451 625 468 604 q 414 656 435 646 q 371 665 393 665 q 330 655 347 665 q 301 628 313 644 q 283 588 290 611 q 272 540 276 565 q 243 486 268 508 q 185 464 218 464 q 136 478 157 464 q 104 513 115 492 q 94 558 93 533 q 113 606 96 583 q 235 697 157 667 q 394 728 313 728 q 526 715 465 728 q 630 669 586 701 q 699 583 674 636 q 724 450 724 529 l 724 128 l 776 65 m 292 196 q 371 96 292 96 q 432 115 401 96 q 488 157 463 133 l 488 383 q 419 365 454 378 q 356 331 385 353 q 310 275 328 308 q 292 196 292 242 m 549 1074 q 617 1051 588 1074 q 666 995 646 1028 q 699 928 686 963 q 717 868 711 893 q 715 842 721 854 q 696 825 708 831 q 672 822 685 819 q 651 835 660 824 q 600 878 632 857 q 532 900 568 900 q 469 885 497 900 q 411 853 440 871 q 350 820 382 835 q 278 806 318 806 q 213 826 240 806 q 164 878 185 847 q 130 942 143 908 q 110 999 117 975 q 112 1028 106 1014 q 132 1050 118 1043 l 133 1050 q 162 1053 147 1057 q 186 1039 176 1050 q 232 994 203 1017 q 300 971 261 971 q 360 987 332 971 q 416 1022 388 1003 q 476 1058 444 1042 q 549 1074 508 1074 z "},"":{"ha":828,"x_min":42,"x_max":786,"o":"m 776 65 q 786 40 786 56 q 774 13 786 25 q 747 1 763 1 l 589 1 q 525 24 553 1 q 490 82 497 47 q 394 17 450 46 q 268 -12 338 -12 q 179 -1 221 -12 q 107 34 138 11 q 59 92 76 57 q 42 172 42 126 q 65 258 42 219 q 128 324 89 296 q 215 374 167 353 q 314 408 264 394 q 409 431 364 422 q 488 443 454 439 l 488 488 q 478 570 488 536 q 451 625 468 604 q 414 656 435 646 q 371 665 393 665 q 330 655 347 665 q 301 628 313 644 q 283 588 290 611 q 272 540 276 565 q 243 486 268 508 q 185 464 218 464 q 136 478 157 464 q 104 513 115 492 q 94 558 93 533 q 113 606 96 583 q 235 697 157 667 q 394 728 313 728 q 526 715 465 728 q 630 669 586 701 q 699 583 674 636 q 724 450 724 529 l 724 128 l 776 65 m 292 196 q 371 96 292 96 q 432 115 401 96 q 488 157 463 133 l 488 383 q 419 365 454 378 q 356 331 385 353 q 310 275 328 308 q 292 196 292 242 m 376 931 q 343 850 376 883 q 263 817 310 817 q 182 850 215 817 q 149 931 149 883 q 182 1013 149 979 q 263 1046 215 1046 q 343 1013 310 1046 q 376 931 376 979 m 564 1046 q 644 1013 611 1046 q 678 931 678 979 q 644 850 678 883 q 564 817 611 817 q 483 850 515 817 q 450 931 450 883 q 483 1013 450 979 q 564 1046 515 1046 z "},"":{"ha":828,"x_min":42,"x_max":786,"o":"m 776 65 q 786 40 786 56 q 774 13 786 25 q 747 1 763 1 l 589 1 q 525 24 553 1 q 490 82 497 47 q 394 17 450 46 q 268 -12 338 -12 q 179 -1 221 -12 q 107 34 138 11 q 59 92 76 57 q 42 172 42 126 q 65 258 42 219 q 128 324 89 296 q 215 374 167 353 q 314 408 264 394 q 409 431 364 422 q 488 443 454 439 l 488 488 q 478 570 488 536 q 451 625 468 604 q 414 656 435 646 q 371 665 393 665 q 330 655 347 665 q 301 628 313 644 q 283 588 290 611 q 272 540 276 565 q 243 486 268 508 q 185 464 218 464 q 136 478 157 464 q 104 513 115 492 q 94 558 93 533 q 113 606 96 583 q 235 697 157 667 q 394 728 313 728 q 526 715 465 728 q 630 669 586 701 q 699 583 674 636 q 724 450 724 529 l 724 128 l 776 65 m 292 196 q 371 96 292 96 q 432 115 401 96 q 488 157 463 133 l 488 383 q 419 365 454 378 q 356 331 385 353 q 310 275 328 308 q 292 196 292 242 m 414 1146 q 477 1133 447 1146 q 529 1097 507 1119 q 565 1045 551 1075 q 578 982 578 1015 q 565 917 578 947 q 529 865 551 888 q 477 830 507 843 q 414 817 447 817 q 351 830 381 817 q 299 865 321 843 q 263 917 276 888 q 250 982 250 947 q 263 1045 250 1015 q 299 1097 276 1075 q 351 1133 321 1119 q 414 1146 381 1146 m 414 913 q 451 933 436 913 q 465 982 465 953 q 451 1030 465 1010 q 414 1050 436 1050 q 377 1030 392 1050 q 363 982 363 1010 q 377 933 363 953 q 414 913 392 913 z "},"":{"ha":783,"x_min":42,"x_max":743,"o":"m 721 247 q 739 226 735 240 q 736 199 743 213 q 699 138 724 174 q 633 68 674 101 q 537 11 593 35 q 406 -12 481 -12 q 255 15 322 -12 q 140 91 188 42 q 67 208 93 140 q 42 357 42 275 q 69 506 42 438 q 147 624 97 575 q 267 700 197 672 q 419 728 336 728 q 584 698 510 728 q 710 596 658 668 q 731 544 726 572 q 726 491 735 517 q 699 444 718 465 q 651 414 679 424 q 604 406 628 406 q 560 416 581 407 q 522 442 539 425 q 497 483 506 460 q 462 560 479 529 q 426 608 444 590 q 390 633 408 626 q 354 640 372 640 q 290 603 314 640 q 258 511 265 567 q 260 392 250 456 q 298 272 269 328 q 376 180 326 217 q 496 143 425 143 q 557 153 529 143 q 608 178 585 164 q 647 210 631 193 q 675 239 664 226 q 696 251 683 249 q 721 247 708 254 m 469 -101 q 608 -149 554 -114 q 684 -230 663 -185 q 694 -325 706 -275 q 634 -417 682 -375 q 501 -487 586 -458 q 290 -519 415 -517 q 270 -511 279 -519 q 261 -492 261 -503 l 261 -411 q 269 -392 261 -400 q 289 -383 278 -383 q 443 -349 396 -379 q 492 -283 490 -318 q 455 -220 493 -249 q 354 -192 417 -192 l 354 56 l 469 56 l 469 -101 l 469 -101 z "},"":{"ha":782,"x_min":42,"x_max":743,"o":"m 719 247 q 738 226 733 240 q 736 199 743 213 q 698 138 724 174 q 633 68 672 101 q 536 11 593 35 q 404 -12 479 -12 q 253 15 321 -12 q 140 91 186 42 q 67 208 93 140 q 42 357 42 275 q 69 506 42 438 q 147 624 97 575 q 265 700 196 672 q 418 728 335 728 q 599 668 517 728 q 725 478 682 608 q 723 447 731 463 q 700 426 715 432 l 699 425 l 288 274 q 369 181 318 218 q 496 143 419 143 q 557 153 529 143 q 608 178 585 164 q 647 210 631 193 q 675 239 664 226 q 695 251 682 249 q 719 247 708 254 m 317 633 q 274 596 292 625 q 249 526 257 567 q 244 439 242 486 q 260 344 246 392 l 524 443 q 422 606 478 563 q 317 633 367 650 m 628 1067 q 651 1051 644 1067 q 646 1022 657 1035 l 458 836 q 411 817 439 817 l 328 817 q 306 828 314 817 q 304 853 299 840 l 378 1025 q 403 1056 386 1044 q 440 1067 421 1067 l 628 1067 l 628 1067 z "},"":{"ha":782,"x_min":42,"x_max":743,"o":"m 719 247 q 738 226 733 240 q 736 199 743 213 q 698 138 724 174 q 633 68 672 101 q 536 11 593 35 q 404 -12 479 -12 q 253 15 321 -12 q 140 91 186 42 q 67 208 93 140 q 42 357 42 275 q 69 506 42 438 q 147 624 97 575 q 265 700 196 672 q 418 728 335 728 q 599 668 517 728 q 725 478 682 608 q 723 447 731 463 q 700 426 715 432 l 699 425 l 288 274 q 369 181 318 218 q 496 143 419 143 q 557 153 529 143 q 608 178 585 164 q 647 210 631 193 q 675 239 664 226 q 695 251 682 249 q 719 247 708 254 m 317 633 q 274 596 292 625 q 249 526 257 567 q 244 439 242 486 q 260 344 246 392 l 524 443 q 422 606 478 563 q 317 633 367 650 m 454 853 q 453 828 461 840 q 431 817 446 817 l 347 817 q 300 836 319 817 l 114 1022 q 108 1051 101 1035 q 132 1067 114 1067 l 318 1067 q 356 1056 339 1067 q 381 1025 372 1044 l 454 853 z "},"":{"ha":782,"x_min":42,"x_max":743,"o":"m 719 247 q 738 226 733 240 q 736 199 743 213 q 698 138 724 174 q 633 68 672 101 q 536 11 593 35 q 404 -12 479 -12 q 253 15 321 -12 q 140 91 186 42 q 67 208 93 140 q 42 357 42 275 q 69 506 42 438 q 147 624 97 575 q 265 700 196 672 q 418 728 335 728 q 599 668 517 728 q 725 478 682 608 q 723 447 731 463 q 700 426 715 432 l 699 425 l 288 274 q 369 181 318 218 q 496 143 419 143 q 557 153 529 143 q 608 178 585 164 q 647 210 631 193 q 675 239 664 226 q 695 251 682 249 q 719 247 708 254 m 317 633 q 274 596 292 625 q 249 526 257 567 q 244 439 242 486 q 260 344 246 392 l 524 443 q 422 606 478 563 q 317 633 367 650 m 667 850 q 668 828 674 839 q 650 817 663 817 l 526 817 q 493 835 504 817 l 390 983 l 289 835 q 254 817 275 817 l 132 817 q 113 828 118 817 q 115 850 107 839 l 286 1081 q 319 1097 300 1097 l 461 1097 q 494 1081 481 1097 l 667 850 z "},"":{"ha":782,"x_min":42,"x_max":743,"o":"m 719 247 q 738 226 733 240 q 736 199 743 213 q 698 138 724 174 q 633 68 672 101 q 536 11 593 35 q 404 -12 479 -12 q 253 15 321 -12 q 140 91 186 42 q 67 208 93 140 q 42 357 42 275 q 69 506 42 438 q 147 624 97 575 q 265 700 196 672 q 418 728 335 728 q 599 668 517 728 q 725 478 682 608 q 723 447 731 463 q 700 426 715 432 l 699 425 l 288 274 q 369 181 318 218 q 496 143 419 143 q 557 153 529 143 q 608 178 585 164 q 647 210 631 193 q 675 239 664 226 q 695 251 682 249 q 719 247 708 254 m 317 633 q 274 596 292 625 q 249 526 257 567 q 244 439 242 486 q 260 344 246 392 l 524 443 q 422 606 478 563 q 317 633 367 650 m 354 931 q 321 850 354 883 q 240 817 288 817 q 160 850 193 817 q 126 931 126 883 q 160 1013 126 979 q 240 1046 193 1046 q 321 1013 288 1046 q 354 931 354 979 m 542 1046 q 622 1013 589 1046 q 656 931 656 979 q 622 850 656 883 q 542 817 589 817 q 460 850 493 817 q 428 931 428 883 q 460 1013 428 979 q 542 1046 493 1046 z "},"":{"ha":443,"x_min":-53,"x_max":401,"o":"m 393 65 q 401 40 401 54 q 390 13 401 25 q 363 1 379 1 l 81 1 q 53 13 65 1 q 42 40 42 25 q 51 65 42 56 l 104 128 l 104 549 l 57 590 q 42 624 42 603 q 74 667 42 656 l 104 675 l 272 726 q 317 719 299 733 q 340 676 340 704 l 340 128 l 393 65 m 300 853 q 299 828 307 840 q 276 817 292 817 l 193 817 q 146 836 165 817 l -40 1022 q -47 1051 -53 1035 q -22 1067 -40 1067 l 164 1067 q 201 1056 185 1067 q 226 1025 218 1044 l 300 853 z "},"":{"ha":443,"x_min":42,"x_max":489,"o":"m 393 65 q 401 40 401 54 q 390 13 401 25 q 363 1 379 1 l 81 1 q 53 13 65 1 q 42 40 42 25 q 51 65 42 56 l 104 128 l 104 549 l 57 590 q 42 624 42 603 q 74 667 42 656 l 104 675 l 272 726 q 317 719 299 733 q 340 676 340 704 l 340 128 l 393 65 m 460 1067 q 483 1051 476 1067 q 478 1022 489 1035 l 290 836 q 243 817 271 817 l 160 817 q 138 828 146 817 q 136 853 131 840 l 210 1025 q 235 1056 218 1044 q 272 1067 253 1067 l 460 1067 l 460 1067 z "},"":{"ha":443,"x_min":-61,"x_max":506,"o":"m 393 65 q 401 40 401 54 q 390 13 401 25 q 363 1 379 1 l 81 1 q 53 13 65 1 q 42 40 42 25 q 51 65 42 56 l 104 128 l 104 549 l 57 590 q 42 624 42 603 q 74 667 42 656 l 104 675 l 272 726 q 317 719 299 733 q 340 676 340 704 l 340 128 l 393 65 m 499 850 q 500 828 506 839 q 482 817 494 817 l 358 817 q 325 835 336 817 l 222 983 l 121 835 q 86 817 107 817 l -36 817 q -56 828 -50 817 q -53 850 -61 839 l 118 1081 q 151 1097 132 1097 l 293 1097 q 326 1081 313 1097 l 499 850 z "},"":{"ha":443,"x_min":-43,"x_max":486,"o":"m 393 65 q 401 40 401 54 q 390 13 401 25 q 363 1 379 1 l 81 1 q 53 13 65 1 q 42 40 42 25 q 51 65 42 56 l 104 128 l 104 549 l 57 590 q 42 624 42 603 q 74 667 42 656 l 104 675 l 272 726 q 317 719 299 733 q 340 676 340 704 l 340 128 l 393 65 m 185 931 q 151 850 185 883 q 71 817 118 817 q -10 850 24 817 q -43 931 -43 883 q -10 1013 -43 979 q 71 1046 24 1046 q 151 1013 118 1046 q 185 931 185 979 m 372 1046 q 453 1013 419 1046 q 486 931 486 979 q 453 850 486 883 q 372 817 419 817 q 291 850 324 817 q 258 931 258 883 q 291 1013 258 979 q 372 1046 324 1046 z "},"":{"ha":863,"x_min":42,"x_max":821,"o":"m 811 65 q 821 40 821 56 q 809 13 821 25 q 782 1 797 1 l 500 1 q 472 13 483 1 q 461 40 461 25 q 469 65 461 54 l 522 128 l 522 413 q 506 586 522 536 q 443 636 489 636 q 389 615 415 636 q 340 567 363 594 l 340 128 l 393 65 q 403 40 403 53 q 391 13 403 25 q 364 1 379 1 l 81 1 q 53 13 65 1 q 42 40 42 25 q 51 65 42 53 l 104 128 l 104 549 l 57 590 q 42 624 42 603 q 74 667 42 656 l 104 675 l 272 726 q 317 719 299 733 q 340 676 340 704 l 340 649 q 416 703 372 681 q 514 726 460 726 q 596 713 553 726 q 675 668 639 700 q 735 581 711 636 q 758 440 758 525 l 758 128 l 811 65 m 567 1074 q 635 1051 606 1074 q 684 995 664 1028 q 717 928 704 963 q 735 868 729 893 q 733 842 739 854 q 714 825 726 831 q 690 822 703 819 q 669 835 678 824 q 618 878 650 857 q 550 900 586 900 q 487 885 515 900 q 429 853 458 871 q 368 820 400 835 q 296 806 336 806 q 231 826 258 806 q 182 878 203 847 q 148 942 161 908 q 128 999 135 975 q 130 1028 124 1014 q 150 1050 136 1043 l 151 1050 q 180 1053 165 1057 q 204 1039 194 1050 q 250 994 221 1017 q 318 971 279 971 q 378 987 350 971 q 434 1022 406 1003 q 494 1058 463 1042 q 567 1074 526 1074 z "},"":{"ha":838,"x_min":42,"x_max":796,"o":"m 418 728 q 571 700 501 728 q 690 624 640 672 q 768 506 740 575 q 796 357 796 438 q 768 208 796 275 q 690 91 740 140 q 571 15 640 42 q 418 -12 501 -12 q 265 15 335 -12 q 147 91 196 42 q 69 208 97 140 q 42 357 42 275 q 69 506 42 438 q 147 624 97 575 q 265 700 196 672 q 418 728 335 728 m 469 68 q 552 151 533 79 q 544 379 571 222 q 513 512 531 458 q 473 597 494 565 q 425 640 451 629 q 367 646 399 651 q 315 621 335 640 q 285 564 294 601 q 277 470 275 526 q 293 335 279 414 q 364 117 321 178 q 469 68 407 57 m 463 853 q 462 828 469 840 q 439 817 454 817 l 356 817 q 308 836 328 817 l 122 1022 q 116 1051 110 1035 q 140 1067 122 1067 l 326 1067 q 364 1056 347 1067 q 389 1025 381 1044 l 463 853 z "},"":{"ha":838,"x_min":42,"x_max":796,"o":"m 418 728 q 571 700 501 728 q 690 624 640 672 q 768 506 740 575 q 796 357 796 438 q 768 208 796 275 q 690 91 740 140 q 571 15 640 42 q 418 -12 501 -12 q 265 15 335 -12 q 147 91 196 42 q 69 208 97 140 q 42 357 42 275 q 69 506 42 438 q 147 624 97 575 q 265 700 196 672 q 418 728 335 728 m 469 68 q 552 151 533 79 q 544 379 571 222 q 513 512 531 458 q 473 597 494 565 q 425 640 451 629 q 367 646 399 651 q 315 621 335 640 q 285 564 294 601 q 277 470 275 526 q 293 335 279 414 q 364 117 321 178 q 469 68 407 57 m 636 1067 q 659 1051 653 1067 q 654 1022 665 1035 l 467 836 q 419 817 447 817 l 336 817 q 315 828 322 817 q 313 853 307 840 l 386 1025 q 412 1056 394 1044 q 449 1067 429 1067 l 636 1067 l 636 1067 z "},"":{"ha":838,"x_min":42,"x_max":796,"o":"m 418 728 q 571 700 501 728 q 690 624 640 672 q 768 506 740 575 q 796 357 796 438 q 768 208 796 275 q 690 91 740 140 q 571 15 640 42 q 418 -12 501 -12 q 265 15 335 -12 q 147 91 196 42 q 69 208 97 140 q 42 357 42 275 q 69 506 42 438 q 147 624 97 575 q 265 700 196 672 q 418 728 335 728 m 469 68 q 552 151 533 79 q 544 379 571 222 q 513 512 531 458 q 473 597 494 565 q 425 640 451 629 q 367 646 399 651 q 315 621 335 640 q 285 564 294 601 q 277 470 275 526 q 293 335 279 414 q 364 117 321 178 q 469 68 407 57 m 694 850 q 696 828 701 839 q 678 817 690 817 l 554 817 q 521 835 532 817 l 418 983 l 317 835 q 282 817 303 817 l 160 817 q 140 828 146 817 q 143 850 135 839 l 314 1081 q 347 1097 328 1097 l 489 1097 q 522 1081 508 1097 l 694 850 z "},"":{"ha":838,"x_min":42,"x_max":796,"o":"m 418 728 q 571 700 501 728 q 690 624 640 672 q 768 506 740 575 q 796 357 796 438 q 768 208 796 275 q 690 91 740 140 q 571 15 640 42 q 418 -12 501 -12 q 265 15 335 -12 q 147 91 196 42 q 69 208 97 140 q 42 357 42 275 q 69 506 42 438 q 147 624 97 575 q 265 700 196 672 q 418 728 335 728 m 469 68 q 552 151 533 79 q 544 379 571 222 q 513 512 531 458 q 473 597 494 565 q 425 640 451 629 q 367 646 399 651 q 315 621 335 640 q 285 564 294 601 q 277 470 275 526 q 293 335 279 414 q 364 117 321 178 q 469 68 407 57 m 554 1074 q 622 1051 593 1074 q 672 995 651 1028 q 704 928 692 963 q 722 868 717 893 q 720 842 726 854 q 701 825 714 831 q 678 822 690 819 q 657 835 665 824 q 606 878 638 857 q 538 900 574 900 q 474 885 503 900 q 417 853 446 871 q 356 820 388 835 q 283 806 324 806 q 218 826 246 806 q 169 878 190 847 q 135 942 149 908 q 115 999 122 975 q 117 1028 111 1014 q 138 1050 124 1043 l 139 1050 q 167 1053 153 1057 q 192 1039 182 1050 q 238 994 208 1017 q 306 971 267 971 q 365 987 338 971 q 422 1022 393 1003 q 482 1058 450 1042 q 554 1074 514 1074 z "},"":{"ha":838,"x_min":42,"x_max":796,"o":"m 418 728 q 571 700 501 728 q 690 624 640 672 q 768 506 740 575 q 796 357 796 438 q 768 208 796 275 q 690 91 740 140 q 571 15 640 42 q 418 -12 501 -12 q 265 15 335 -12 q 147 91 196 42 q 69 208 97 140 q 42 357 42 275 q 69 506 42 438 q 147 624 97 575 q 265 700 196 672 q 418 728 335 728 m 469 68 q 552 151 533 79 q 544 379 571 222 q 513 512 531 458 q 473 597 494 565 q 425 640 451 629 q 367 646 399 651 q 315 621 335 640 q 285 564 294 601 q 277 470 275 526 q 293 335 279 414 q 364 117 321 178 q 469 68 407 57 m 382 931 q 349 850 382 883 q 268 817 315 817 q 188 850 221 817 q 154 931 154 883 q 188 1013 154 979 q 268 1046 221 1046 q 349 1013 315 1046 q 382 931 382 979 m 569 1046 q 650 1013 617 1046 q 683 931 683 979 q 650 850 683 883 q 569 817 617 817 q 488 850 521 817 q 456 931 456 883 q 488 1013 456 979 q 569 1046 521 1046 z "},"":{"ha":864,"x_min":42,"x_max":822,"o":"m 806 125 q 821 94 819 111 q 813 66 822 79 q 789 47 804 53 l 590 -12 q 546 -6 565 -19 q 522 38 522 11 l 522 76 q 447 14 490 40 q 349 -12 404 -12 q 268 1 311 -12 q 188 46 225 14 q 128 133 151 78 q 104 274 104 189 l 104 600 l 51 663 q 42 688 42 675 q 53 715 42 703 q 81 726 65 726 l 299 726 q 328 715 317 726 q 340 685 340 703 l 340 301 q 344 198 340 239 q 357 132 347 157 q 381 97 367 107 q 419 86 396 86 q 475 109 449 86 q 522 163 501 132 l 522 600 l 469 663 q 461 688 461 672 q 472 715 461 703 q 500 726 483 726 l 717 726 q 747 715 735 726 q 758 685 758 703 l 758 165 l 806 125 l 806 125 m 536 853 q 535 828 543 840 q 513 817 528 817 l 429 817 q 382 836 401 817 l 196 1022 q 190 1051 183 1035 q 214 1067 196 1067 l 400 1067 q 438 1056 421 1067 q 463 1025 454 1044 l 536 853 z "},"":{"ha":864,"x_min":42,"x_max":822,"o":"m 806 125 q 821 94 819 111 q 813 66 822 79 q 789 47 804 53 l 590 -12 q 546 -6 565 -19 q 522 38 522 11 l 522 76 q 447 14 490 40 q 349 -12 404 -12 q 268 1 311 -12 q 188 46 225 14 q 128 133 151 78 q 104 274 104 189 l 104 600 l 51 663 q 42 688 42 675 q 53 715 42 703 q 81 726 65 726 l 299 726 q 328 715 317 726 q 340 685 340 703 l 340 301 q 344 198 340 239 q 357 132 347 157 q 381 97 367 107 q 419 86 396 86 q 475 109 449 86 q 522 163 501 132 l 522 600 l 469 663 q 461 688 461 672 q 472 715 461 703 q 500 726 483 726 l 717 726 q 747 715 735 726 q 758 685 758 703 l 758 165 l 806 125 l 806 125 m 649 1067 q 672 1051 665 1067 q 667 1022 678 1035 l 479 836 q 432 817 460 817 l 349 817 q 327 828 335 817 q 325 853 319 840 l 399 1025 q 424 1056 407 1044 q 461 1067 442 1067 l 649 1067 l 649 1067 z "},"":{"ha":864,"x_min":42,"x_max":822,"o":"m 806 125 q 821 94 819 111 q 813 66 822 79 q 789 47 804 53 l 590 -12 q 546 -6 565 -19 q 522 38 522 11 l 522 76 q 447 14 490 40 q 349 -12 404 -12 q 268 1 311 -12 q 188 46 225 14 q 128 133 151 78 q 104 274 104 189 l 104 600 l 51 663 q 42 688 42 675 q 53 715 42 703 q 81 726 65 726 l 299 726 q 328 715 317 726 q 340 685 340 703 l 340 301 q 344 198 340 239 q 357 132 347 157 q 381 97 367 107 q 419 86 396 86 q 475 109 449 86 q 522 163 501 132 l 522 600 l 469 663 q 461 688 461 672 q 472 715 461 703 q 500 726 483 726 l 717 726 q 747 715 735 726 q 758 685 758 703 l 758 165 l 806 125 l 806 125 m 708 850 q 710 828 715 839 q 692 817 704 817 l 568 817 q 535 835 546 817 l 432 983 l 331 835 q 296 817 317 817 l 174 817 q 154 828 160 817 q 157 850 149 839 l 328 1081 q 361 1097 342 1097 l 503 1097 q 536 1081 522 1097 l 708 850 z "},"":{"ha":864,"x_min":42,"x_max":822,"o":"m 806 125 q 821 94 819 111 q 813 66 822 79 q 789 47 804 53 l 590 -12 q 546 -6 565 -19 q 522 38 522 11 l 522 76 q 447 14 490 40 q 349 -12 404 -12 q 268 1 311 -12 q 188 46 225 14 q 128 133 151 78 q 104 274 104 189 l 104 600 l 51 663 q 42 688 42 675 q 53 715 42 703 q 81 726 65 726 l 299 726 q 328 715 317 726 q 340 685 340 703 l 340 301 q 344 198 340 239 q 357 132 347 157 q 381 97 367 107 q 419 86 396 86 q 475 109 449 86 q 522 163 501 132 l 522 600 l 469 663 q 461 688 461 672 q 472 715 461 703 q 500 726 483 726 l 717 726 q 747 715 735 726 q 758 685 758 703 l 758 165 l 806 125 l 806 125 m 394 931 q 361 850 394 883 q 281 817 328 817 q 200 850 233 817 q 167 931 167 883 q 200 1013 167 979 q 281 1046 233 1046 q 361 1013 328 1046 q 394 931 394 979 m 582 1046 q 663 1013 629 1046 q 696 931 696 979 q 663 850 696 883 q 582 817 629 817 q 501 850 533 817 q 468 931 468 883 q 501 1013 468 979 q 582 1046 533 1046 z "},"":{"ha":858,"x_min":0,"x_max":844,"o":"m 807 726 q 833 715 822 726 q 844 689 844 704 q 833 663 844 674 l 771 600 l 465 -74 q 414 -168 444 -122 q 344 -251 383 -214 q 254 -310 304 -287 q 143 -332 204 -332 q 56 -306 94 -333 q 7 -233 18 -278 q 6 -181 0 -207 q 26 -134 11 -156 q 63 -97 40 -112 q 114 -74 86 -81 q 134 -71 126 -71 q 165 -71 142 -71 q 230 -79 201 -71 q 281 -90 258 -87 q 322 -84 304 -93 q 356 -40 340 -75 l 375 1 l 104 600 l 42 663 q 31 689 31 672 q 42 715 31 704 q 68 726 53 726 l 392 726 q 420 715 408 726 q 432 686 432 703 q 425 663 432 674 l 379 600 l 497 329 q 509 321 500 321 q 522 329 518 321 l 650 613 l 606 663 q 596 693 593 675 q 609 717 599 708 q 635 726 619 726 l 807 726 l 807 726 m 708 1067 q 731 1051 725 1067 q 726 1022 738 1035 l 539 836 q 492 817 519 817 l 408 817 q 387 828 394 817 q 385 853 379 840 l 458 1025 q 484 1056 467 1044 q 521 1067 501 1067 l 708 1067 l 708 1067 z "},"":{"ha":858,"x_min":0,"x_max":844,"o":"m 807 726 q 833 715 822 726 q 844 689 844 704 q 833 663 844 674 l 771 600 l 465 -74 q 414 -168 444 -122 q 344 -251 383 -214 q 254 -310 304 -287 q 143 -332 204 -332 q 56 -306 94 -333 q 7 -233 18 -278 q 6 -181 0 -207 q 26 -134 11 -156 q 63 -97 40 -112 q 114 -74 86 -81 q 134 -71 126 -71 q 165 -71 142 -71 q 230 -79 201 -71 q 281 -90 258 -87 q 322 -84 304 -93 q 356 -40 340 -75 l 375 1 l 104 600 l 42 663 q 31 689 31 672 q 42 715 31 704 q 68 726 53 726 l 392 726 q 420 715 408 726 q 432 686 432 703 q 425 663 432 674 l 379 600 l 497 329 q 509 321 500 321 q 522 329 518 321 l 650 613 l 606 663 q 596 693 593 675 q 609 717 599 708 q 635 726 619 726 l 807 726 l 807 726 m 392 931 q 358 850 392 883 q 278 817 325 817 q 197 850 231 817 q 164 931 164 883 q 197 1013 164 979 q 278 1046 231 1046 q 358 1013 325 1046 q 392 931 392 979 m 579 1046 q 660 1013 626 1046 q 693 931 693 979 q 660 850 693 883 q 579 817 626 817 q 498 850 531 817 q 465 931 465 883 q 498 1013 465 979 q 579 1046 531 1046 z "},"":{"ha":1083,"x_min":14,"x_max":1069,"o":"m 1058 65 q 1069 39 1069 54 q 1058 13 1069 24 q 1031 1 1046 1 l 649 1 q 622 13 633 1 q 611 39 611 24 q 622 65 611 54 l 699 138 l 631 293 l 322 293 l 253 136 l 326 65 q 338 39 338 54 q 326 13 338 24 q 300 1 315 1 l 51 1 q 25 13 36 1 q 14 39 14 24 q 24 65 14 53 l 119 164 l 492 1003 q 542 1035 507 1035 q 590 1003 576 1035 l 963 164 l 1058 65 m 583 404 l 479 647 l 371 404 l 583 404 m 753 1219 q 771 1212 764 1219 q 778 1193 778 1204 l 778 1121 q 771 1102 778 1110 q 753 1094 764 1094 l 332 1094 q 313 1102 321 1094 q 306 1121 306 1110 l 306 1193 q 313 1212 306 1204 q 332 1219 321 1219 l 753 1219 l 753 1219 z "},"":{"ha":828,"x_min":42,"x_max":786,"o":"m 776 65 q 786 40 786 56 q 774 13 786 25 q 747 1 763 1 l 589 1 q 525 24 553 1 q 490 82 497 47 q 394 17 450 46 q 268 -12 338 -12 q 179 -1 221 -12 q 107 34 138 11 q 59 92 76 57 q 42 172 42 126 q 65 258 42 219 q 128 324 89 296 q 215 374 167 353 q 314 408 264 394 q 409 431 364 422 q 488 443 454 439 l 488 488 q 478 570 488 536 q 451 625 468 604 q 414 656 435 646 q 371 665 393 665 q 330 655 347 665 q 301 628 313 644 q 283 588 290 611 q 272 540 276 565 q 243 486 268 508 q 185 464 218 464 q 136 478 157 464 q 104 513 115 492 q 94 558 93 533 q 113 606 96 583 q 235 697 157 667 q 394 728 313 728 q 526 715 465 728 q 630 669 586 701 q 699 583 674 636 q 724 450 724 529 l 724 128 l 776 65 m 292 196 q 371 96 292 96 q 432 115 401 96 q 488 157 463 133 l 488 383 q 419 365 454 378 q 356 331 385 353 q 310 275 328 308 q 292 196 292 242 m 625 942 q 643 934 636 942 q 650 915 650 926 l 650 843 q 643 824 650 832 q 625 817 636 817 l 204 817 q 185 824 193 817 q 178 843 178 832 l 178 915 q 185 934 178 926 q 204 942 193 942 l 625 942 l 625 942 z "},"":{"ha":1083,"x_min":14,"x_max":1069,"o":"m 1058 65 q 1069 39 1069 54 q 1058 13 1069 24 q 1031 1 1046 1 l 649 1 q 622 13 633 1 q 611 39 611 24 q 622 65 611 54 l 699 138 l 631 293 l 322 293 l 253 136 l 326 65 q 338 39 338 54 q 326 13 338 24 q 300 1 315 1 l 51 1 q 25 13 36 1 q 14 39 14 24 q 24 65 14 53 l 119 164 l 492 1003 q 542 1035 507 1035 q 590 1003 576 1035 l 963 164 l 1058 65 m 583 404 l 479 647 l 371 404 l 583 404 m 821 1375 q 842 1366 833 1375 q 849 1344 850 1357 q 822 1247 844 1292 q 762 1167 800 1201 q 668 1114 724 1133 q 542 1094 613 1094 q 414 1114 469 1094 q 320 1167 358 1133 q 260 1247 282 1201 q 233 1344 238 1292 q 240 1366 232 1357 q 261 1375 249 1375 l 375 1375 q 393 1368 386 1375 q 403 1350 400 1361 q 441 1270 408 1303 q 542 1238 474 1238 q 641 1270 608 1238 q 681 1350 674 1303 q 689 1368 682 1361 q 707 1375 696 1375 l 821 1375 l 821 1375 z "},"":{"ha":828,"x_min":42,"x_max":786,"o":"m 776 65 q 786 40 786 56 q 774 13 786 25 q 747 1 763 1 l 589 1 q 525 24 553 1 q 490 82 497 47 q 394 17 450 46 q 268 -12 338 -12 q 179 -1 221 -12 q 107 34 138 11 q 59 92 76 57 q 42 172 42 126 q 65 258 42 219 q 128 324 89 296 q 215 374 167 353 q 314 408 264 394 q 409 431 364 422 q 488 443 454 439 l 488 488 q 478 570 488 536 q 451 625 468 604 q 414 656 435 646 q 371 665 393 665 q 330 655 347 665 q 301 628 313 644 q 283 588 290 611 q 272 540 276 565 q 243 486 268 508 q 185 464 218 464 q 136 478 157 464 q 104 513 115 492 q 94 558 93 533 q 113 606 96 583 q 235 697 157 667 q 394 728 313 728 q 526 715 465 728 q 630 669 586 701 q 699 583 674 636 q 724 450 724 529 l 724 128 l 776 65 m 292 196 q 371 96 292 96 q 432 115 401 96 q 488 157 463 133 l 488 383 q 419 365 454 378 q 356 331 385 353 q 310 275 328 308 q 292 196 292 242 m 693 1097 q 714 1088 706 1097 q 721 1067 722 1079 q 694 969 717 1014 q 634 890 672 924 q 540 836 596 856 q 414 817 485 817 q 286 836 342 817 q 192 890 231 856 q 132 969 154 924 q 106 1067 110 1014 q 113 1088 104 1079 q 133 1097 121 1097 l 247 1097 q 265 1090 258 1097 q 275 1072 272 1083 q 313 992 281 1025 q 414 960 346 960 q 513 992 481 960 q 553 1072 546 1025 q 561 1090 554 1083 q 579 1097 568 1097 l 693 1097 l 693 1097 z "},"":{"ha":1083,"x_min":14,"x_max":1069,"o":"m 1058 65 q 1069 39 1069 54 q 1058 13 1069 24 q 1031 1 1046 1 l 649 1 q 622 13 633 1 q 611 39 611 24 q 622 65 611 54 l 699 138 l 631 293 l 322 293 l 253 136 l 326 65 q 338 39 338 54 q 326 13 338 24 q 300 1 315 1 l 51 1 q 25 13 36 1 q 14 39 14 24 q 24 65 14 53 l 119 164 l 492 1003 q 542 1035 507 1035 q 590 1003 576 1035 l 963 164 l 1058 65 m 583 404 l 479 647 l 371 404 l 583 404 m 1028 6 q 947 -69 983 -29 q 892 -151 917 -104 q 867 -250 867 -197 q 896 -336 867 -307 q 994 -368 925 -365 q 1008 -374 1003 -368 q 1014 -389 1014 -381 l 1014 -442 q 1008 -456 1014 -450 q 993 -462 1001 -462 q 828 -443 889 -461 q 735 -398 767 -425 q 694 -337 703 -371 q 685 -271 685 -304 q 698 -201 685 -235 q 732 -138 711 -168 q 780 -82 753 -108 q 836 -35 807 -56 q 989 56 903 15 l 1028 6 l 1028 6 z "},"":{"ha":828,"x_min":42,"x_max":786,"o":"m 776 65 q 786 40 786 56 q 774 13 786 25 q 747 1 763 1 l 589 1 q 525 24 553 1 q 490 82 497 47 q 394 17 450 46 q 268 -12 338 -12 q 179 -1 221 -12 q 107 34 138 11 q 59 92 76 57 q 42 172 42 126 q 65 258 42 219 q 128 324 89 296 q 215 374 167 353 q 314 408 264 394 q 409 431 364 422 q 488 443 454 439 l 488 488 q 478 570 488 536 q 451 625 468 604 q 414 656 435 646 q 371 665 393 665 q 330 655 347 665 q 301 628 313 644 q 283 588 290 611 q 272 540 276 565 q 243 486 268 508 q 185 464 218 464 q 136 478 157 464 q 104 513 115 492 q 94 558 93 533 q 113 606 96 583 q 235 697 157 667 q 394 728 313 728 q 526 715 465 728 q 630 669 586 701 q 699 583 674 636 q 724 450 724 529 l 724 128 l 776 65 m 292 196 q 371 96 292 96 q 432 115 401 96 q 488 157 463 133 l 488 383 q 419 365 454 378 q 356 331 385 353 q 310 275 328 308 q 292 196 292 242 m 744 6 q 664 -69 700 -29 q 608 -151 633 -104 q 583 -250 583 -197 q 613 -336 583 -307 q 711 -368 642 -365 q 725 -374 719 -368 q 731 -389 731 -381 l 731 -442 q 724 -456 731 -450 q 710 -462 718 -462 q 544 -443 606 -461 q 451 -398 483 -425 q 410 -337 419 -371 q 401 -271 401 -304 q 415 -201 401 -235 q 449 -138 428 -168 q 497 -82 469 -108 q 553 -35 524 -56 q 706 56 619 15 l 744 6 l 744 6 z "},"":{"ha":974,"x_min":42,"x_max":935,"o":"m 907 314 q 929 288 924 306 q 926 254 935 271 q 878 176 910 222 q 797 89 847 131 q 678 17 747 47 q 517 -12 608 -12 q 368 13 450 -12 q 213 97 286 38 q 91 253 140 156 q 42 497 42 351 q 91 741 42 643 q 213 898 140 839 q 368 982 286 957 q 517 1007 450 1007 q 632 995 575 1007 q 741 956 689 983 q 837 883 793 929 q 913 771 881 838 q 926 715 925 743 q 917 660 926 686 q 888 615 907 635 q 840 583 868 594 l 839 582 q 780 572 810 569 q 725 586 750 574 q 681 622 700 599 q 653 675 661 644 q 565 828 625 779 q 432 871 504 878 q 368 842 394 867 q 326 776 342 817 q 304 685 311 736 q 297 579 297 635 q 319 426 297 501 q 383 289 342 350 q 483 190 424 228 q 617 153 542 153 q 701 168 663 153 q 768 206 739 183 q 818 253 797 228 q 851 297 839 278 q 876 316 860 311 q 907 314 892 321 m 742 1344 q 765 1328 758 1344 q 760 1300 771 1313 l 572 1114 q 525 1094 553 1094 l 442 1094 q 420 1106 428 1094 q 418 1131 413 1118 l 492 1303 q 517 1333 500 1322 q 554 1344 535 1344 l 742 1344 l 742 1344 z "},"":{"ha":783,"x_min":42,"x_max":743,"o":"m 721 247 q 739 226 735 240 q 736 199 743 213 q 699 138 724 174 q 633 68 674 101 q 537 11 593 35 q 406 -12 481 -12 q 255 15 322 -12 q 140 91 188 42 q 67 208 93 140 q 42 357 42 275 q 69 506 42 438 q 147 624 97 575 q 267 700 197 672 q 419 728 336 728 q 584 698 510 728 q 710 596 658 668 q 731 544 726 572 q 726 491 735 517 q 699 444 718 465 q 651 414 679 424 q 604 406 628 406 q 560 416 581 407 q 522 442 539 425 q 497 483 506 460 q 462 560 479 529 q 426 608 444 590 q 390 633 408 626 q 354 640 372 640 q 290 603 314 640 q 258 511 265 567 q 260 392 250 456 q 298 272 269 328 q 376 180 326 217 q 496 143 425 143 q 557 153 529 143 q 608 178 585 164 q 647 210 631 193 q 675 239 664 226 q 696 251 683 249 q 721 247 708 254 m 663 1067 q 685 1051 679 1067 q 681 1022 692 1035 l 493 836 q 446 817 474 817 l 363 817 q 341 828 349 817 q 339 853 333 840 l 413 1025 q 438 1056 421 1044 q 475 1067 456 1067 l 663 1067 l 663 1067 z "},"":{"ha":974,"x_min":42,"x_max":935,"o":"m 907 314 q 929 288 924 306 q 926 254 935 271 q 878 176 910 222 q 797 89 847 131 q 678 17 747 47 q 517 -12 608 -12 q 368 13 450 -12 q 213 97 286 38 q 91 253 140 156 q 42 497 42 351 q 91 741 42 643 q 213 898 140 839 q 368 982 286 957 q 517 1007 450 1007 q 632 995 575 1007 q 741 956 689 983 q 837 883 793 929 q 913 771 881 838 q 926 715 925 743 q 917 660 926 686 q 888 615 907 635 q 840 583 868 594 l 839 582 q 780 572 810 569 q 725 586 750 574 q 681 622 700 599 q 653 675 661 644 q 565 828 625 779 q 432 871 504 878 q 368 842 394 867 q 326 776 342 817 q 304 685 311 736 q 297 579 297 635 q 319 426 297 501 q 383 289 342 350 q 483 190 424 228 q 617 153 542 153 q 701 168 663 153 q 768 206 739 183 q 818 253 797 228 q 851 297 839 278 q 876 316 860 311 q 907 314 892 321 m 763 1128 q 764 1106 769 1117 q 746 1094 758 1094 l 622 1094 q 589 1113 600 1094 l 486 1261 l 385 1113 q 350 1094 371 1094 l 228 1094 q 208 1106 214 1094 q 211 1128 203 1117 l 382 1358 q 415 1375 396 1375 l 557 1375 q 590 1358 576 1375 l 763 1128 z "},"":{"ha":783,"x_min":42,"x_max":743,"o":"m 721 247 q 739 226 735 240 q 736 199 743 213 q 699 138 724 174 q 633 68 674 101 q 537 11 593 35 q 406 -12 481 -12 q 255 15 322 -12 q 140 91 188 42 q 67 208 93 140 q 42 357 42 275 q 69 506 42 438 q 147 624 97 575 q 267 700 197 672 q 419 728 336 728 q 584 698 510 728 q 710 596 658 668 q 731 544 726 572 q 726 491 735 517 q 699 444 718 465 q 651 414 679 424 q 604 406 628 406 q 560 416 581 407 q 522 442 539 425 q 497 483 506 460 q 462 560 479 529 q 426 608 444 590 q 390 633 408 626 q 354 640 372 640 q 290 603 314 640 q 258 511 265 567 q 260 392 250 456 q 298 272 269 328 q 376 180 326 217 q 496 143 425 143 q 557 153 529 143 q 608 178 585 164 q 647 210 631 193 q 675 239 664 226 q 696 251 683 249 q 721 247 708 254 m 668 850 q 669 828 675 839 q 651 817 664 817 l 528 817 q 494 835 506 817 l 392 983 l 290 835 q 256 817 276 817 l 133 817 q 114 828 119 817 q 117 850 108 839 l 288 1081 q 321 1097 301 1097 l 463 1097 q 496 1081 482 1097 l 668 850 z "},"":{"ha":974,"x_min":42,"x_max":935,"o":"m 907 314 q 929 288 924 306 q 926 254 935 271 q 878 176 910 222 q 797 89 847 131 q 678 17 747 47 q 517 -12 608 -12 q 368 13 450 -12 q 213 97 286 38 q 91 253 140 156 q 42 497 42 351 q 91 741 42 643 q 213 898 140 839 q 368 982 286 957 q 517 1007 450 1007 q 632 995 575 1007 q 741 956 689 983 q 837 883 793 929 q 913 771 881 838 q 926 715 925 743 q 917 660 926 686 q 888 615 907 635 q 840 583 868 594 l 839 582 q 780 572 810 569 q 725 586 750 574 q 681 622 700 599 q 653 675 661 644 q 565 828 625 779 q 432 871 504 878 q 368 842 394 867 q 326 776 342 817 q 304 685 311 736 q 297 579 297 635 q 319 426 297 501 q 383 289 342 350 q 483 190 424 228 q 617 153 542 153 q 701 168 663 153 q 768 206 739 183 q 818 253 797 228 q 851 297 839 278 q 876 316 860 311 q 907 314 892 321 m 486 1094 q 432 1106 457 1094 q 388 1135 407 1117 q 358 1180 369 1154 q 347 1235 347 1206 q 358 1290 347 1264 q 388 1334 369 1315 q 432 1364 407 1353 q 486 1375 457 1375 q 541 1364 515 1375 q 585 1334 567 1353 q 615 1290 604 1315 q 626 1235 626 1264 q 615 1180 626 1206 q 585 1135 604 1154 q 541 1106 567 1117 q 486 1094 515 1094 z "},"":{"ha":783,"x_min":42,"x_max":743,"o":"m 721 247 q 739 226 735 240 q 736 199 743 213 q 699 138 724 174 q 633 68 674 101 q 537 11 593 35 q 406 -12 481 -12 q 255 15 322 -12 q 140 91 188 42 q 67 208 93 140 q 42 357 42 275 q 69 506 42 438 q 147 624 97 575 q 267 700 197 672 q 419 728 336 728 q 584 698 510 728 q 710 596 658 668 q 731 544 726 572 q 726 491 735 517 q 699 444 718 465 q 651 414 679 424 q 604 406 628 406 q 560 416 581 407 q 522 442 539 425 q 497 483 506 460 q 462 560 479 529 q 426 608 444 590 q 390 633 408 626 q 354 640 372 640 q 290 603 314 640 q 258 511 265 567 q 260 392 250 456 q 298 272 269 328 q 376 180 326 217 q 496 143 425 143 q 557 153 529 143 q 608 178 585 164 q 647 210 631 193 q 675 239 664 226 q 696 251 683 249 q 721 247 708 254 m 390 817 q 336 828 361 817 q 292 858 311 839 q 263 902 274 876 q 251 957 251 928 q 263 1012 251 986 q 292 1056 274 1038 q 336 1086 311 1075 q 390 1097 361 1097 q 445 1086 419 1097 q 490 1056 471 1075 q 519 1012 508 1038 q 531 957 531 986 q 519 902 531 928 q 490 858 508 876 q 445 828 471 839 q 390 817 419 817 z "},"":{"ha":974,"x_min":42,"x_max":935,"o":"m 907 314 q 929 288 924 306 q 926 254 935 271 q 878 176 910 222 q 797 89 847 131 q 678 17 747 47 q 517 -12 608 -12 q 368 13 450 -12 q 213 97 286 38 q 91 253 140 156 q 42 497 42 351 q 91 741 42 643 q 213 898 140 839 q 368 982 286 957 q 517 1007 450 1007 q 632 995 575 1007 q 741 956 689 983 q 837 883 793 929 q 913 771 881 838 q 926 715 925 743 q 917 660 926 686 q 888 615 907 635 q 840 583 868 594 l 839 582 q 780 572 810 569 q 725 586 750 574 q 681 622 700 599 q 653 675 661 644 q 565 828 625 779 q 432 871 504 878 q 368 842 394 867 q 326 776 342 817 q 304 685 311 736 q 297 579 297 635 q 319 426 297 501 q 383 289 342 350 q 483 190 424 228 q 617 153 542 153 q 701 168 663 153 q 768 206 739 183 q 818 253 797 228 q 851 297 839 278 q 876 316 860 311 q 907 314 892 321 m 746 1375 q 764 1364 758 1375 q 763 1342 769 1353 l 590 1111 q 557 1094 576 1094 l 415 1094 q 382 1111 396 1094 l 211 1342 q 208 1364 203 1353 q 228 1375 214 1375 l 350 1375 q 385 1357 371 1375 l 486 1208 l 589 1357 q 622 1375 600 1375 l 746 1375 l 746 1375 z "},"":{"ha":783,"x_min":42,"x_max":743,"o":"m 721 247 q 739 226 735 240 q 736 199 743 213 q 699 138 724 174 q 633 68 674 101 q 537 11 593 35 q 406 -12 481 -12 q 255 15 322 -12 q 140 91 188 42 q 67 208 93 140 q 42 357 42 275 q 69 506 42 438 q 147 624 97 575 q 267 700 197 672 q 419 728 336 728 q 584 698 510 728 q 710 596 658 668 q 731 544 726 572 q 726 491 735 517 q 699 444 718 465 q 651 414 679 424 q 604 406 628 406 q 560 416 581 407 q 522 442 539 425 q 497 483 506 460 q 462 560 479 529 q 426 608 444 590 q 390 633 408 626 q 354 640 372 640 q 290 603 314 640 q 258 511 265 567 q 260 392 250 456 q 298 272 269 328 q 376 180 326 217 q 496 143 425 143 q 557 153 529 143 q 608 178 585 164 q 647 210 631 193 q 675 239 664 226 q 696 251 683 249 q 721 247 708 254 m 651 1097 q 669 1086 664 1097 q 668 1064 675 1075 l 496 833 q 463 817 482 817 l 321 817 q 288 833 301 817 l 117 1064 q 114 1086 108 1075 q 133 1097 119 1097 l 256 1097 q 290 1079 276 1097 l 392 931 l 494 1079 q 528 1097 506 1097 l 651 1097 l 651 1097 z "},"":{"ha":957,"x_min":42,"x_max":915,"o":"m 383 1007 q 649 963 546 1007 q 812 847 753 918 q 893 685 871 775 q 915 504 915 596 q 893 323 915 413 q 812 162 871 233 q 649 46 753 90 q 383 1 546 1 l 81 1 q 53 13 64 1 q 42 40 42 25 q 50 65 42 54 l 103 128 l 103 879 l 50 943 q 42 968 42 953 q 53 995 42 983 q 81 1007 64 1007 l 383 1007 m 403 113 q 526 142 475 113 q 607 223 576 171 q 651 347 638 275 q 665 504 665 418 q 651 662 665 590 q 607 785 638 733 q 526 867 576 838 q 403 896 475 896 l 339 896 l 339 113 l 403 113 m 738 1375 q 756 1364 750 1375 q 754 1342 761 1353 l 582 1111 q 549 1094 568 1094 l 407 1094 q 374 1111 388 1094 l 203 1342 q 200 1364 194 1353 q 219 1375 206 1375 l 342 1375 q 376 1357 363 1375 l 478 1208 l 581 1357 q 614 1375 592 1375 l 738 1375 l 738 1375 z "},"":{"ha":1163,"x_min":42,"x_max":1106,"o":"m 804 65 q 814 40 814 53 q 802 13 814 25 q 775 1 790 1 l 751 1 l 615 1 q 568 13 589 1 q 533 44 547 25 q 466 8 511 29 q 356 -12 421 -12 q 238 8 294 -12 q 138 74 182 29 q 68 189 94 119 q 42 357 42 258 q 70 524 42 454 q 142 640 99 594 q 239 706 186 685 q 340 726 292 726 q 451 710 408 726 q 515 681 494 694 l 515 821 l 468 863 q 453 896 453 875 q 462 923 453 911 q 485 939 471 935 l 515 949 l 683 999 q 728 992 707 1007 q 751 949 751 976 l 751 128 l 804 65 m 411 78 q 455 85 436 78 q 488 101 474 92 q 515 125 503 111 l 515 124 l 515 590 q 492 613 506 603 q 462 628 481 621 q 419 636 443 636 q 369 620 394 636 q 324 569 344 604 q 291 482 304 535 q 278 357 278 429 q 313 144 278 210 q 411 78 347 78 m 975 1063 q 1067 1025 1029 1063 q 1106 933 1106 988 l 1106 931 q 1089 828 1106 875 q 1049 742 1072 781 q 1001 675 1026 704 q 954 628 975 646 q 922 616 940 615 q 892 632 903 617 q 880 664 879 646 q 894 694 881 682 q 910 709 901 701 q 926 726 918 717 q 943 778 947 749 q 913 824 939 808 q 866 870 883 840 q 849 936 849 900 q 887 1025 850 989 q 975 1063 924 1061 z "},"":{"ha":957,"x_min":6,"x_max":915,"o":"m 383 1007 q 649 963 546 1007 q 812 847 753 918 q 893 685 871 775 q 915 504 915 596 q 893 323 915 413 q 812 162 871 233 q 649 46 753 90 q 383 1 546 1 l 81 1 q 53 13 64 1 q 42 40 42 25 q 50 65 42 54 l 103 128 l 103 879 l 50 943 q 42 968 42 953 q 53 995 42 983 q 81 1007 64 1007 l 383 1007 m 403 113 q 526 142 475 113 q 607 223 576 171 q 651 347 638 275 q 665 504 665 418 q 651 662 665 590 q 607 785 638 733 q 526 867 576 838 q 403 896 475 896 l 339 896 l 339 113 l 403 113 m 453 744 q 471 737 464 744 q 478 718 478 729 l 478 646 q 471 627 478 635 q 453 619 464 619 l 32 619 q 13 627 21 619 q 6 646 6 635 l 6 718 q 13 737 6 729 q 32 744 21 744 l 453 744 l 453 744 z "},"":{"ha":856,"x_min":42,"x_max":874,"o":"m 804 65 q 814 40 814 53 q 802 13 814 25 q 775 1 790 1 l 751 1 l 615 1 q 568 13 589 1 q 533 44 547 25 q 466 8 511 29 q 356 -12 421 -12 q 238 8 294 -12 q 138 74 182 29 q 68 189 94 119 q 42 357 42 258 q 70 524 42 454 q 142 640 99 594 q 239 706 186 685 q 340 726 292 726 q 451 710 408 726 q 515 681 494 694 l 515 821 l 468 863 q 453 896 453 875 q 462 923 453 911 q 485 939 471 935 l 515 949 l 683 999 q 728 992 707 1007 q 751 949 751 976 l 751 128 l 804 65 m 411 78 q 455 85 436 78 q 488 101 474 92 q 515 125 503 111 l 515 124 l 515 590 q 492 613 506 603 q 462 628 481 621 q 419 636 443 636 q 369 620 394 636 q 324 569 344 604 q 291 482 304 535 q 278 357 278 429 q 313 144 278 210 q 411 78 347 78 m 874 396 q 862 367 874 379 q 832 354 850 354 l 382 354 q 353 367 365 354 q 340 396 340 379 l 340 472 q 353 502 340 490 q 382 514 365 514 l 832 514 q 862 502 850 514 q 874 472 874 490 l 874 396 l 874 396 z "},"":{"ha":889,"x_min":42,"x_max":847,"o":"m 808 224 q 835 213 824 224 q 847 185 847 201 l 847 43 q 835 13 847 25 q 806 1 824 1 l 81 1 q 53 13 65 1 q 42 40 42 25 q 51 65 42 53 l 104 128 l 104 879 l 51 943 q 42 968 42 956 q 53 995 42 983 q 81 1007 65 1007 l 778 1007 q 808 994 796 1007 q 819 965 819 982 l 819 822 q 808 795 819 807 q 781 783 796 783 q 756 793 768 783 q 624 869 696 843 q 475 896 553 896 l 340 896 l 340 560 l 563 560 l 653 651 q 679 663 663 663 q 706 652 694 663 q 717 626 717 642 l 717 382 q 706 356 717 367 q 679 344 694 344 q 653 356 664 344 l 563 449 l 340 449 l 340 196 q 365 137 340 161 q 424 113 389 113 l 503 113 q 652 139 581 113 q 783 215 724 165 q 808 224 793 224 m 656 1219 q 674 1212 667 1219 q 681 1193 681 1204 l 681 1121 q 674 1102 681 1110 q 656 1094 667 1094 l 235 1094 q 216 1102 224 1094 q 208 1121 208 1110 l 208 1193 q 216 1212 208 1204 q 235 1219 224 1219 l 656 1219 l 656 1219 z "},"":{"ha":782,"x_min":42,"x_max":743,"o":"m 719 247 q 738 226 733 240 q 736 199 743 213 q 698 138 724 174 q 633 68 672 101 q 536 11 593 35 q 404 -12 479 -12 q 253 15 321 -12 q 140 91 186 42 q 67 208 93 140 q 42 357 42 275 q 69 506 42 438 q 147 624 97 575 q 265 700 196 672 q 418 728 335 728 q 599 668 517 728 q 725 478 682 608 q 723 447 731 463 q 700 426 715 432 l 699 425 l 288 274 q 369 181 318 218 q 496 143 419 143 q 557 153 529 143 q 608 178 585 164 q 647 210 631 193 q 675 239 664 226 q 695 251 682 249 q 719 247 708 254 m 317 633 q 274 596 292 625 q 249 526 257 567 q 244 439 242 486 q 260 344 246 392 l 524 443 q 422 606 478 563 q 317 633 367 650 m 601 942 q 619 934 613 942 q 626 915 626 926 l 626 843 q 619 824 626 832 q 601 817 613 817 l 181 817 q 162 824 169 817 q 154 843 154 832 l 154 915 q 162 934 154 926 q 181 942 169 942 l 601 942 l 601 942 z "},"":{"ha":889,"x_min":42,"x_max":847,"o":"m 808 224 q 835 213 824 224 q 847 185 847 201 l 847 43 q 835 13 847 25 q 806 1 824 1 l 81 1 q 53 13 65 1 q 42 40 42 25 q 51 65 42 53 l 104 128 l 104 879 l 51 943 q 42 968 42 956 q 53 995 42 983 q 81 1007 65 1007 l 778 1007 q 808 994 796 1007 q 819 965 819 982 l 819 822 q 808 795 819 807 q 781 783 796 783 q 756 793 768 783 q 624 869 696 843 q 475 896 553 896 l 340 896 l 340 560 l 563 560 l 653 651 q 679 663 663 663 q 706 652 694 663 q 717 626 717 642 l 717 382 q 706 356 717 367 q 679 344 694 344 q 653 356 664 344 l 563 449 l 340 449 l 340 196 q 365 137 340 161 q 424 113 389 113 l 503 113 q 652 139 581 113 q 783 215 724 165 q 808 224 793 224 m 724 1375 q 744 1366 736 1375 q 751 1344 753 1357 q 725 1247 747 1292 q 665 1167 703 1201 q 571 1114 626 1133 q 444 1094 515 1094 q 317 1114 372 1094 q 223 1167 261 1133 q 163 1247 185 1201 q 136 1344 140 1292 q 143 1366 135 1357 q 164 1375 151 1375 l 278 1375 q 296 1368 289 1375 q 306 1350 303 1361 q 344 1270 311 1303 q 444 1238 376 1238 q 544 1270 511 1238 q 583 1350 576 1303 q 592 1368 585 1361 q 610 1375 599 1375 l 724 1375 l 724 1375 z "},"":{"ha":782,"x_min":42,"x_max":743,"o":"m 719 247 q 738 226 733 240 q 736 199 743 213 q 698 138 724 174 q 633 68 672 101 q 536 11 593 35 q 404 -12 479 -12 q 253 15 321 -12 q 140 91 186 42 q 67 208 93 140 q 42 357 42 275 q 69 506 42 438 q 147 624 97 575 q 265 700 196 672 q 418 728 335 728 q 599 668 517 728 q 725 478 682 608 q 723 447 731 463 q 700 426 715 432 l 699 425 l 288 274 q 369 181 318 218 q 496 143 419 143 q 557 153 529 143 q 608 178 585 164 q 647 210 631 193 q 675 239 664 226 q 695 251 682 249 q 719 247 708 254 m 317 633 q 274 596 292 625 q 249 526 257 567 q 244 439 242 486 q 260 344 246 392 l 524 443 q 422 606 478 563 q 317 633 367 650 m 671 1097 q 692 1088 683 1097 q 699 1067 700 1079 q 672 969 694 1014 q 612 890 650 924 q 518 836 574 856 q 392 817 463 817 q 264 836 319 817 q 170 890 208 856 q 110 969 132 924 q 83 1067 88 1014 q 90 1088 82 1079 q 111 1097 99 1097 l 225 1097 q 243 1090 236 1097 q 253 1072 250 1083 q 291 992 258 1025 q 392 960 324 960 q 491 992 458 960 q 531 1072 524 1025 q 539 1090 532 1083 q 557 1097 546 1097 l 671 1097 l 671 1097 z "},"":{"ha":889,"x_min":42,"x_max":847,"o":"m 808 224 q 835 213 824 224 q 847 185 847 201 l 847 43 q 835 13 847 25 q 806 1 824 1 l 81 1 q 53 13 65 1 q 42 40 42 25 q 51 65 42 53 l 104 128 l 104 879 l 51 943 q 42 968 42 956 q 53 995 42 983 q 81 1007 65 1007 l 778 1007 q 808 994 796 1007 q 819 965 819 982 l 819 822 q 808 795 819 807 q 781 783 796 783 q 756 793 768 783 q 624 869 696 843 q 475 896 553 896 l 340 896 l 340 560 l 563 560 l 653 651 q 679 663 663 663 q 706 652 694 663 q 717 626 717 642 l 717 382 q 706 356 717 367 q 679 344 694 344 q 653 356 664 344 l 563 449 l 340 449 l 340 196 q 365 137 340 161 q 424 113 389 113 l 503 113 q 652 139 581 113 q 783 215 724 165 q 808 224 793 224 m 443 1094 q 389 1106 414 1094 q 345 1135 364 1117 q 315 1180 326 1154 q 304 1235 304 1206 q 315 1290 304 1264 q 345 1334 326 1315 q 389 1364 364 1353 q 443 1375 414 1375 q 498 1364 472 1375 q 542 1334 524 1353 q 572 1290 561 1315 q 583 1235 583 1264 q 572 1180 583 1206 q 542 1135 561 1154 q 498 1106 524 1117 q 443 1094 472 1094 z "},"":{"ha":782,"x_min":42,"x_max":743,"o":"m 719 247 q 738 226 733 240 q 736 199 743 213 q 698 138 724 174 q 633 68 672 101 q 536 11 593 35 q 404 -12 479 -12 q 253 15 321 -12 q 140 91 186 42 q 67 208 93 140 q 42 357 42 275 q 69 506 42 438 q 147 624 97 575 q 265 700 196 672 q 418 728 335 728 q 599 668 517 728 q 725 478 682 608 q 723 447 731 463 q 700 426 715 432 l 699 425 l 288 274 q 369 181 318 218 q 496 143 419 143 q 557 153 529 143 q 608 178 585 164 q 647 210 631 193 q 675 239 664 226 q 695 251 682 249 q 719 247 708 254 m 317 633 q 274 596 292 625 q 249 526 257 567 q 244 439 242 486 q 260 344 246 392 l 524 443 q 422 606 478 563 q 317 633 367 650 m 390 817 q 336 828 361 817 q 292 858 311 839 q 263 902 274 876 q 251 957 251 928 q 263 1012 251 986 q 292 1056 274 1038 q 336 1086 311 1075 q 390 1097 361 1097 q 445 1086 419 1097 q 490 1056 471 1075 q 519 1012 508 1038 q 531 957 531 986 q 519 902 531 928 q 490 858 508 876 q 445 828 471 839 q 390 817 419 817 z "},"":{"ha":889,"x_min":42,"x_max":847,"o":"m 808 224 q 835 213 824 224 q 847 185 847 201 l 847 43 q 835 13 847 25 q 806 1 824 1 l 81 1 q 53 13 65 1 q 42 40 42 25 q 51 65 42 53 l 104 128 l 104 879 l 51 943 q 42 968 42 956 q 53 995 42 983 q 81 1007 65 1007 l 778 1007 q 808 994 796 1007 q 819 965 819 982 l 819 822 q 808 795 819 807 q 781 783 796 783 q 756 793 768 783 q 624 869 696 843 q 475 896 553 896 l 340 896 l 340 560 l 563 560 l 653 651 q 679 663 663 663 q 706 652 694 663 q 717 626 717 642 l 717 382 q 706 356 717 367 q 679 344 694 344 q 653 356 664 344 l 563 449 l 340 449 l 340 196 q 365 137 340 161 q 424 113 389 113 l 503 113 q 652 139 581 113 q 783 215 724 165 q 808 224 793 224 m 653 6 q 572 -69 608 -29 q 517 -151 542 -104 q 492 -250 492 -197 q 521 -336 492 -307 q 619 -368 550 -365 q 633 -374 628 -368 q 639 -389 639 -381 l 639 -442 q 633 -456 639 -450 q 618 -462 626 -462 q 453 -443 514 -461 q 360 -398 392 -425 q 319 -337 328 -371 q 310 -271 310 -304 q 323 -201 310 -235 q 357 -138 336 -168 q 405 -82 378 -108 q 461 -35 432 -56 q 614 56 528 15 l 653 6 l 653 6 z "},"":{"ha":782,"x_min":42,"x_max":743,"o":"m 719 247 q 738 226 733 240 q 736 199 743 213 q 698 138 724 174 q 633 68 672 101 q 536 11 593 35 q 404 -12 479 -12 q 253 15 321 -12 q 140 91 186 42 q 67 208 93 140 q 42 357 42 275 q 69 506 42 438 q 147 624 97 575 q 265 700 196 672 q 418 728 335 728 q 599 668 517 728 q 725 478 682 608 q 723 447 731 463 q 700 426 715 432 l 699 425 l 288 274 q 369 181 318 218 q 496 143 419 143 q 557 153 529 143 q 608 178 585 164 q 647 210 631 193 q 675 239 664 226 q 695 251 682 249 q 719 247 708 254 m 317 633 q 274 596 292 625 q 249 526 257 567 q 244 439 242 486 q 260 344 246 392 l 524 443 q 422 606 478 563 q 317 633 367 650 m 500 6 q 419 -69 456 -29 q 364 -151 389 -104 q 339 -250 339 -197 q 368 -336 339 -307 q 467 -368 397 -365 q 481 -374 475 -368 q 486 -389 486 -381 l 486 -442 q 480 -456 486 -450 q 465 -462 474 -462 q 300 -443 361 -461 q 207 -398 239 -425 q 166 -337 175 -371 q 157 -271 157 -304 q 170 -201 157 -235 q 204 -138 183 -168 q 252 -82 225 -108 q 308 -35 279 -56 q 461 56 375 15 l 500 6 l 500 6 z "},"":{"ha":889,"x_min":42,"x_max":847,"o":"m 808 224 q 835 213 824 224 q 847 185 847 201 l 847 43 q 835 13 847 25 q 806 1 824 1 l 81 1 q 53 13 65 1 q 42 40 42 25 q 51 65 42 53 l 104 128 l 104 879 l 51 943 q 42 968 42 956 q 53 995 42 983 q 81 1007 65 1007 l 778 1007 q 808 994 796 1007 q 819 965 819 982 l 819 822 q 808 795 819 807 q 781 783 796 783 q 756 793 768 783 q 624 869 696 843 q 475 896 553 896 l 340 896 l 340 560 l 563 560 l 653 651 q 679 663 663 663 q 706 652 694 663 q 717 626 717 642 l 717 382 q 706 356 717 367 q 679 344 694 344 q 653 356 664 344 l 563 449 l 340 449 l 340 196 q 365 137 340 161 q 424 113 389 113 l 503 113 q 652 139 581 113 q 783 215 724 165 q 808 224 793 224 m 704 1375 q 722 1364 717 1375 q 721 1342 728 1353 l 549 1111 q 515 1094 535 1094 l 374 1094 q 340 1111 354 1094 l 169 1342 q 167 1364 161 1353 q 186 1375 172 1375 l 308 1375 q 343 1357 329 1375 l 444 1208 l 547 1357 q 581 1375 558 1375 l 704 1375 l 704 1375 z "},"":{"ha":782,"x_min":42,"x_max":743,"o":"m 719 247 q 738 226 733 240 q 736 199 743 213 q 698 138 724 174 q 633 68 672 101 q 536 11 593 35 q 404 -12 479 -12 q 253 15 321 -12 q 140 91 186 42 q 67 208 93 140 q 42 357 42 275 q 69 506 42 438 q 147 624 97 575 q 265 700 196 672 q 418 728 335 728 q 599 668 517 728 q 725 478 682 608 q 723 447 731 463 q 700 426 715 432 l 699 425 l 288 274 q 369 181 318 218 q 496 143 419 143 q 557 153 529 143 q 608 178 585 164 q 647 210 631 193 q 675 239 664 226 q 695 251 682 249 q 719 247 708 254 m 317 633 q 274 596 292 625 q 249 526 257 567 q 244 439 242 486 q 260 344 246 392 l 524 443 q 422 606 478 563 q 317 633 367 650 m 650 1097 q 668 1086 663 1097 q 667 1064 674 1075 l 494 833 q 461 817 481 817 l 319 817 q 286 833 300 817 l 115 1064 q 113 1086 107 1075 q 132 1097 118 1097 l 254 1097 q 289 1079 275 1097 l 390 931 l 493 1079 q 526 1097 504 1097 l 650 1097 l 650 1097 z "},"":{"ha":1097,"x_min":42,"x_max":1056,"o":"m 994 540 q 1038 522 1019 540 q 1056 478 1056 504 q 1038 435 1056 453 q 994 417 1019 417 l 946 417 q 942 344 946 388 q 925 254 939 301 q 883 159 911 207 q 808 73 856 111 q 688 11 760 35 q 517 -12 617 -12 q 368 13 450 -12 q 213 97 286 38 q 91 253 140 156 q 42 497 42 351 q 91 741 42 643 q 213 898 140 839 q 368 982 286 957 q 517 1007 450 1007 q 618 999 568 1007 q 714 973 668 990 q 801 928 760 956 q 875 861 842 900 q 904 803 897 835 q 903 740 911 771 q 875 684 896 710 q 822 646 854 658 q 719 647 771 625 q 646 719 668 668 q 558 835 615 793 q 433 871 501 878 q 331 787 363 864 q 299 579 299 710 q 320 426 299 501 q 381 289 342 350 q 475 190 419 228 q 597 153 531 153 q 678 181 651 153 q 713 249 706 208 q 711 335 719 289 q 686 417 703 381 l 607 417 q 563 435 581 417 q 544 478 544 453 q 563 522 544 504 q 607 540 581 540 l 994 540 l 994 540 m 825 1128 q 826 1106 832 1117 q 808 1094 821 1094 l 685 1094 q 651 1113 663 1094 l 549 1261 l 447 1113 q 413 1094 433 1094 l 290 1094 q 271 1106 276 1094 q 274 1128 265 1117 l 444 1358 q 478 1375 458 1375 l 619 1375 q 653 1358 639 1375 l 825 1128 z "},"":{"ha":774,"x_min":42,"x_max":746,"o":"m 661 811 q 719 806 692 824 q 746 754 746 788 q 729 713 746 731 q 689 693 713 696 q 647 687 669 692 q 601 671 624 682 q 692 585 660 636 q 724 471 724 533 q 698 369 724 417 q 627 288 672 322 q 519 233 582 253 q 383 214 457 214 q 249 233 311 214 q 238 212 242 224 q 233 188 233 200 q 236 165 233 175 q 251 150 239 156 q 290 142 264 144 q 363 139 317 139 l 479 139 q 563 125 521 139 q 637 84 604 111 q 690 18 669 57 q 710 -69 710 -21 q 687 -160 710 -118 q 621 -231 664 -201 q 516 -278 578 -261 q 376 -296 454 -296 q 272 -287 324 -296 q 178 -259 219 -278 q 112 -213 138 -240 q 86 -149 86 -186 q 113 -80 86 -106 q 171 -39 139 -54 q 88 22 110 -18 q 65 94 65 61 q 78 155 65 128 q 108 203 90 182 q 146 238 126 224 q 179 261 165 253 q 78 351 115 297 q 42 471 42 404 q 67 572 42 525 q 139 653 93 619 q 247 708 185 688 q 383 728 310 728 q 462 721 424 728 q 533 703 500 714 q 597 773 563 747 q 661 811 631 799 m 488 471 q 478 560 488 525 q 453 615 468 594 q 420 643 439 635 q 383 651 401 651 q 347 643 365 651 q 313 615 328 635 q 288 560 297 594 q 278 471 278 525 q 288 382 278 417 q 313 327 297 347 q 347 299 328 307 q 383 290 365 290 q 420 299 401 290 q 453 327 439 307 q 478 382 468 347 q 488 471 488 417 m 288 -53 q 249 -95 258 -68 q 251 -150 239 -122 q 296 -198 263 -178 q 388 -218 329 -218 q 492 -196 454 -218 q 529 -129 529 -174 q 503 -74 529 -96 q 433 -53 478 -53 l 288 -53 m 663 850 q 664 828 669 839 q 646 817 658 817 l 522 817 q 489 835 500 817 l 386 983 l 285 835 q 250 817 271 817 l 128 817 q 108 828 114 817 q 111 850 103 839 l 282 1081 q 315 1097 296 1097 l 457 1097 q 490 1081 476 1097 l 663 850 z "},"":{"ha":1097,"x_min":42,"x_max":1056,"o":"m 994 540 q 1038 522 1019 540 q 1056 478 1056 504 q 1038 435 1056 453 q 994 417 1019 417 l 946 417 q 942 344 946 388 q 925 254 939 301 q 883 159 911 207 q 808 73 856 111 q 688 11 760 35 q 517 -12 617 -12 q 368 13 450 -12 q 213 97 286 38 q 91 253 140 156 q 42 497 42 351 q 91 741 42 643 q 213 898 140 839 q 368 982 286 957 q 517 1007 450 1007 q 618 999 568 1007 q 714 973 668 990 q 801 928 760 956 q 875 861 842 900 q 904 803 897 835 q 903 740 911 771 q 875 684 896 710 q 822 646 854 658 q 719 647 771 625 q 646 719 668 668 q 558 835 615 793 q 433 871 501 878 q 331 787 363 864 q 299 579 299 710 q 320 426 299 501 q 381 289 342 350 q 475 190 419 228 q 597 153 531 153 q 678 181 651 153 q 713 249 706 208 q 711 335 719 289 q 686 417 703 381 l 607 417 q 563 435 581 417 q 544 478 544 453 q 563 522 544 504 q 607 540 581 540 l 994 540 l 994 540 m 828 1375 q 849 1366 840 1375 q 856 1344 857 1357 q 829 1247 851 1292 q 769 1167 807 1201 q 675 1114 731 1133 q 549 1094 619 1094 q 421 1114 476 1094 q 327 1167 365 1133 q 267 1247 289 1201 q 240 1344 244 1292 q 247 1366 239 1357 q 268 1375 256 1375 l 382 1375 q 400 1368 393 1375 q 410 1350 407 1361 q 448 1270 415 1303 q 549 1238 481 1238 q 648 1270 615 1238 q 688 1350 681 1303 q 696 1368 689 1361 q 714 1375 703 1375 l 828 1375 l 828 1375 z "},"":{"ha":774,"x_min":42,"x_max":746,"o":"m 661 811 q 719 806 692 824 q 746 754 746 788 q 729 713 746 731 q 689 693 713 696 q 647 687 669 692 q 601 671 624 682 q 692 585 660 636 q 724 471 724 533 q 698 369 724 417 q 627 288 672 322 q 519 233 582 253 q 383 214 457 214 q 249 233 311 214 q 238 212 242 224 q 233 188 233 200 q 236 165 233 175 q 251 150 239 156 q 290 142 264 144 q 363 139 317 139 l 479 139 q 563 125 521 139 q 637 84 604 111 q 690 18 669 57 q 710 -69 710 -21 q 687 -160 710 -118 q 621 -231 664 -201 q 516 -278 578 -261 q 376 -296 454 -296 q 272 -287 324 -296 q 178 -259 219 -278 q 112 -213 138 -240 q 86 -149 86 -186 q 113 -80 86 -106 q 171 -39 139 -54 q 88 22 110 -18 q 65 94 65 61 q 78 155 65 128 q 108 203 90 182 q 146 238 126 224 q 179 261 165 253 q 78 351 115 297 q 42 471 42 404 q 67 572 42 525 q 139 653 93 619 q 247 708 185 688 q 383 728 310 728 q 462 721 424 728 q 533 703 500 714 q 597 773 563 747 q 661 811 631 799 m 488 471 q 478 560 488 525 q 453 615 468 594 q 420 643 439 635 q 383 651 401 651 q 347 643 365 651 q 313 615 328 635 q 288 560 297 594 q 278 471 278 525 q 288 382 278 417 q 313 327 297 347 q 347 299 328 307 q 383 290 365 290 q 420 299 401 290 q 453 327 439 307 q 478 382 468 347 q 488 471 488 417 m 288 -53 q 249 -95 258 -68 q 251 -150 239 -122 q 296 -198 263 -178 q 388 -218 329 -218 q 492 -196 454 -218 q 529 -129 529 -174 q 503 -74 529 -96 q 433 -53 478 -53 l 288 -53 m 667 1097 q 688 1088 679 1097 q 694 1067 696 1079 q 668 969 690 1014 q 608 890 646 924 q 514 836 569 856 q 388 817 458 817 q 260 836 315 817 q 166 890 204 856 q 106 969 128 924 q 79 1067 83 1014 q 86 1088 78 1079 q 107 1097 94 1097 l 221 1097 q 239 1090 232 1097 q 249 1072 246 1083 q 287 992 254 1025 q 388 960 319 960 q 487 992 454 960 q 526 1072 519 1025 q 535 1090 528 1083 q 553 1097 542 1097 l 667 1097 l 667 1097 z "},"":{"ha":1097,"x_min":42,"x_max":1056,"o":"m 994 540 q 1038 522 1019 540 q 1056 478 1056 504 q 1038 435 1056 453 q 994 417 1019 417 l 946 417 q 942 344 946 388 q 925 254 939 301 q 883 159 911 207 q 808 73 856 111 q 688 11 760 35 q 517 -12 617 -12 q 368 13 450 -12 q 213 97 286 38 q 91 253 140 156 q 42 497 42 351 q 91 741 42 643 q 213 898 140 839 q 368 982 286 957 q 517 1007 450 1007 q 618 999 568 1007 q 714 973 668 990 q 801 928 760 956 q 875 861 842 900 q 904 803 897 835 q 903 740 911 771 q 875 684 896 710 q 822 646 854 658 q 719 647 771 625 q 646 719 668 668 q 558 835 615 793 q 433 871 501 878 q 331 787 363 864 q 299 579 299 710 q 320 426 299 501 q 381 289 342 350 q 475 190 419 228 q 597 153 531 153 q 678 181 651 153 q 713 249 706 208 q 711 335 719 289 q 686 417 703 381 l 607 417 q 563 435 581 417 q 544 478 544 453 q 563 522 544 504 q 607 540 581 540 l 994 540 l 994 540 m 547 1094 q 493 1106 518 1094 q 449 1135 468 1117 q 419 1180 431 1154 q 408 1235 408 1206 q 419 1290 408 1264 q 449 1334 431 1315 q 493 1364 468 1353 q 547 1375 518 1375 q 602 1364 576 1375 q 647 1334 628 1353 q 676 1290 665 1315 q 688 1235 688 1264 q 676 1180 688 1206 q 647 1135 665 1154 q 602 1106 628 1117 q 547 1094 576 1094 z "},"":{"ha":774,"x_min":42,"x_max":746,"o":"m 661 811 q 719 806 692 824 q 746 754 746 788 q 729 713 746 731 q 689 693 713 696 q 647 687 669 692 q 601 671 624 682 q 692 585 660 636 q 724 471 724 533 q 698 369 724 417 q 627 288 672 322 q 519 233 582 253 q 383 214 457 214 q 249 233 311 214 q 238 212 242 224 q 233 188 233 200 q 236 165 233 175 q 251 150 239 156 q 290 142 264 144 q 363 139 317 139 l 479 139 q 563 125 521 139 q 637 84 604 111 q 690 18 669 57 q 710 -69 710 -21 q 687 -160 710 -118 q 621 -231 664 -201 q 516 -278 578 -261 q 376 -296 454 -296 q 272 -287 324 -296 q 178 -259 219 -278 q 112 -213 138 -240 q 86 -149 86 -186 q 113 -80 86 -106 q 171 -39 139 -54 q 88 22 110 -18 q 65 94 65 61 q 78 155 65 128 q 108 203 90 182 q 146 238 126 224 q 179 261 165 253 q 78 351 115 297 q 42 471 42 404 q 67 572 42 525 q 139 653 93 619 q 247 708 185 688 q 383 728 310 728 q 462 721 424 728 q 533 703 500 714 q 597 773 563 747 q 661 811 631 799 m 488 471 q 478 560 488 525 q 453 615 468 594 q 420 643 439 635 q 383 651 401 651 q 347 643 365 651 q 313 615 328 635 q 288 560 297 594 q 278 471 278 525 q 288 382 278 417 q 313 327 297 347 q 347 299 328 307 q 383 290 365 290 q 420 299 401 290 q 453 327 439 307 q 478 382 468 347 q 488 471 488 417 m 288 -53 q 249 -95 258 -68 q 251 -150 239 -122 q 296 -198 263 -178 q 388 -218 329 -218 q 492 -196 454 -218 q 529 -129 529 -174 q 503 -74 529 -96 q 433 -53 478 -53 l 288 -53 m 386 817 q 332 828 357 817 q 288 858 307 839 q 258 902 269 876 q 247 957 247 928 q 258 1012 247 986 q 288 1056 269 1038 q 332 1086 307 1075 q 386 1097 357 1097 q 441 1086 415 1097 q 485 1056 467 1075 q 515 1012 504 1038 q 526 957 526 986 q 515 902 526 928 q 485 858 504 876 q 441 828 467 839 q 386 817 415 817 z "},"":{"ha":994,"x_min":42,"x_max":953,"o":"m 914 1007 q 942 995 931 1007 q 953 968 953 983 q 944 943 953 953 l 892 879 l 892 128 l 944 65 q 953 40 953 54 q 942 13 953 25 q 914 1 931 1 l 632 1 q 605 13 617 1 q 593 40 593 25 q 603 65 593 56 l 656 128 l 656 449 l 340 449 l 340 128 l 393 65 q 401 40 401 54 q 390 13 401 25 q 363 1 379 1 l 81 1 q 53 13 65 1 q 42 40 42 25 q 51 65 42 56 l 104 128 l 104 879 l 51 943 q 42 968 42 953 q 53 995 42 983 q 81 1007 65 1007 l 363 1007 q 390 995 379 1007 q 401 968 401 983 q 393 943 401 953 l 340 879 l 340 560 l 656 560 l 656 879 l 603 943 q 593 968 593 953 q 605 995 593 983 q 632 1007 617 1007 l 914 1007 l 914 1007 m 774 1128 q 775 1106 781 1117 q 757 1094 769 1094 l 633 1094 q 600 1113 611 1094 l 497 1261 l 396 1113 q 361 1094 382 1094 l 239 1094 q 219 1106 225 1094 q 222 1128 214 1117 l 393 1358 q 426 1375 407 1375 l 568 1375 q 601 1358 588 1375 l 774 1128 z "},"":{"ha":863,"x_min":42,"x_max":821,"o":"m 813 65 q 821 40 821 54 q 810 13 821 25 q 782 1 799 1 l 500 1 q 472 13 483 1 q 461 40 461 25 q 469 65 461 54 l 522 128 l 522 413 q 519 517 522 475 q 506 586 515 560 q 482 624 497 613 q 443 636 467 636 q 389 615 415 636 q 340 567 363 594 l 340 128 l 393 65 q 403 40 403 53 q 391 13 403 25 q 364 1 379 1 l 81 1 q 53 13 65 1 q 42 40 42 25 q 51 65 42 53 l 104 128 l 104 821 l 57 863 q 42 896 42 875 q 51 923 42 911 q 74 939 60 935 l 104 949 l 272 999 q 317 992 296 1007 q 340 949 340 976 l 340 649 q 416 703 372 681 q 514 726 460 726 q 596 713 553 726 q 675 668 639 700 q 735 581 711 636 q 758 440 758 525 l 758 128 l 813 65 m 707 1079 q 708 1057 714 1068 q 690 1046 703 1046 l 567 1046 q 533 1064 544 1046 l 431 1213 l 329 1064 q 294 1046 315 1046 l 172 1046 q 153 1057 158 1046 q 156 1079 147 1068 l 326 1310 q 360 1326 340 1326 l 501 1326 q 535 1310 521 1326 l 707 1079 z "},"":{"ha":994,"x_min":-1115,"x_max":953,"o":"m 914 1007 q 942 995 931 1007 q 953 968 953 983 q 944 943 953 953 l 892 879 l 892 128 l 944 65 q 953 40 953 54 q 942 13 953 25 q 914 1 931 1 l 632 1 q 605 13 617 1 q 593 40 593 25 q 603 65 593 56 l 656 128 l 656 449 l 340 449 l 340 128 l 393 65 q 401 40 401 54 q 390 13 401 25 q 363 1 379 1 l 81 1 q 53 13 65 1 q 42 40 42 25 q 51 65 42 56 l 104 128 l 104 879 l 51 943 q 42 968 42 953 q 53 995 42 983 q 81 1007 65 1007 l 363 1007 q 390 995 379 1007 q 401 968 401 983 q 393 943 401 953 l 340 879 l 340 560 l 656 560 l 656 879 l 603 943 q 593 968 593 953 q 605 995 593 983 q 632 1007 617 1007 l 914 1007 l 914 1007 m -1067 769 q -1102 762 -1088 769 q -1115 744 -1115 754 l -1115 673 q -1102 655 -1115 662 q -1067 647 -1088 647 l -273 647 q -237 655 -252 647 q -223 673 -223 662 l -223 744 q -237 762 -223 754 q -273 769 -252 769 l -1067 769 l -1067 769 z "},"":{"ha":863,"x_min":-7,"x_max":821,"o":"m 813 65 q 821 40 821 54 q 810 13 821 25 q 782 1 799 1 l 500 1 q 472 13 483 1 q 461 40 461 25 q 469 65 461 54 l 522 128 l 522 413 q 519 517 522 475 q 506 586 515 560 q 482 624 497 613 q 443 636 467 636 q 389 615 415 636 q 340 567 363 594 l 340 128 l 393 65 q 403 40 403 53 q 391 13 403 25 q 364 1 379 1 l 81 1 q 53 13 65 1 q 42 40 42 25 q 51 65 42 53 l 104 128 l 104 821 l 57 863 q 42 896 42 875 q 51 923 42 911 q 74 939 60 935 l 104 949 l 272 999 q 317 992 296 1007 q 340 949 340 976 l 340 649 q 416 703 372 681 q 514 726 460 726 q 596 713 553 726 q 675 668 639 700 q 735 581 711 636 q 758 440 758 525 l 758 128 l 813 65 m 440 492 q 458 484 451 492 q 465 465 465 476 l 465 393 q 458 374 465 382 q 440 367 451 367 l 19 367 q 1 374 8 367 q -7 393 -7 382 l -7 465 q 1 484 -7 476 q 19 492 8 492 l 440 492 l 440 492 z "},"":{"ha":444,"x_min":-85,"x_max":531,"o":"m 364 1007 q 391 995 379 1007 q 403 968 403 983 q 393 943 403 956 l 340 879 l 340 128 l 393 65 q 403 40 403 53 q 391 13 403 25 q 364 1 379 1 l 81 1 q 53 13 65 1 q 42 40 42 25 q 51 65 42 53 l 104 128 l 104 879 l 51 943 q 42 968 42 956 q 53 995 42 983 q 81 1007 65 1007 l 364 1007 l 364 1007 m 358 1351 q 426 1328 397 1351 q 476 1273 456 1306 q 508 1206 496 1240 q 526 1146 521 1171 q 524 1120 531 1132 q 506 1103 518 1108 q 482 1099 494 1097 q 461 1113 469 1101 q 410 1156 442 1135 q 342 1178 378 1178 q 278 1163 307 1178 q 221 1131 250 1149 q 160 1098 192 1113 q 88 1083 128 1083 q 22 1104 50 1083 q -26 1156 -6 1125 q -60 1219 -47 1186 q -81 1276 -74 1253 q -78 1306 -85 1292 q -58 1328 -72 1321 l -57 1328 q -28 1331 -43 1335 q -4 1317 -14 1328 q 42 1272 13 1294 q 110 1249 71 1249 q 169 1265 142 1249 q 226 1300 197 1281 q 286 1335 254 1319 q 358 1351 318 1351 z "},"":{"ha":443,"x_min":-86,"x_max":529,"o":"m 393 65 q 401 40 401 54 q 390 13 401 25 q 363 1 379 1 l 81 1 q 53 13 65 1 q 42 40 42 25 q 51 65 42 56 l 104 128 l 104 549 l 57 590 q 42 624 42 603 q 74 667 42 656 l 104 675 l 272 726 q 317 719 299 733 q 340 676 340 704 l 340 128 l 393 65 m 357 1074 q 425 1051 396 1074 q 474 995 454 1028 q 507 928 494 963 q 525 868 519 893 q 523 842 529 854 q 504 825 517 831 q 481 822 493 819 q 460 835 468 824 q 408 878 440 857 q 340 900 376 900 q 277 885 306 900 q 219 853 249 871 q 158 820 190 835 q 86 806 126 806 q 21 826 49 806 q -28 878 -7 847 q -62 942 -49 908 q -82 999 -75 975 q -80 1028 -86 1014 q -60 1050 -74 1043 l -58 1050 q -30 1053 -44 1057 q -6 1039 -15 1050 q 40 994 11 1017 q 108 971 69 971 q 168 987 140 971 q 224 1022 196 1003 q 285 1058 253 1042 q 357 1074 317 1074 z "},"":{"ha":444,"x_min":-14,"x_max":458,"o":"m 364 1007 q 391 995 379 1007 q 403 968 403 983 q 393 943 403 956 l 340 879 l 340 128 l 393 65 q 403 40 403 53 q 391 13 403 25 q 364 1 379 1 l 81 1 q 53 13 65 1 q 42 40 42 25 q 51 65 42 53 l 104 128 l 104 879 l 51 943 q 42 968 42 956 q 53 995 42 983 q 81 1007 65 1007 l 364 1007 l 364 1007 m 433 1219 q 451 1212 444 1219 q 458 1193 458 1204 l 458 1121 q 451 1102 458 1110 q 433 1094 444 1094 l 13 1094 q -6 1102 1 1094 q -14 1121 -14 1110 l -14 1193 q -6 1212 -14 1204 q 13 1219 1 1219 l 433 1219 l 433 1219 z "},"":{"ha":443,"x_min":-14,"x_max":458,"o":"m 393 65 q 401 40 401 54 q 390 13 401 25 q 363 1 379 1 l 81 1 q 53 13 65 1 q 42 40 42 25 q 51 65 42 56 l 104 128 l 104 549 l 57 590 q 42 624 42 603 q 74 667 42 656 l 104 675 l 272 726 q 317 719 299 733 q 340 676 340 704 l 340 128 l 393 65 m 433 942 q 451 934 444 942 q 458 915 458 926 l 458 843 q 451 824 458 832 q 433 817 444 817 l 13 817 q -6 824 1 817 q -14 843 -14 832 l -14 915 q -6 934 -14 926 q 13 942 1 942 l 433 942 l 433 942 z "},"":{"ha":444,"x_min":-10,"x_max":403,"o":"m 364 1007 q 391 995 379 1007 q 403 968 403 983 q 393 943 403 956 l 340 879 l 340 128 l 393 65 q 403 40 403 53 q 391 13 403 25 q 364 1 379 1 l 81 1 q 53 13 65 1 q 42 40 42 25 q 51 65 42 53 l 104 128 l 104 879 l 51 943 q 42 968 42 956 q 53 995 42 983 q 81 1007 65 1007 l 364 1007 l 364 1007 m 333 6 q 253 -69 289 -29 q 197 -151 222 -104 q 172 -250 172 -197 q 201 -336 172 -307 q 300 -368 231 -365 q 314 -374 308 -368 q 319 -389 319 -381 l 319 -442 q 313 -456 319 -450 q 299 -462 307 -462 q 133 -443 194 -461 q 40 -398 72 -425 q -1 -337 8 -371 q -10 -271 -10 -304 q 3 -201 -10 -235 q 38 -138 17 -168 q 85 -82 58 -108 q 142 -35 113 -56 q 294 56 208 15 l 333 6 l 333 6 z "},"":{"ha":443,"x_min":18,"x_max":401,"o":"m 393 65 q 401 40 401 54 q 390 13 401 25 q 363 1 379 1 l 81 1 q 53 13 65 1 q 42 40 42 25 q 51 65 42 56 l 104 128 l 104 549 l 57 590 q 42 624 42 603 q 74 667 42 656 l 104 675 l 272 726 q 317 719 299 733 q 340 676 340 704 l 340 128 l 393 65 m 238 771 q 183 768 210 764 q 133 785 156 772 q 94 819 110 799 q 72 865 78 839 q 71 917 65 892 q 91 965 76 943 q 128 1002 106 986 q 179 1025 150 1018 q 234 1026 207 1031 q 284 1010 261 1022 q 323 976 307 997 q 346 929 339 956 q 326 831 357 876 q 238 771 296 785 m 361 6 q 281 -69 317 -29 q 225 -151 250 -104 q 200 -250 200 -197 q 229 -336 200 -307 q 328 -368 258 -365 q 342 -374 336 -368 q 347 -389 347 -381 l 347 -442 q 341 -456 347 -450 q 326 -462 335 -462 q 161 -443 222 -461 q 68 -398 100 -425 q 27 -337 36 -371 q 18 -271 18 -304 q 31 -201 18 -235 q 65 -138 44 -168 q 113 -82 86 -108 q 169 -35 140 -56 q 322 56 236 15 l 361 6 l 361 6 z "},"":{"ha":444,"x_min":42,"x_max":403,"o":"m 364 1007 q 391 995 379 1007 q 403 968 403 983 q 393 943 403 956 l 340 879 l 340 128 l 393 65 q 403 40 403 53 q 391 13 403 25 q 364 1 379 1 l 81 1 q 53 13 65 1 q 42 40 42 25 q 51 65 42 53 l 104 128 l 104 879 l 51 943 q 42 968 42 956 q 53 995 42 983 q 81 1007 65 1007 l 364 1007 l 364 1007 m 221 1094 q 167 1106 192 1094 q 123 1135 142 1117 q 93 1180 104 1154 q 82 1235 82 1206 q 93 1290 82 1264 q 123 1334 104 1315 q 167 1364 142 1353 q 221 1375 192 1375 q 276 1364 250 1375 q 320 1334 301 1353 q 350 1290 339 1315 q 361 1235 361 1264 q 350 1180 361 1206 q 320 1135 339 1154 q 276 1106 301 1117 q 221 1094 250 1094 z "},"":{"ha":1235,"x_min":42,"x_max":1207,"o":"m 364 1007 q 391 995 379 1007 q 403 968 403 983 q 393 943 403 956 l 340 879 l 340 128 l 393 65 q 403 40 403 53 q 391 13 403 25 q 364 1 379 1 l 81 1 q 53 13 65 1 q 42 40 42 25 q 51 65 42 53 l 104 128 l 104 879 l 51 943 q 42 968 42 956 q 53 995 42 983 q 81 1007 65 1007 l 364 1007 l 364 1007 m 1168 1007 q 1195 995 1183 1007 q 1207 968 1207 983 q 1197 943 1207 956 l 1144 879 l 1144 314 q 1125 178 1144 239 q 1064 76 1106 118 q 956 10 1022 33 q 794 -12 889 -12 q 622 24 699 -12 q 503 139 546 60 q 487 207 485 172 q 506 270 489 242 q 552 317 522 299 q 619 335 582 335 q 707 301 669 335 q 751 219 744 268 q 778 128 758 157 q 829 99 797 99 q 888 149 867 99 q 908 314 908 199 l 908 879 l 856 943 q 846 968 846 956 q 858 995 846 983 q 885 1007 869 1007 l 1168 1007 l 1168 1007 z "}}}
